<?xml version="1.0" encoding="UTF-8"?>
<!DOCTYPE svg PUBLIC "-//W3C//DTD SVG 1.1//EN" "http://www.w3.org/Graphics/SVG/1.1/DTD/svg11.dtd">
<svg version="1.1" xmlns="http://www.w3.org/2000/svg" xmlns:xlink="http://www.w3.org/1999/xlink" x="0" y="0" width="30" height="40" viewBox="0, 0, 30, 40">
  <g id="layer1">
    <path d="M27.192,8.525 L27.192,1.181 L23.016,1.181 L23.016,8.381 C22.971,10.402 22.485,12.084 21.558,13.427 C20.631,14.77 19.533,15.888 18.264,16.781 L7.32,1.181 L2.424,1.181 L9.528,11.261 C7.652,12.524 6.076,14.198 4.8,16.283 C3.524,18.368 2.86,20.63 2.808,23.069 L2.808,29.98 L6.984,29.98 L6.984,23.213 C7.119,20.682 7.785,18.664 8.982,17.159 C10.179,15.654 11.097,14.728 11.736,14.381 L22.68,29.98 L27.576,29.98 L20.472,19.901 C22.285,18.686 23.843,17.072 25.146,15.059 C26.449,13.046 27.131,10.868 27.192,8.525 z" fill="#000000" id="path2985"/>
    <g>
      <path d="M12.773,7.985 L16.067,12.665 L11.874,15.479 L8.579,10.799 L12.773,7.985 z" fill="#FFFFFF"/>
      <path d="M12.773,7.985 L16.067,12.665 L11.874,15.479 L8.579,10.799 L12.773,7.985 z" fill-opacity="0" stroke="#000000" stroke-width="1.05"/>
    </g>
    <g>
      <path d="M18.132,15.741 L21.427,20.421 L17.233,23.235 L13.939,18.555 L18.132,15.741 z" fill="#FFFFFF"/>
      <path d="M18.132,15.741 L21.427,20.421 L17.233,23.235 L13.939,18.555 L18.132,15.741 z" fill-opacity="0" stroke="#000000" stroke-width="1.05"/>
    </g>
  </g>
</svg>
