<?xml version="1.0" encoding="utf-8"?>
<!-- Generator: Adobe Illustrator 22.1.0, SVG Export Plug-In . SVG Version: 6.00 Build 0)  -->
<svg version="1.1" id="Layer_1" xmlns="http://www.w3.org/2000/svg" xmlns:xlink="http://www.w3.org/1999/xlink" x="0px" y="0px"
	 viewBox="0 0 614 176.4" style="enable-background:new 0 0 614 176.4;" xml:space="preserve">
<style type="text/css">
	.st0{fill:#0A2C36;}
	.st1{fill:#D9502F;}
	.st2{fill:#8FC892;}
</style>
<g>
	<path class="st0" d="M533.2,87c0,26.3-18.2,45.7-44,45.7c-25.7,0-43.9-19.5-43.9-45.7c0-26.1,18.2-45.6,43.9-45.6
		C514.9,41.4,533.2,60.9,533.2,87 M516,87c0-19.8-12.5-30.5-26.8-30.5c-14.3,0-26.8,10.7-26.8,30.5c0,20,12.5,30.7,26.8,30.7
		C503.5,117.7,516,107,516,87"/>
	<path class="st0" d="M573.4,11.5c0,6.6-4.6,11.5-11.1,11.5c-6.5,0-11.1-4.9-11.1-11.5c0-6.6,4.6-11.5,11.1-11.5
		C568.8,0,573.4,4.9,573.4,11.5"/>
	<path class="st0" d="M614,11.5c0,6.6-4.6,11.5-11.1,11.5c-6.5,0-11.1-4.9-11.1-11.5c0-6.6,4.6-11.5,11.1-11.5
		C609.4,0,614,4.9,614,11.5"/>
	<path class="st0" d="M227.6,87c0,26.3-18.2,45.7-43.9,45.7c-25.7,0-43.9-19.5-43.9-45.7c0-26.1,18.2-45.6,43.9-45.6
		C209.4,41.4,227.6,60.9,227.6,87 M210.5,87c0-19.8-12.5-30.5-26.8-30.5c-14.3,0-26.8,10.7-26.8,30.5c0,20,12.5,30.7,26.8,30.7
		C198,117.7,210.5,107,210.5,87"/>
	<rect x="595.7" y="44.1" class="st0" width="16.6" height="85.9"/>
	<rect x="211.7" y="44.1" class="st0" width="16.6" height="85.9"/>
	<path class="st0" d="M415,44.1l-0.3,87.8c0,18.6-8.2,27.9-26.3,27.9c-9,0-16.1-4.4-20-11l-14.3,8.4c6.8,10.5,19.2,17.2,34.3,17.2
		c32.3,0,43.1-21.3,43.1-43l0.1-87.3H415z"/>
	<path class="st0" d="M554,44.1l-0.3,87.8c0,18.6-8.2,27.9-26.3,27.9c-9,0-16.1-4.4-20-11l-14.3,8.4c6.8,10.5,19.2,17.2,34.3,17.2
		c32.3,0,43.1-21.3,43.1-43l0.1-87.3H554z"/>
	<path class="st0" d="M329.5,87c0,26.3-18.2,45.7-43.9,45.7c-25.7,0-43.9-19.5-43.9-45.7c0-26.1,18.2-45.6,43.9-45.6
		C311.3,41.4,329.5,60.9,329.5,87 M312.4,87c0-19.8-12.5-30.5-26.8-30.5c-14.3,0-26.8,10.7-26.8,30.5c0,20,12.5,30.7,26.8,30.7
		C299.9,117.7,312.4,107,312.4,87"/>
	<path class="st0" d="M431.4,87c0,26.3-18.2,45.7-43.9,45.7c-25.7,0-43.9-19.5-43.9-45.7c0-26.1,18.2-45.6,43.9-45.6
		C413.2,41.4,431.4,60.9,431.4,87 M414.3,87c0-19.8-12.5-30.5-26.8-30.5c-14.3,0-26.8,10.7-26.8,30.5c0,20,12.5,30.7,26.8,30.7
		C401.8,117.7,414.3,107,414.3,87"/>
	<rect x="313.6" y="0.7" class="st0" width="16.6" height="129.3"/>
	<path class="st1" d="M89.1,75.6L58.8,46l-1.6,5.5l2.7,10c0.2,0.6,0,1.3-0.5,1.7c-0.5,0.4-1.2,0.6-1.8,0.4l-14.5-4.9l-6.2,6.2
		c-0.3,0.3-0.8,0.5-1.2,0.5l-0.1,0c-0.5,0-1-0.3-1.3-0.7l-7-9.1L14.1,67.3L7.6,83.5l13.2,56.4l40.1,32.7l4.6,1.5l8.4,2.3l14.7-15.5
		l16.8-39.1L89.1,75.6z"/>
	<path class="st2" d="M18.3,58.7l7.9-7.1c0.3-0.3,0.7-0.5,1.2-0.5l0.1,0c0.5,0,1,0.3,1.3,0.7l7,9.1l5.6-5.5c0.5-0.5,1.2-0.6,1.8-0.4
		l12.4,4.2l-1.9-7.3c-0.1-0.3-0.1-0.6,0-0.9l2.4-8.6L20.3,16.6L1.3,0.7L0,6.5l14.3,17.2L16,60.9L18.3,58.7L18.3,58.7z"/>
</g>
</svg>
