<svg width="453" height="161" viewBox="0 0 453 161" fill="none" xmlns="http://www.w3.org/2000/svg">
<path d="M121.597 151.886V149.402L124.809 148.85V126.243L121.597 125.691V123.188H142.844V130.087H139.73L139.296 126.184H128.692V135.527H139.276V138.582H128.692V148.969H139.927L140.36 145.007H143.455V151.886H121.597ZM156.726 151.886V149.402L159.939 148.85V133.615L156.726 133.063V130.56H163.408L163.684 133.733C164.393 132.603 165.28 131.729 166.344 131.112C167.422 130.481 168.644 130.165 170.01 130.165C172.31 130.165 174.09 130.842 175.352 132.196C176.613 133.536 177.244 135.612 177.244 138.424V148.85L180.457 149.402V151.886H170.148V149.402L173.361 148.85V138.503C173.361 136.624 172.987 135.29 172.238 134.502C171.502 133.713 170.372 133.319 168.848 133.319C167.731 133.319 166.739 133.588 165.871 134.127C165.017 134.666 164.334 135.402 163.822 136.335V148.85L167.034 149.402V151.886H156.726ZM201.907 160.499C200.883 160.499 199.772 160.354 198.577 160.065C197.381 159.789 196.33 159.408 195.423 158.922L196.428 155.907C197.151 156.288 198.005 156.603 198.99 156.853C199.976 157.102 200.935 157.227 201.868 157.227C203.603 157.227 204.871 156.741 205.672 155.769C206.487 154.796 206.894 153.41 206.894 151.61V149.58C206.198 150.473 205.363 151.15 204.391 151.61C203.419 152.07 202.302 152.3 201.04 152.3C199.306 152.3 197.808 151.873 196.546 151.019C195.285 150.151 194.313 148.949 193.629 147.412C192.959 145.861 192.624 144.067 192.624 142.031V141.617C192.624 139.331 192.959 137.327 193.629 135.605C194.313 133.884 195.285 132.55 196.546 131.604C197.808 130.645 199.319 130.165 201.08 130.165C202.42 130.165 203.596 130.428 204.608 130.954C205.62 131.479 206.467 132.242 207.15 133.24L207.505 130.56H210.777V151.61C210.777 153.449 210.429 155.033 209.732 156.36C209.049 157.687 208.044 158.705 206.717 159.415C205.403 160.138 203.8 160.499 201.907 160.499ZM202.006 149.146C203.175 149.146 204.154 148.883 204.943 148.358C205.731 147.819 206.382 147.063 206.894 146.091V136.276C206.395 135.369 205.744 134.653 204.943 134.127C204.141 133.588 203.175 133.319 202.045 133.319C200.81 133.319 199.779 133.674 198.951 134.383C198.136 135.093 197.525 136.072 197.118 137.32C196.711 138.555 196.507 139.988 196.507 141.617V142.031C196.507 144.173 196.96 145.894 197.867 147.195C198.774 148.496 200.153 149.146 202.006 149.146ZM210.186 133.733L208.668 130.56H213.418V133.043L210.186 133.733ZM224.758 151.886V149.402L227.97 148.85V133.615L224.758 133.063V130.56H231.853V148.85L235.066 149.402V151.886H224.758ZM227.773 125.297V121.138H231.853V125.297H227.773ZM247.273 151.886V149.402L250.486 148.85V133.615L247.273 133.063V130.56H253.955L254.23 133.733C254.94 132.603 255.827 131.729 256.891 131.112C257.969 130.481 259.191 130.165 260.557 130.165C262.857 130.165 264.637 130.842 265.899 132.196C267.16 133.536 267.791 135.612 267.791 138.424V148.85L271.004 149.402V151.886H260.695V149.402L263.908 148.85V138.503C263.908 136.624 263.534 135.29 262.785 134.502C262.049 133.713 260.919 133.319 259.394 133.319C258.278 133.319 257.285 133.588 256.418 134.127C255.564 134.666 254.881 135.402 254.368 136.335V148.85L257.581 149.402V151.886H247.273ZM292.691 152.3C290.72 152.3 289.005 151.853 287.547 150.959C286.088 150.053 284.958 148.798 284.157 147.195C283.368 145.592 282.974 143.739 282.974 141.637V140.769C282.974 138.746 283.388 136.939 284.216 135.349C285.057 133.746 286.167 132.485 287.547 131.565C288.939 130.632 290.457 130.165 292.1 130.165C294.018 130.165 295.621 130.56 296.909 131.348C298.21 132.136 299.189 133.247 299.846 134.679C300.503 136.098 300.831 137.773 300.831 139.705V142.129H286.995L286.936 142.228C286.962 143.594 287.198 144.81 287.645 145.874C288.105 146.925 288.762 147.753 289.616 148.358C290.47 148.962 291.495 149.264 292.691 149.264C294.005 149.264 295.155 149.08 296.14 148.712C297.139 148.331 297.999 147.812 298.722 147.155L300.24 149.678C299.478 150.414 298.466 151.038 297.204 151.551C295.956 152.05 294.452 152.3 292.691 152.3ZM287.113 139.094H296.948V138.582C296.948 137.557 296.764 136.643 296.396 135.842C296.042 135.027 295.503 134.39 294.78 133.93C294.071 133.457 293.177 133.22 292.1 133.22C291.232 133.22 290.444 133.477 289.734 133.989C289.025 134.488 288.44 135.172 287.98 136.039C287.52 136.906 287.218 137.892 287.074 138.995L287.113 139.094ZM323.701 152.3C321.73 152.3 320.015 151.853 318.557 150.959C317.098 150.053 315.968 148.798 315.167 147.195C314.378 145.592 313.984 143.739 313.984 141.637V140.769C313.984 138.746 314.398 136.939 315.226 135.349C316.067 133.746 317.177 132.485 318.557 131.565C319.95 130.632 321.467 130.165 323.11 130.165C325.028 130.165 326.631 130.56 327.919 131.348C329.22 132.136 330.199 133.247 330.856 134.679C331.513 136.098 331.841 137.773 331.841 139.705V142.129H318.005L317.946 142.228C317.972 143.594 318.209 144.81 318.655 145.874C319.115 146.925 319.772 147.753 320.626 148.358C321.48 148.962 322.505 149.264 323.701 149.264C325.015 149.264 326.165 149.08 327.15 148.712C328.149 148.331 329.01 147.812 329.732 147.155L331.25 149.678C330.488 150.414 329.476 151.038 328.215 151.551C326.966 152.05 325.462 152.3 323.701 152.3ZM318.123 139.094H327.958V138.582C327.958 137.557 327.774 136.643 327.406 135.842C327.052 135.027 326.513 134.39 325.79 133.93C325.081 133.457 324.187 133.22 323.11 133.22C322.242 133.22 321.454 133.477 320.745 133.989C320.035 134.488 319.45 135.172 318.99 136.039C318.53 136.906 318.228 137.892 318.084 138.995L318.123 139.094ZM344.363 151.886V149.402L347.576 148.85V133.615L344.363 133.063V130.56H351.045L351.38 133.28L351.42 133.654C352.024 132.563 352.766 131.709 353.647 131.092C354.54 130.474 355.559 130.165 356.702 130.165C357.109 130.165 357.523 130.205 357.944 130.284C358.377 130.349 358.686 130.415 358.87 130.481L358.357 134.088L355.657 133.93C354.632 133.864 353.772 134.101 353.075 134.64C352.379 135.165 351.84 135.875 351.459 136.768V148.85L354.672 149.402V151.886H344.363ZM370.623 151.886V149.402L373.836 148.85V133.615L370.623 133.063V130.56H377.719V148.85L380.932 149.402V151.886H370.623ZM373.639 125.297V121.138H377.719V125.297H373.639ZM393.139 151.886V149.402L396.351 148.85V133.615L393.139 133.063V130.56H399.82L400.096 133.733C400.806 132.603 401.693 131.729 402.757 131.112C403.834 130.481 405.056 130.165 406.423 130.165C408.723 130.165 410.503 130.842 411.764 132.196C413.026 133.536 413.657 135.612 413.657 138.424V148.85L416.869 149.402V151.886H406.561V149.402L409.774 148.85V138.503C409.774 136.624 409.399 135.29 408.65 134.502C407.914 133.713 406.784 133.319 405.26 133.319C404.143 133.319 403.151 133.588 402.284 134.127C401.43 134.666 400.747 135.402 400.234 136.335V148.85L403.447 149.402V151.886H393.139ZM438.32 160.499C437.295 160.499 436.185 160.354 434.989 160.065C433.793 159.789 432.742 159.408 431.836 158.922L432.841 155.907C433.563 156.288 434.418 156.603 435.403 156.853C436.389 157.102 437.348 157.227 438.281 157.227C440.015 157.227 441.283 156.741 442.085 155.769C442.899 154.796 443.307 153.41 443.307 151.61V149.58C442.61 150.473 441.776 151.15 440.804 151.61C439.831 152.07 438.714 152.3 437.453 152.3C435.718 152.3 434.22 151.873 432.959 151.019C431.698 150.151 430.725 148.949 430.042 147.412C429.372 145.861 429.037 144.067 429.037 142.031V141.617C429.037 139.331 429.372 137.327 430.042 135.605C430.725 133.884 431.698 132.55 432.959 131.604C434.22 130.645 435.732 130.165 437.492 130.165C438.833 130.165 440.009 130.428 441.02 130.954C442.032 131.479 442.88 132.242 443.563 133.24L443.918 130.56H447.19V151.61C447.19 153.449 446.841 155.033 446.145 156.36C445.462 157.687 444.456 158.705 443.129 159.415C441.815 160.138 440.212 160.499 438.32 160.499ZM438.419 149.146C439.588 149.146 440.567 148.883 441.355 148.358C442.144 147.819 442.794 147.063 443.307 146.091V136.276C442.807 135.369 442.157 134.653 441.355 134.127C440.554 133.588 439.588 133.319 438.458 133.319C437.223 133.319 436.191 133.674 435.364 134.383C434.549 135.093 433.938 136.072 433.531 137.32C433.123 138.555 432.92 139.988 432.92 141.617V142.031C432.92 144.173 433.373 145.894 434.28 147.195C435.186 148.496 436.566 149.146 438.419 149.146ZM446.598 133.733L445.081 130.56H449.831V133.043L446.598 133.733Z" fill="white"/>
<path d="M0.561617 41.7395L20.029 78.8983C21.3268 81.4257 24.6739 83.4749 27.3378 83.4749L67.0923 83.4066C69.8246 83.4066 70.9175 81.3574 69.6197 78.83L50.1523 41.6029C48.8544 39.0756 45.5757 37.0264 42.8434 37.0264L3.08896 37.0947C3.02066 37.0947 2.95235 37.0947 2.88404 37.0947C0.28839 37.2313 -0.736209 39.2122 0.561617 41.7395Z" fill="white"/>
<path d="M76.1086 84.978L87.9256 106.973C88.7453 108.475 90.7262 109.705 92.2973 109.637L116 109.363C117.639 109.363 118.254 108.134 117.434 106.631L105.685 84.7048C104.866 83.202 102.885 81.9725 101.314 82.0408L77.6113 82.314H77.543C75.972 82.314 75.2889 83.4752 76.1086 84.978Z" fill="white"/>
<path d="M76.246 1.37041L52.5436 31.7669C50.9042 33.8161 50.6993 37.5729 52.0654 40.1003L71.8743 77.0542C73.2405 79.5815 75.6312 79.9231 77.2706 77.8739L100.973 47.4774C102.612 45.4282 102.817 41.6713 101.451 39.144L81.6422 2.19009C80.8225 0.687341 79.7296 -0.0640325 78.5684 0.00427412C77.7487 0.0725808 76.929 0.482421 76.246 1.37041Z" fill="white"/>
<path d="M70.7116 85.388L56.5721 103.489C55.6158 104.719 55.4792 106.973 56.2989 108.476L68.1159 130.47C68.9356 131.973 70.37 132.178 71.3263 130.949L85.4658 112.847C86.4221 111.618 86.5587 109.364 85.739 107.861L73.922 85.8662C73.4438 84.9782 72.7608 84.5684 72.0777 84.5684C71.5996 84.5684 71.1214 84.8416 70.7116 85.388Z" fill="white"/>
<path d="M337.654 32.2451H329.73V91.8085H337.654V32.2451Z" fill="white"/>
<path d="M187.997 51.0986C176.658 51.0986 167.436 60.32 167.436 71.6589V109.569H175.36V71.6589H175.428C175.428 64.6233 181.098 58.9539 188.133 58.9539C195.169 58.9539 200.838 64.6233 200.838 71.6589C200.838 78.6945 195.169 84.364 188.133 84.364C184.171 84.364 180.62 82.5197 178.297 79.7191V89.7602C181.166 91.3312 184.513 92.2192 187.997 92.2192C199.336 92.2192 208.557 82.9978 208.557 71.6589C208.557 60.32 199.336 51.0986 187.997 51.0986Z" fill="white"/>
<path d="M232.599 51.0986C221.26 51.0986 212.038 60.32 212.038 71.6589V109.569H219.962V71.6589H220.03C220.03 64.6233 225.7 58.9539 232.735 58.9539C239.771 58.9539 245.44 64.6233 245.44 71.6589C245.44 78.6945 239.771 84.364 232.735 84.364C228.773 84.364 225.221 82.5197 222.899 79.7191V89.7602C225.768 91.3312 229.115 92.2192 232.599 92.2192C243.937 92.2192 253.159 82.9978 253.159 71.6589C253.091 60.32 243.937 51.0986 232.599 51.0986Z" fill="white"/>
<path d="M142.093 32.2451C130.754 32.2451 121.533 41.4665 121.533 52.8054V91.8085H129.457V52.8054C129.457 45.8381 135.126 40.1687 142.093 40.1687C149.061 40.1687 154.73 45.8381 154.73 52.8054V57.2453H134.375V65.1689H154.73V91.8085H162.585V52.8054C162.585 41.4665 153.432 32.2451 142.093 32.2451Z" fill="white"/>
<path d="M303.297 52.8054C303.297 45.8381 308.966 40.1687 315.933 40.1687H325.906V32.2451H315.933C304.594 32.2451 295.373 41.4665 295.373 52.8054V91.8085H303.297V65.9886H325.155V58.065H303.297V52.8054Z" fill="white"/>
<path d="M370.715 51.3711V76.2347C370.646 81.2211 366.548 85.2512 361.493 85.2512C356.439 85.2512 352.409 81.2211 352.272 76.2347V51.3711H344.348V76.2347C344.417 84.2266 350.018 90.9206 357.532 92.6966V109.568H365.455V92.6966C372.901 90.9206 378.502 84.2266 378.638 76.2347V51.3711H370.715Z" fill="white"/>
<path d="M415.182 74.732C414.362 77.9424 412.313 80.8112 409.239 82.5872C403.228 86.0709 395.51 84.0217 391.958 77.9424C388.474 71.9314 390.523 64.2127 396.602 60.6608C401.452 57.8602 407.395 58.6799 411.288 62.1635L393.529 72.4095L397.49 79.2402L422.354 64.8958C421.944 63.6663 421.398 62.4368 420.715 61.2755C415.045 51.4394 402.477 48.0924 392.641 53.7618C382.804 59.4313 379.457 71.9997 385.127 81.8358C390.796 91.672 403.365 95.019 413.201 89.3496C418.802 86.1392 422.354 80.6063 423.242 74.6636H415.182V74.732Z" fill="white"/>
<path d="M448.107 51.0986C443.326 51.0986 438.954 52.738 435.47 55.4703V51.3035H427.547V91.8777H435.47V71.6589C435.47 64.6917 441.14 59.0222 448.107 59.0222H449.678V51.0986H448.107Z" fill="white"/>
<path d="M283.147 73.024L263.475 63.8709C262.518 63.3927 262.109 62.2315 262.587 61.2752C262.928 60.5921 263.611 60.1823 264.363 60.1823H286.836V52.1904H264.363C260.674 52.1904 257.122 54.3079 255.414 57.8599C253.092 62.778 255.21 68.6523 260.128 70.9748L279.8 80.1278C280.756 80.606 281.166 81.7672 280.756 82.7235C280.415 83.4066 279.732 83.8164 278.98 83.8164H255.961V91.74H278.98C282.669 91.74 286.221 89.6225 287.928 86.0705C290.251 81.2207 288.065 75.3464 283.147 73.024Z" fill="white"/>
</svg>
