<svg width="620" height="100" xmlns="http://www.w3.org/2000/svg" xmlns:svg="http://www.w3.org/2000/svg" xmlns:xlink="http://www.w3.org/1999/xlink">
 <defs>
  <symbol viewBox="0 100 576 476" y="0px" x="0px" id="svg_2" xmlns:xlink="http://www.w3.org/1999/xlink" xmlns="http://www.w3.org/2000/svg">
   <style type="text/css">.st0{fill:#6515DD;}</style>
   <g>
    <g>
     <g>
      <g>
       <g>
        <g>
         <path d="m132.699997,279.200012l-5.599998,4.799988c-3.299995,-3.799988 -7.5,-5.599976 -12.599998,-5.599976c-4.599998,0 -8.5,1.599976 -11.599998,4.699982c-3.099998,3.100006 -4.599998,7 -4.599998,11.700012c0,4.699982 1.5,8.600006 4.599998,11.699982c3.099998,3.100006 7,4.600006 11.599998,4.600006c5.199997,0 9.5,-1.899994 12.800003,-5.799988l5.599991,4.799988c-4.5,5.300018 -11.099991,8.399994 -18.299995,8.399994c-6.799995,0 -12.599998,-2.199982 -17.400002,-6.699982c-4.699997,-4.600006 -7.099998,-10.300018 -7.099998,-17.100006c0,-6.799988 2.400002,-12.5 7.099998,-17.100006c4.800003,-4.600006 10.600006,-6.799988 17.400002,-6.799988c7.200005,0.199982 13.300003,2.899994 18.099998,8.399994z" class="st0"/>
         <path d="m136.600006,317.899994l0,-46.100006l7.900009,0l0,46.100006l-7.900009,0z" class="st0"/>
         <path d="m150.800003,284.5l8,0l0,19.5c0,5 2.800003,7.5 7.300003,7.5c4.399994,0 7.299988,-2.5 7.299988,-7.5l0,-19.399994l8,0l0,19.899994c0,4.600006 -1.5,8.200012 -4.399994,10.700012c-2.899994,2.399994 -6.600006,3.599976 -11,3.599976c-4.399994,0 -8.100006,-1.199982 -10.899994,-3.599976s-4.300003,-5.900024 -4.300003,-10.5l0,-20.200012z" class="st0"/>
         <path d="m187.699997,317.899994l0,-46.100006l7.900009,0l0,17.600006c1.099991,-3.199982 5.199997,-5.600006 10.699997,-5.600006c4.699997,0 8.699997,1.700012 11.800003,5c3.199997,3.300018 4.799988,7.400024 4.799988,12.400024c0,5 -1.599991,9.099976 -4.799988,12.399994c-3.200012,3.299988 -7.100006,5 -11.800003,5c-5.5,0 -9.5,-2.300018 -10.699997,-5.600006l0,4.799988l-7.900009,0l0,0.100006zm24.5,-9.399994c1.900009,-1.899994 2.800003,-4.399994 2.800003,-7.299988c0,-2.900024 -0.899994,-5.400024 -2.800003,-7.300018c-1.899994,-1.899994 -4.199997,-2.899994 -7,-2.899994s-5.300003,1 -7.300003,2.899994c-1.899994,1.899994 -2.899994,4.399994 -2.899994,7.300018c0,2.899994 1,5.399994 2.899994,7.299988c2,1.899994 4.400009,2.899994 7.300003,2.899994s5.199997,-1 7,-2.899994z" class="st0"/>
         <path d="m227.899994,317.899994l0,-46.100006l7.899994,0l0,17.400024c1.5,-3.200012 5.199997,-5.300018 9.699997,-5.300018c7.700012,0 12.199997,5.100006 12.199997,13.399994l0,20.600006l-7.899994,0l0,-19.5c0,-4.600006 -2.399994,-7.399994 -6.699997,-7.399994c-4.300003,0 -7.300003,3.199982 -7.300003,7.699982l0,19.200012l-7.899994,0z" class="st0"/>
         <path d="m262.200012,301.200012c0,-5 1.799988,-9.200012 5.299988,-12.600006c3.5,-3.399994 7.800018,-5.100006 12.900024,-5.100006c5.099976,0 9.399994,1.700012 12.899994,5.100006c3.5,3.399994 5.299988,7.600006 5.299988,12.600006c0,5 -1.799988,9.200012 -5.299988,12.600006c-3.5,3.399994 -7.800018,5.100006 -12.899994,5.100006c-5.100006,0 -9.400024,-1.700012 -12.900024,-5.100006c-3.5,-3.400024 -5.299988,-7.600006 -5.299988,-12.600006zm25.599976,7.5c2,-2.100006 3,-4.5 3,-7.5c0,-3 -1,-5.399994 -3,-7.399994c-2,-2.100006 -4.399994,-3 -7.299988,-3c-3,0 -5.400024,1 -7.400024,3c-1.899994,2 -2.899994,4.399994 -2.899994,7.399994c0,3 1,5.399994 2.899994,7.5c2,2 4.400024,3 7.400024,3c2.799988,0 5.299988,-1 7.299988,-3z" class="st0"/>
         <path d="m303.100006,284.5l8,0l0,19.5c0,5 2.800018,7.5 7.300018,7.5c4.399994,0 7.299988,-2.5 7.299988,-7.5l0,-19.399994l8,0l0,19.899994c0,4.600006 -1.5,8.200012 -4.399994,10.700012c-2.899994,2.399994 -6.600006,3.599976 -11,3.599976c-4.399994,0 -8.100006,-1.199982 -10.899994,-3.599976s-4.300018,-5.900024 -4.300018,-10.5l0,-20.200012z" class="st0"/>
         <path d="m341.799988,307.700012c1.5,2.399994 4.799988,4.200012 8.799988,4.200012c4.200012,0 6,-1.600006 6,-3.600006c0,-1.100006 -0.799988,-2.100006 -1.899994,-2.600006c-0.699982,-0.5 -2.100006,-0.899994 -3.100006,-1.299988c-1,-0.300018 -3,-0.900024 -4.099976,-1.400024c-5.400024,-1.899994 -8.200012,-4.599976 -8.200012,-9.399994c0,-3.100006 1.100006,-5.5 3.399994,-7.299988c2.300018,-1.800018 5.100006,-2.700012 8.399994,-2.700012c4.700012,0 8.300018,1.700012 10.800018,4.899994l-4.399994,4.700012c-1.5,-1.899994 -3.600006,-2.799988 -6.5,-2.799988c-2.400024,0 -4,1.199982 -4,3c0,1.099976 0.599976,1.699982 1.5,2.299988c0.5,0.299988 1.899994,0.899994 2.699982,1.200012c1,0.299988 2.800018,0.899994 4.200012,1.399994c6.199982,2.199982 8.899994,5.199982 8.899994,9.899994c0,6.200012 -4.600006,10.600006 -13.700012,10.600006c-6.699982,0 -11.599976,-2.600006 -13.799988,-6.800018l5,-4.299988z" class="st0"/>
         <path d="m366.600006,301.200012c0,-5.299988 1.700012,-9.5 4.899994,-12.799988c3.300018,-3.200012 7.5,-4.800018 12.600006,-4.800018c4.800018,0 8.800018,1.600006 11.800018,4.800018c3.099976,3.199982 4.599976,7.199982 4.599976,12c0,1 -0.099976,1.899994 -0.099976,2.799988l-25.900024,0c0.300018,5.299988 4.200012,8.700012 10.100006,8.700012c3.399994,0 6.399994,-1.300018 9,-3.800018l4.800018,4.600006c-3.800018,4 -8.400024,6 -14,6c-5.200012,0 -9.5,-1.600006 -12.800018,-4.700012c-3.199982,-3.099976 -4.899994,-7.299988 -4.899994,-12.5l0,-0.299988l-0.100006,0zm25.899994,-3.600006c0,-2 -0.899994,-3.699982 -2.5,-5.100006c-1.700012,-1.5 -3.600006,-2.199982 -5.899994,-2.199982c-2.399994,0 -4.600006,0.699982 -6.399994,2.100006s-2.800018,3.099976 -3,5.199982l17.799988,0z" class="st0"/>
        </g>
       </g>
      </g>
     </g>
    </g>
    <g>
     <g>
      <path d="m412.600006,307.299988c-3.199982,0 -5.699982,2.600006 -5.699982,5.700012c0,3.199982 2.599976,5.699982 5.699982,5.699982s5.700012,-2.600006 5.700012,-5.699982c0.099976,-3.200012 -2.500031,-5.700012 -5.700012,-5.700012z" class="st0"/>
     </g>
     <path d="m483.299988,257.100006l-36.200012,11.5l0,-11.399994l-39,12.399994l0,33.100006l33.600006,-10.700012l0,11.399994l44.200012,-14.100006l-12,-11.699982l9.399994,-20.5zm-41.5,29.299988l-28.200012,9l0,-21.700012l28.200012,-9l0,21.700012zm34.200012,0.399994l-28.799988,9.200012l0,-21.700012l26.599976,-8.5l-6.099976,12.799988l8.299988,8.200012z" class="st0"/>
    </g>
   </g>
  </symbol>
 </defs>
 <g>
  <title>Layer 1</title>
  <use x="-106.425167" y="65.548185" transform="matrix(7.28802 0 0 7.28802 -1174.15 -715.538)" xlink:href="#svg_2" id="svg_3"/>
  <g id="svg_4"/>
 </g>
</svg>
