<svg xmlns="http://www.w3.org/2000/svg" xmlns:xlink="http://www.w3.org/1999/xlink" viewBox="0 0 3358.32 760.19"><defs><style>.cls-1{fill:url(#linear-gradient);filter:url(#luminosity-noclip);}.cls-2{isolation:isolate;}.cls-3{fill:url(#linear-gradient-2);}.cls-10,.cls-13,.cls-4,.cls-7{opacity:0.62;}.cls-10,.cls-11,.cls-13,.cls-14,.cls-17,.cls-21,.cls-4,.cls-5,.cls-7,.cls-8{mix-blend-mode:multiply;}.cls-4{fill:url(#linear-gradient-3);}.cls-14,.cls-5{opacity:0.56;}.cls-5{fill:url(#linear-gradient-4);}.cls-6{fill:url(#linear-gradient-5);}.cls-7{fill:url(#linear-gradient-6);}.cls-8{opacity:0.47;fill:url(#linear-gradient-7);}.cls-9{fill:url(#linear-gradient-8);}.cls-10{fill:url(#linear-gradient-9);}.cls-11{opacity:0.39;fill:url(#linear-gradient-10);}.cls-12{fill:url(#linear-gradient-11);}.cls-13{fill:url(#linear-gradient-12);}.cls-14{fill:url(#linear-gradient-13);}.cls-15{fill:url(#linear-gradient-14);}.cls-16{fill:url(#linear-gradient-15);}.cls-17{opacity:0.35;fill:url(#linear-gradient-16);}.cls-18{fill:url(#linear-gradient-17);}.cls-19{fill:url(#linear-gradient-18);}.cls-20{mask:url(#mask);}.cls-21{opacity:0.68;fill:url(#radial-gradient);}.cls-22{fill:url(#linear-gradient-19);}.cls-23{fill:url(#radial-gradient-2);}.cls-24{fill:url(#radial-gradient-3);}.cls-25{fill:url(#radial-gradient-4);}.cls-26{fill:url(#linear-gradient-20);}.cls-27{fill:url(#linear-gradient-21);}.cls-28{fill:#1b2436;}</style><linearGradient id="linear-gradient" x1="3343.16" y1="228.81" x2="3086.67" y2="366.05" gradientUnits="userSpaceOnUse"><stop offset="0" stop-color="#fff" stop-opacity="0"/><stop offset="0.07" stop-color="#d7d7d7" stop-opacity="0.16"/><stop offset="1"/></linearGradient><linearGradient id="linear-gradient-2" x1="2950.26" y1="314.18" x2="3322.67" y2="643.09" gradientUnits="userSpaceOnUse"><stop offset="0.06" stop-color="#fcb326"/><stop offset="0.14" stop-color="#fcaf2d"/><stop offset="0.25" stop-color="#fda242"/><stop offset="0.38" stop-color="#fd8e63"/><stop offset="0.53" stop-color="#fe7291"/><stop offset="0.6" stop-color="#ff64a8"/><stop offset="0.96" stop-color="#c800ff"/></linearGradient><linearGradient id="linear-gradient-3" x1="3099.72" y1="487.47" x2="3313.7" y2="275.74" gradientUnits="userSpaceOnUse"><stop offset="0" stop-color="#fff" stop-opacity="0"/><stop offset="0.09" stop-color="#f2ebf8" stop-opacity="0.08"/><stop offset="0.27" stop-color="#ceb7e4" stop-opacity="0.28"/><stop offset="0.5" stop-color="#9562c4" stop-opacity="0.62"/><stop offset="0.74" stop-color="#5300a0"/></linearGradient><linearGradient id="linear-gradient-4" x1="2889.47" y1="263.84" x2="3354.32" y2="670.01" gradientUnits="userSpaceOnUse"><stop offset="0.19" stop-color="#fff" stop-opacity="0"/><stop offset="0.3" stop-color="#ffd9df" stop-opacity="0.17"/><stop offset="0.52" stop-color="#ff889c" stop-opacity="0.52"/><stop offset="0.71" stop-color="#ff4d6b" stop-opacity="0.78"/><stop offset="0.84" stop-color="#ff294d" stop-opacity="0.94"/><stop offset="0.91" stop-color="#ff1b41"/></linearGradient><linearGradient id="linear-gradient-5" x1="2824.06" y1="395.9" x2="3275.86" y2="788.64" gradientUnits="userSpaceOnUse"><stop offset="0" stop-color="#f7a71e"/><stop offset="0.13" stop-color="#f7a621"/><stop offset="0.21" stop-color="#f8a229"/><stop offset="0.28" stop-color="#f99a38"/><stop offset="0.34" stop-color="#fa904d"/><stop offset="0.4" stop-color="#fb8368"/><stop offset="0.45" stop-color="#fd7389"/><stop offset="0.49" stop-color="#ff64a8"/><stop offset="0.83" stop-color="#c800ff"/></linearGradient><linearGradient id="linear-gradient-6" x1="2924.47" y1="564.76" x2="3346.49" y2="441.48" gradientUnits="userSpaceOnUse"><stop offset="0" stop-color="#fff" stop-opacity="0"/><stop offset="0.13" stop-color="#f4eff7" stop-opacity="0.06"/><stop offset="0.32" stop-color="#d6c3e0" stop-opacity="0.24"/><stop offset="0.55" stop-color="#a57aba" stop-opacity="0.52"/><stop offset="0.82" stop-color="#611787" stop-opacity="0.91"/><stop offset="0.87" stop-color="#51007b"/></linearGradient><linearGradient id="linear-gradient-7" x1="2938.48" y1="548.83" x2="3264.52" y2="546.78" gradientUnits="userSpaceOnUse"><stop offset="0.2" stop-color="#fff" stop-opacity="0"/><stop offset="0.24" stop-color="#ffe4e9" stop-opacity="0.12"/><stop offset="0.32" stop-color="#ffb0bd" stop-opacity="0.35"/><stop offset="0.41" stop-color="#ff8297" stop-opacity="0.55"/><stop offset="0.49" stop-color="#ff5d78" stop-opacity="0.71"/><stop offset="0.57" stop-color="#ff4060" stop-opacity="0.84"/><stop offset="0.65" stop-color="#ff2c4f" stop-opacity="0.93"/><stop offset="0.72" stop-color="#ff1f45" stop-opacity="0.98"/><stop offset="0.79" stop-color="#ff1b41"/></linearGradient><linearGradient id="linear-gradient-8" x1="2814.52" y1="404.79" x2="3088.32" y2="795.29" gradientUnits="userSpaceOnUse"><stop offset="0.08" stop-color="#f7bc17"/><stop offset="0.19" stop-color="#f9a340"/><stop offset="0.46" stop-color="#ff64a8"/><stop offset="0.66" stop-color="#e230d6"/><stop offset="0.85" stop-color="#c800ff"/></linearGradient><linearGradient id="linear-gradient-9" x1="2809.97" y1="453.64" x2="3134.09" y2="735.39" gradientUnits="userSpaceOnUse"><stop offset="0.22" stop-color="#fff" stop-opacity="0"/><stop offset="0.33" stop-color="#f8f5fa" stop-opacity="0.04"/><stop offset="0.45" stop-color="#e4d7ea" stop-opacity="0.16"/><stop offset="0.58" stop-color="#c2a6d1" stop-opacity="0.35"/><stop offset="0.71" stop-color="#9462ae" stop-opacity="0.62"/><stop offset="0.85" stop-color="#580a80" stop-opacity="0.96"/><stop offset="0.87" stop-color="#51007b"/></linearGradient><linearGradient id="linear-gradient-10" x1="2794.02" y1="551.03" x2="3064.35" y2="513.03" gradientUnits="userSpaceOnUse"><stop offset="0" stop-color="#fff" stop-opacity="0"/><stop offset="0.09" stop-color="#fff3f5" stop-opacity="0.05"/><stop offset="0.26" stop-color="#ffd3da" stop-opacity="0.19"/><stop offset="0.49" stop-color="#ff9faf" stop-opacity="0.42"/><stop offset="0.77" stop-color="#ff5975" stop-opacity="0.73"/><stop offset="1" stop-color="#ff1b41"/></linearGradient><linearGradient id="linear-gradient-11" x1="2812.42" y1="402.49" x2="2922.38" y2="722.23" gradientUnits="userSpaceOnUse"><stop offset="0.07" stop-color="#ffa548"/><stop offset="0.24" stop-color="#ff7c76"/><stop offset="0.44" stop-color="#ff4fa8"/><stop offset="0.49" stop-color="#f945b3"/><stop offset="0.74" stop-color="#d913ea"/><stop offset="0.86" stop-color="#cd00ff"/></linearGradient><linearGradient id="linear-gradient-12" x1="2825.41" y1="464.18" x2="2994.54" y2="611.21" gradientUnits="userSpaceOnUse"><stop offset="0.21" stop-color="#fff" stop-opacity="0"/><stop offset="0.35" stop-color="#e7dced" stop-opacity="0.14"/><stop offset="0.62" stop-color="#a981be" stop-opacity="0.5"/><stop offset="0.95" stop-color="#51007b"/></linearGradient><linearGradient id="linear-gradient-13" x1="2750.03" y1="446.34" x2="2978.14" y2="530.92" gradientUnits="userSpaceOnUse"><stop offset="0" stop-color="#fff" stop-opacity="0"/><stop offset="0.12" stop-color="#ffe2e7" stop-opacity="0.13"/><stop offset="0.96" stop-color="#ff1b41"/></linearGradient><linearGradient id="linear-gradient-14" x1="3010.79" y1="22.4" x2="3095.94" y2="136.05" gradientUnits="userSpaceOnUse"><stop offset="0.1" stop-color="#ffce32"/><stop offset="0.24" stop-color="#ffc63b"/><stop offset="0.46" stop-color="#ffaf55"/><stop offset="0.74" stop-color="#ff8a7d"/><stop offset="1" stop-color="#ff64a8"/></linearGradient><linearGradient id="linear-gradient-15" x1="3105.44" y1="41.18" x2="3267.14" y2="257.8" gradientUnits="userSpaceOnUse"><stop offset="0.18" stop-color="#fcc924"/><stop offset="0.27" stop-color="#fcc32b"/><stop offset="0.4" stop-color="#fdb440"/><stop offset="0.56" stop-color="#fd9b61"/><stop offset="0.74" stop-color="#fe788e"/><stop offset="0.83" stop-color="#ff64a8"/></linearGradient><linearGradient id="linear-gradient-16" x1="3104.24" y1="41.95" x2="3214.56" y2="226.62" gradientUnits="userSpaceOnUse"><stop offset="0.25" stop-color="#fcc924"/><stop offset="0.36" stop-color="#fdb43f"/><stop offset="0.59" stop-color="#fe8083"/><stop offset="0.71" stop-color="#ff64a8"/></linearGradient><linearGradient id="linear-gradient-17" x1="2735.21" y1="-4.84" x2="3501.59" y2="661.36" gradientUnits="userSpaceOnUse"><stop offset="0.03" stop-color="#fcee21"/><stop offset="0.09" stop-color="#fcee21"/><stop offset="0.17" stop-color="#fce827"/><stop offset="0.28" stop-color="#fdd738"/><stop offset="0.4" stop-color="#fdba54"/><stop offset="0.54" stop-color="#fe937a"/><stop offset="0.68" stop-color="#ff64a8"/><stop offset="0.99" stop-color="#b22eff"/></linearGradient><linearGradient id="linear-gradient-18" x1="2807.89" y1="119.37" x2="3495.24" y2="564.26" gradientUnits="userSpaceOnUse"><stop offset="0.24" stop-color="#fcb825"/><stop offset="0.29" stop-color="#fcb22d"/><stop offset="0.37" stop-color="#fda144"/><stop offset="0.48" stop-color="#fe8569"/><stop offset="0.59" stop-color="#ff5e9c"/><stop offset="0.62" stop-color="#ff55a8"/><stop offset="0.88" stop-color="#b22eff"/></linearGradient><filter id="luminosity-noclip" x="2862.79" y="139.79" width="543.41" height="401.35" filterUnits="userSpaceOnUse" color-interpolation-filters="sRGB"><feFlood flood-color="#fff" result="bg"/><feBlend in="SourceGraphic" in2="bg"/></filter><mask id="mask" x="2862.79" y="139.79" width="543.41" height="401.35" maskUnits="userSpaceOnUse"><rect class="cls-1" x="2862.79" y="139.79" width="543.41" height="401.35"/></mask><radialGradient id="radial-gradient" cx="3011.79" cy="606.63" r="423.44" gradientTransform="translate(645.71 2539.16) rotate(-48.89) scale(1 0.84)" gradientUnits="userSpaceOnUse"><stop offset="0.28" stop-color="#fff" stop-opacity="0"/><stop offset="0.54" stop-color="#fffefe" stop-opacity="0.01"/><stop offset="0.63" stop-color="#fff9f8" stop-opacity="0.04"/><stop offset="0.7" stop-color="#fef1ef" stop-opacity="0.08"/><stop offset="0.76" stop-color="#fee5e2" stop-opacity="0.15"/><stop offset="0.8" stop-color="#fdd5d1" stop-opacity="0.24"/><stop offset="0.84" stop-color="#fdc2bc" stop-opacity="0.35"/><stop offset="0.88" stop-color="#fcaca3" stop-opacity="0.48"/><stop offset="0.92" stop-color="#fb9186" stop-opacity="0.64"/><stop offset="0.95" stop-color="#f97466" stop-opacity="0.8"/><stop offset="0.98" stop-color="#f85442" stop-opacity="0.99"/><stop offset="0.98" stop-color="#f85240"/></radialGradient><linearGradient id="linear-gradient-19" x1="2898.51" y1="100.47" x2="3343.24" y2="487.07" gradientUnits="userSpaceOnUse"><stop offset="0.2" stop-color="#fcc924"/><stop offset="0.29" stop-color="#fcbb33"/><stop offset="0.45" stop-color="#fd985a"/><stop offset="0.68" stop-color="#fe5e99"/><stop offset="0.95" stop-color="#ff0fef"/><stop offset="1" stop-color="#f0f"/></linearGradient><radialGradient id="radial-gradient-2" cx="2737.2" cy="52.18" r="652.01" gradientUnits="userSpaceOnUse"><stop offset="0.09" stop-color="#fcc924"/><stop offset="0.15" stop-color="#fcc924" stop-opacity="0.87"/><stop offset="0.27" stop-color="#fcc924" stop-opacity="0.64"/><stop offset="0.39" stop-color="#fcc924" stop-opacity="0.45"/><stop offset="0.51" stop-color="#fcc924" stop-opacity="0.29"/><stop offset="0.62" stop-color="#fcc924" stop-opacity="0.16"/><stop offset="0.73" stop-color="#fcc924" stop-opacity="0.07"/><stop offset="0.84" stop-color="#fcc924" stop-opacity="0.02"/><stop offset="0.93" stop-color="#fcc924" stop-opacity="0"/></radialGradient><radialGradient id="radial-gradient-3" cx="2811.05" cy="83.67" r="420.42" gradientUnits="userSpaceOnUse"><stop offset="0.32" stop-color="#fcc924"/><stop offset="0.79" stop-color="#fcc924" stop-opacity="0"/></radialGradient><radialGradient id="radial-gradient-4" cx="2877.63" cy="236.5" fx="2829.9283228982536" r="122.28" gradientUnits="userSpaceOnUse"><stop offset="0" stop-color="#fcee21"/><stop offset="0.69" stop-color="#fff"/></radialGradient><linearGradient id="linear-gradient-20" x1="2716.05" y1="193.85" x2="2886.14" y2="448.98" gradientUnits="userSpaceOnUse"><stop offset="0.13" stop-color="#fcee21"/><stop offset="0.6" stop-color="#fe7a59"/><stop offset="0.7" stop-color="#ff5f66"/></linearGradient><linearGradient id="linear-gradient-21" x1="2842.9" y1="234.87" x2="2847.44" y2="458.97" gradientUnits="userSpaceOnUse"><stop offset="0.22" stop-color="#fcad00"/><stop offset="0.25" stop-color="#fca909"/><stop offset="0.53" stop-color="#fe787b"/><stop offset="0.65" stop-color="#ff64a8"/></linearGradient></defs><g class="cls-2"><g id="Layer_1" data-name="Layer 1"><path class="cls-3" d="M3199.72,387.81c-90.63-49.79-178-65.31-286.88-51.72-.62.08-2.31.27-3.57.44,164.8,15.82,298.4,167.76,299.24,336.73,0,7.34-.61,18.55-1.15,27a5.81,5.81,0,0,0,9,5.21c23.6-15.84,44.55-35.63,60.09-59.44,35-53.58,49.19-111.85,46.42-156.76C3301.76,461.23,3264.25,423.27,3199.72,387.81Z"/><path class="cls-4" d="M3199.72,387.81c-90.63-49.79-178-65.31-286.88-51.72-.62.08-2.31.27-3.57.44,164.8,15.82,298.4,167.76,299.24,336.73,0,7.34-.61,18.55-1.15,27a5.81,5.81,0,0,0,9,5.21c23.6-15.84,44.55-35.63,60.09-59.44,35-53.58,49.19-111.85,46.42-156.76C3301.76,461.23,3264.25,423.27,3199.72,387.81Z"/><path class="cls-5" d="M3199.72,387.81c-90.63-49.79-178-65.31-286.88-51.72-.62.08-2.31.27-3.57.44,164.8,15.82,298.4,167.76,299.24,336.73,0,7.34-.61,18.55-1.15,27a5.81,5.81,0,0,0,9,5.21c23.6-15.84,44.55-35.63,60.09-59.44,35-53.58,49.19-111.85,46.42-156.76C3301.76,461.23,3264.25,423.27,3199.72,387.81Z"/><path class="cls-6" d="M3208.25,659.08c-1.32,1.75-2.32,3.49-3.69,5.22A256.38,256.38,0,0,1,3046,757.93a160.13,160.13,0,0,1-39.6,1.75c-1.59-.14-3.18-.28-4.77-.44a4.93,4.93,0,0,1-3-8.33q7.1-7.38,13.68-15.44a259.3,259.3,0,0,0,23.88-34.6C3098,593.48,3074.79,454,2975.7,373.08c-20.35-16.62-41.89-26.09-61-36,63,7.09,121.18,34.31,169,74.37C3154.65,470.86,3204,563.81,3208.25,659.08Z"/><path class="cls-7" d="M3208.25,659.08c-1.32,1.75-2.32,3.49-3.69,5.22A256.38,256.38,0,0,1,3046,757.93a160.13,160.13,0,0,1-39.6,1.75c-1.59-.14-3.18-.28-4.77-.44a4.93,4.93,0,0,1-3-8.33q7.1-7.38,13.68-15.44a259.3,259.3,0,0,0,23.88-34.6C3098,593.48,3074.79,454,2975.7,373.08c-20.35-16.62-41.89-26.09-61-36,63,7.09,121.18,34.31,169,74.37C3154.65,470.86,3204,563.81,3208.25,659.08Z"/><path class="cls-8" d="M3208.25,659.08c-1.32,1.75-2.32,3.49-3.69,5.22A256.38,256.38,0,0,1,3046,757.93a160.13,160.13,0,0,1-39.6,1.75c-1.59-.14-3.18-.28-4.77-.44a4.93,4.93,0,0,1-3-8.33q7.1-7.38,13.68-15.44a259.3,259.3,0,0,0,23.88-34.6C3098,593.48,3074.79,454,2975.7,373.08c-20.35-16.62-41.89-26.09-61-36,63,7.09,121.18,34.31,169,74.37C3154.65,470.86,3204,563.81,3208.25,659.08Z"/><path class="cls-9" d="M3036.05,700.87a162.76,162.76,0,0,1-41.58,18.47c-52.61,15.25-124.79-3.65-168.94-28.67q-6-4.2-11.68-8.86a5.5,5.5,0,0,1,2.39-9.6q5.85-1.31,11.67-3a195.1,195.1,0,0,0,133.22-241.93c-9.62-33.18-26.65-67.28-49.52-90.57.77.08,2.3.25,3.11.39,16,8.3,33.14,15.94,50.49,28.07,3.42,2.38,6.86,4.92,10.23,7.67C3074.53,453.8,3097.93,593.48,3036.05,700.87Z"/><path class="cls-10" d="M3036.05,700.87a162.76,162.76,0,0,1-41.58,18.47c-52.61,15.25-124.79-3.65-168.94-28.67q-6-4.2-11.68-8.86a5.5,5.5,0,0,1,2.39-9.6q5.85-1.31,11.67-3a195.1,195.1,0,0,0,133.22-241.93c-9.62-33.18-26.65-67.28-49.52-90.57.77.08,2.3.25,3.11.39,16,8.3,33.14,15.94,50.49,28.07,3.42,2.38,6.86,4.92,10.23,7.67C3074.53,453.8,3097.93,593.48,3036.05,700.87Z"/><path class="cls-11" d="M3036.05,700.87a162.76,162.76,0,0,1-41.58,18.47c-52.61,15.25-124.79-3.65-168.94-28.67q-6-4.2-11.68-8.86a5.5,5.5,0,0,1,2.39-9.6q5.85-1.31,11.67-3a195.1,195.1,0,0,0,133.22-241.93c-9.62-33.18-26.65-67.28-49.52-90.57.77.08,2.3.25,3.11.39,16,8.3,33.14,15.94,50.49,28.07,3.42,2.38,6.86,4.92,10.23,7.67C3074.53,453.8,3097.93,593.48,3036.05,700.87Z"/><path class="cls-12" d="M2875.67,648.14h0c-1.41,0-2.84.06-4.28.07-53.74.23-94.7-21.51-118.66-45.17a126.38,126.38,0,0,1-21.31-27.91,5.22,5.22,0,0,1,5.32-7.76,160.88,160.88,0,0,0,21.86,1.68c.63,0,1.22,0,1.85,0h.27a151.86,151.86,0,0,0,67.86-14.8c.36-.15.72-.33,1.07-.51a163.94,163.94,0,0,0,84.64-205.08q-2.28-6.21-5-12.15,1.14,0,2.34.18c22.87,23.29,39.86,57.39,49.48,90.57A195.39,195.39,0,0,1,2875.67,648.14Z"/><path class="cls-13" d="M2875.67,648.14h0c-1.41,0-2.84.06-4.28.07-53.74.23-94.7-21.51-118.66-45.17a126.38,126.38,0,0,1-21.31-27.91,5.22,5.22,0,0,1,5.32-7.76,160.88,160.88,0,0,0,21.86,1.68c.63,0,1.22,0,1.85,0h.27a151.86,151.86,0,0,0,67.86-14.8c.36-.15.72-.33,1.07-.51a163.94,163.94,0,0,0,84.64-205.08q-2.28-6.21-5-12.15,1.14,0,2.34.18c22.87,23.29,39.86,57.39,49.48,90.57A195.39,195.39,0,0,1,2875.67,648.14Z"/><path class="cls-14" d="M2875.67,648.14h0c-1.41,0-2.84.06-4.28.07-53.74.23-94.7-21.51-118.66-45.17a126.38,126.38,0,0,1-21.31-27.91,5.22,5.22,0,0,1,5.32-7.76,160.88,160.88,0,0,0,21.86,1.68c.63,0,1.22,0,1.85,0h.27a151.86,151.86,0,0,0,67.86-14.8c.36-.15.72-.33,1.07-.51a163.94,163.94,0,0,0,84.64-205.08q-2.28-6.21-5-12.15,1.14,0,2.34.18c22.87,23.29,39.86,57.39,49.48,90.57A195.39,195.39,0,0,1,2875.67,648.14Z"/><path class="cls-15" d="M3133.92,114.74c-49.13-16-101.44-21-151.4-13.23,45.71-25.68,70.57-75.76,79.21-96.32A8.24,8.24,0,0,1,3074,1.44C3111.31,26.63,3131.4,70,3133.92,114.74Z"/><path class="cls-16" d="M3225,160.08A344.17,344.17,0,0,0,3181.07,134c-46.4-23.06-97.78-35.69-148.64-36.12,3.49-.37,22-2.37,28.94-4,44.7-10.54,98.71-48.9,119-86.7a7.25,7.25,0,0,1,11.48-1.88C3232.85,44.28,3241.89,106.82,3225,160.08Z"/><path class="cls-17" d="M3181.06,134a62.22,62.22,0,0,0,4.81-9.13c24-56.84,6.8-106.75.51-121.61a7.27,7.27,0,0,0-6.05,3.92c-20.25,37.79-74.27,76.16-119,86.69-7,1.64-25.46,3.63-28.94,4C3083.29,98.34,3134.67,111,3181.06,134Z"/><path class="cls-18" d="M3351.64,518.87a5.06,5.06,0,0,1-9.4,1c-12.34-24.26-49.14-80.63-142.72-132-91.57-50.31-179.75-65.6-290.25-51.27-5-9.47-24.89-39.58-34.54-49.92h0c9.68-13.68,136.22-138.51,339.49-52.41C3314.9,276.84,3380,411.77,3351.64,518.87Z"/><path class="cls-19" d="M3351.64,518.87a5.06,5.06,0,0,1-9.4,1c-12.34-24.26-49.14-80.63-142.72-132-91.57-50.31-179.75-65.6-290.25-51.27-5-9.47-24.89-39.58-34.54-49.92,9.68-13.68,136.22-138.52,339.49-52.41C3314.9,276.84,3380,411.77,3351.64,518.87Z"/><g class="cls-20"><path class="cls-21" d="M3351.64,518.86a5.07,5.07,0,0,1-9.41,1c-12.33-24.26-49.14-80.63-142.71-132-91.57-50.31-179.75-65.6-290.25-51.27-5-9.47-24.89-39.58-34.54-49.92,9.68-13.68,136.22-138.51,339.49-52.41C3314.9,276.84,3380,411.77,3351.64,518.86Z"/></g><path class="cls-22" d="M3335.36,296.31c-35.89-89-113.58-152.9-201.44-181.57-49.13-16-101.44-21-151.4-13.23-74.15,11.58-143.1,51.4-188.85,125.29h0c12,3.54,49.86,26.39,81.05,59.81,13.86,14.85,26.34,31.76,34.53,49.91h0c.27-.24,142-75.29,229.14-73.1,61.47,1.55,125.25,15.73,184.64,41.29C3336.4,310.65,3338.74,304,3335.36,296.31Z"/><path class="cls-23" d="M3292.24,292.66q15.56,5.55,30.8,12.07c13.35,5.92,15.7-.75,12.31-8.41-85.75-212.55-410-282.24-541.68-69.52h0c12,3.54,49.86,26.39,81.05,59.81,13.87,14.86,26.34,31.76,34.53,49.92h0a18.4,18.4,0,0,0,3.39-.43c108.92-13.59,196.23,1.9,286.86,51.7,93.58,51.41,130.38,107.78,142.72,132a5.06,5.06,0,0,0,9.4-1C3371.7,443.24,3345.06,353.75,3292.24,292.66Z"/><path class="cls-24" d="M3292.24,292.66q15.56,5.55,30.8,12.07c13.35,5.92,15.7-.75,12.31-8.41-85.75-212.55-410-282.24-541.68-69.52h0c12,3.54,49.86,26.39,81.05,59.81,13.87,14.86,26.34,31.76,34.53,49.92h0a18.29,18.29,0,0,0,3.39-.43c108.92-13.59,196.23,1.9,286.86,51.7,93.54,51.39,130.36,107.74,142.7,132a5.08,5.08,0,0,0,9.45-1.05C3371.67,443.16,3345,353.73,3292.24,292.66Z"/><path class="cls-25" d="M2997.93,211.17a273.58,273.58,0,0,0-96,49.21,54,54,0,0,1,96-49.21Z"/><path class="cls-26" d="M2874.73,286.61c-39.35,49.56-86.55,66.5-93.69,68.85l-.39.12-.32.1-.2.07h0a80.57,80.57,0,0,0-28.83,15.88,10,10,0,0,1-16.27-5.17c-7.07-28.55-6-89.88,37.45-125.83,5.92-4.9,20.43-13.64,21.2-13.83C2805.71,230.34,2843.54,253.19,2874.73,286.61Z"/><path class="cls-27" d="M2909.27,336.54c-47.87,16.37-92.16,7.82-128.23,18.92,7.14-2.35,54.34-19.29,93.69-68.85C2888.6,301.47,2901.08,318.38,2909.27,336.54Z"/><path class="cls-28" d="M0,425.09C0,234.23,150.32,98.15,364.1,98.15c63.45,0,132.7,11.82,171.55,29.44V246.78H531.3L382.67,140.38C375,137.72,359,136,343.83,136,231.39,136,152,240.75,152,385.28,152,546.7,250.93,672.4,376.64,672.4A145.92,145.92,0,0,0,402,669.75l-2.42-1V400.72l-38.12-46.57v-4.34H583.66v4.34l-38.12,46.57V712.46H541.2l-96.28-29.68c-37.15,18.58-94.58,32.09-146.21,32.09C121.61,714.87,0,597.36,0,425.09Z"/><path class="cls-28" d="M686.45,343.29l-44.88-44.87V295L801.3,252.81h8.44l6,90.48h5.06c36.44-64.18,68.53-90.48,109.06-90.48,16.89,0,31.37,5.07,38.85,11.83v136.8h-4.34L879,344a34.41,34.41,0,0,0-7.72-.73c-17.61,0-42.95,16.89-51.39,37.16v277L864.51,698v4.34H648.33V698l38.12-40.54V343.29Z"/><path class="cls-28" d="M1004.94,702.08V698.7l38.12-41.5V343.29l-44.87-43.91V295l169.86-42.23h8.44V657.44l38.13,41.5v3.38H1004.94ZM1037,118.66c0-41.5,28-66.84,72.63-66.84s72.62,25.34,72.62,66.84c0,40.54-27.74,65.87-72.62,65.87S1037,159.2,1037,118.66Z"/><path class="cls-28" d="M1276.63,702.08v-4.34l38.12-40.54V313.62h-60.08v-3.38l60.8-52.36c18.58-122.57,93.86-206.06,185.79-206.06,22.92,0,50,5.07,60.8,11.1l-13.51,110.75h-4.34l-120.88-53.32c-26.3,2.65-49,45.6-49,84.45,0,49.94,38.12,77.69,103,77.69h112.44c6.76-130,79.38-230.67,169.86-230.67,21.24,0,46.57,5.07,58.39,11.1l-14.47,109.79h-4.35L1691.87,122c-24.61,2.41-43.91,38.84-43.91,78.66,0,54,35.47,82,104,82h258.42L2003.61,331V659l38.12,39.81v3.38H1831.58v-3.38l38.84-41.5V313.62h-147.9V657.44L1773.19,698v4.34h-223V698l38.85-41.5V313.62H1447.94V657.44L1498.61,698v4.34h-222Zm588-583.42c0-41.5,27.75-66.84,72.63-66.84,45.6,0,73.59,25.34,73.59,66.84,0,40.54-28,65.87-73.59,65.87C1892.38,184.53,1864.63,159.2,1864.63,118.66Z"/><path class="cls-28" d="M2275.78,657.44,2313.9,698v4.34H2104.23V698l38.12-40.54v-314l-44.88-44.87v-4.35l159.73-41.5h8.44l6,79.38h5.79c46.32-53.32,96.27-79.38,152-79.38,75.28,0,127.64,49,127.64,118.23v286.4l38.13,40.54v4.34h-210.4v-4.34l38.84-43.19V397.53c0-41.5-25.33-66.83-65.87-66.83-27,0-54,10.85-82,32.81V657.44Z"/></g></g></svg>