<svg width="246" height="49" viewBox="0 0 246 49" fill="none" xmlns="http://www.w3.org/2000/svg">
<circle cx="24.2356" cy="24.2356" r="24.2356" fill="#50B9AF"/>
<path fill-rule="evenodd" clip-rule="evenodd" d="M24.4084 4.19531L24.9064 4.48581L38.9464 12.6758L39.4425 12.9652V13.5396V32.2595V32.8458L38.9308 33.1322L25.4023 40.7016V48.3619H23.4023V40.7081L9.54875 33.137L9.02832 32.8526V32.2595V13.5396V12.9584L9.53327 12.6707L23.9075 4.48072L24.4084 4.19531ZM25.4023 38.4099V35.2025L34.3031 29.4806L34.7624 29.1853V28.6394V16.9394V15.1835L33.2522 16.0794L24.0346 21.5474L15.061 16.0852L13.541 15.16V16.9394V28.6394V29.2007L14.0202 29.493L23.4023 35.2177V38.4289L11.0283 31.6664V14.1207L24.3967 6.50386L37.4425 14.1139V31.6731L25.4023 38.4099ZM24.3839 16.8796L20.5039 14.9396L19.6094 16.7284L23.9551 18.9013L24.4208 19.1341L24.8786 18.8861L28.89 16.7133L27.9375 14.9547L24.3839 16.8796ZM25.9694 22.7251L32.7624 26.86V18.6954L25.9694 22.7251ZM31.8771 28.6625L15.541 18.7188V28.0781L24.3886 33.4766L31.8771 28.6625Z" fill="#1A1818"/>
<path d="M72.0343 31.8947V34.15H60.8096V14.3229H63.4742V31.8947H72.0343Z" fill="#1A1818"/>
<path d="M90.8128 26.7892L87.7063 18.7228C87.6143 18.483 87.5176 18.2063 87.4164 17.8926C87.3151 17.5698 87.2185 17.2285 87.1264 16.8688C86.9331 17.6159 86.7352 18.2385 86.5327 18.7366L83.4263 26.7892H90.8128ZM96.3907 34.15H94.3197C94.0803 34.15 93.8871 34.09 93.7398 33.9701C93.5925 33.8502 93.4821 33.698 93.4084 33.5135L91.5583 28.7262H82.6807L80.8306 33.5135C80.7754 33.6795 80.6696 33.8271 80.5131 33.9563C80.3566 34.0854 80.1633 34.15 79.9332 34.15H77.8622L85.7734 14.3229H88.4795L96.3907 34.15Z" fill="#1A1818"/>
<path d="M117.684 16.5782H111.278V34.15H108.613V16.5782H102.193V14.3229H117.684V16.5782Z" fill="#1A1818"/>
<path d="M136.439 26.7892L133.333 18.7228C133.241 18.483 133.144 18.2063 133.043 17.8926C132.942 17.5698 132.845 17.2285 132.753 16.8688C132.56 17.6159 132.362 18.2385 132.159 18.7366L129.053 26.7892H136.439ZM142.017 34.15H139.946C139.707 34.15 139.514 34.09 139.366 33.9701C139.219 33.8502 139.109 33.698 139.035 33.5135L137.185 28.7262H128.307L126.457 33.5135C126.402 33.6795 126.296 33.8271 126.14 33.9563C125.983 34.0854 125.79 34.15 125.56 34.15H123.489L131.4 14.3229H134.106L142.017 34.15Z" fill="#1A1818"/>
<path d="M164.658 30.0545C164.805 30.0545 164.934 30.1145 165.044 30.2344L166.107 31.3828C165.297 32.3236 164.312 33.0569 163.153 33.5827C162.002 34.1085 160.608 34.3713 158.969 34.3713C157.552 34.3713 156.263 34.1269 155.103 33.638C153.944 33.1399 152.954 32.4481 152.135 31.5626C151.316 30.6679 150.681 29.5979 150.23 28.3527C149.779 27.1074 149.553 25.7377 149.553 24.2434C149.553 22.7491 149.788 21.3793 150.257 20.1341C150.727 18.8888 151.385 17.8188 152.232 16.9241C153.088 16.0294 154.109 15.3376 155.297 14.8487C156.484 14.3506 157.796 14.1016 159.232 14.1016C160.64 14.1016 161.882 14.3276 162.959 14.7795C164.036 15.2315 164.984 15.8449 165.803 16.6197L164.92 17.8511C164.865 17.9434 164.791 18.0218 164.699 18.0863C164.616 18.1417 164.501 18.1694 164.354 18.1694C164.188 18.1694 163.986 18.0817 163.746 17.9065C163.507 17.722 163.194 17.5191 162.807 17.2977C162.421 17.0763 161.938 16.878 161.358 16.7027C160.778 16.5183 160.065 16.426 159.218 16.426C158.196 16.426 157.262 16.6059 156.415 16.9656C155.568 17.3161 154.836 17.8281 154.22 18.5014C153.612 19.1748 153.138 19.9957 152.798 20.9642C152.457 21.9328 152.287 23.0258 152.287 24.2434C152.287 25.4794 152.462 26.5817 152.811 27.5502C153.17 28.5187 153.654 29.3396 154.261 30.013C154.878 30.6771 155.6 31.1844 156.429 31.535C157.266 31.8855 158.168 32.0607 159.135 32.0607C159.724 32.0607 160.253 32.0284 160.723 31.9639C161.201 31.8901 161.638 31.7794 162.034 31.6318C162.439 31.4842 162.812 31.2997 163.153 31.0784C163.502 30.8478 163.848 30.5757 164.188 30.262C164.345 30.1237 164.501 30.0545 164.658 30.0545Z" fill="#1A1818"/>
<path d="M194.558 24.2434C194.558 25.7284 194.323 27.0936 193.854 28.3388C193.384 29.5749 192.722 30.6402 191.866 31.535C191.01 32.4297 189.979 33.1261 188.773 33.6242C187.576 34.1131 186.251 34.3575 184.797 34.3575C183.342 34.3575 182.017 34.1131 180.82 33.6242C179.624 33.1261 178.597 32.4297 177.741 31.535C176.885 30.6402 176.223 29.5749 175.753 28.3388C175.284 27.0936 175.049 25.7284 175.049 24.2434C175.049 22.7583 175.284 21.3978 175.753 20.1617C176.223 18.9165 176.885 17.8465 177.741 16.9518C178.597 16.0478 179.624 15.3468 180.82 14.8487C182.017 14.3506 183.342 14.1016 184.797 14.1016C186.251 14.1016 187.576 14.3506 188.773 14.8487C189.979 15.3468 191.01 16.0478 191.866 16.9518C192.722 17.8465 193.384 18.9165 193.854 20.1617C194.323 21.3978 194.558 22.7583 194.558 24.2434ZM191.81 24.2434C191.81 23.0258 191.645 21.9328 191.313 20.9642C190.982 19.9957 190.513 19.1794 189.905 18.5153C189.298 17.8419 188.561 17.3254 187.696 16.9656C186.831 16.6059 185.864 16.426 184.797 16.426C183.738 16.426 182.776 16.6059 181.911 16.9656C181.046 17.3254 180.305 17.8419 179.688 18.5153C179.081 19.1794 178.611 19.9957 178.28 20.9642C177.949 21.9328 177.783 23.0258 177.783 24.2434C177.783 25.4609 177.949 26.554 178.28 27.5225C178.611 28.4818 179.081 29.2981 179.688 29.9715C180.305 30.6356 181.046 31.1476 181.911 31.5073C182.776 31.8578 183.738 32.0331 184.797 32.0331C185.864 32.0331 186.831 31.8578 187.696 31.5073C188.561 31.1476 189.298 30.6356 189.905 29.9715C190.513 29.2981 190.982 28.4818 191.313 27.5225C191.645 26.554 191.81 25.4609 191.81 24.2434Z" fill="#1A1818"/>
<path d="M210.936 23.9251C211.71 23.9251 212.391 23.8329 212.98 23.6484C213.578 23.4547 214.075 23.1872 214.471 22.8459C214.876 22.4954 215.18 22.0803 215.382 21.6007C215.585 21.121 215.686 20.5907 215.686 20.0095C215.686 18.8289 215.299 17.9388 214.526 17.3392C213.753 16.7396 212.593 16.4399 211.047 16.4399H208.12V23.9251H210.936ZM220.076 34.15H217.702C217.214 34.15 216.855 33.9609 216.625 33.5827L211.489 26.4986C211.332 26.2773 211.162 26.1205 210.978 26.0282C210.803 25.9268 210.527 25.876 210.149 25.876H208.12V34.15H205.455V14.3229H211.047C212.299 14.3229 213.38 14.4521 214.291 14.7103C215.203 14.9594 215.953 15.3237 216.542 15.8034C217.14 16.283 217.582 16.8642 217.867 17.5467C218.153 18.2201 218.295 18.9765 218.295 19.8158C218.295 20.5169 218.185 21.1718 217.964 21.7806C217.743 22.3893 217.421 22.9382 216.997 23.427C216.583 23.9067 216.072 24.3172 215.465 24.6585C214.867 24.9997 214.186 25.258 213.422 25.4333C213.762 25.627 214.057 25.9083 214.305 26.2773L220.076 34.15Z" fill="#1A1818"/>
<path d="M239.422 26.7892L236.316 18.7228C236.224 18.483 236.127 18.2063 236.026 17.8926C235.925 17.5698 235.828 17.2285 235.736 16.8688C235.543 17.6159 235.345 18.2385 235.142 18.7366L232.036 26.7892H239.422ZM245 34.15H242.929C242.69 34.15 242.497 34.09 242.349 33.9701C242.202 33.8502 242.092 33.698 242.018 33.5135L240.168 28.7262H231.29L229.44 33.5135C229.385 33.6795 229.279 33.8271 229.123 33.9563C228.966 34.0854 228.773 34.15 228.543 34.15H226.472L234.383 14.3229H237.089L245 34.15Z" fill="#1A1818"/>
<path d="M72.0343 31.8947V34.15H60.8096V14.3229H63.4742V31.8947H72.0343Z" stroke="#1A1818"/>
<path d="M90.8128 26.7892L87.7063 18.7228C87.6143 18.483 87.5176 18.2063 87.4164 17.8926C87.3151 17.5698 87.2185 17.2285 87.1264 16.8688C86.9331 17.6159 86.7352 18.2385 86.5327 18.7366L83.4263 26.7892H90.8128ZM96.3907 34.15H94.3197C94.0803 34.15 93.8871 34.09 93.7398 33.9701C93.5925 33.8502 93.4821 33.698 93.4084 33.5135L91.5583 28.7262H82.6807L80.8306 33.5135C80.7754 33.6795 80.6696 33.8271 80.5131 33.9563C80.3566 34.0854 80.1633 34.15 79.9332 34.15H77.8622L85.7734 14.3229H88.4795L96.3907 34.15Z" stroke="#1A1818"/>
<path d="M117.684 16.5782H111.278V34.15H108.613V16.5782H102.193V14.3229H117.684V16.5782Z" stroke="#1A1818"/>
<path d="M136.439 26.7892L133.333 18.7228C133.241 18.483 133.144 18.2063 133.043 17.8926C132.942 17.5698 132.845 17.2285 132.753 16.8688C132.56 17.6159 132.362 18.2385 132.159 18.7366L129.053 26.7892H136.439ZM142.017 34.15H139.946C139.707 34.15 139.514 34.09 139.366 33.9701C139.219 33.8502 139.109 33.698 139.035 33.5135L137.185 28.7262H128.307L126.457 33.5135C126.402 33.6795 126.296 33.8271 126.14 33.9563C125.983 34.0854 125.79 34.15 125.56 34.15H123.489L131.4 14.3229H134.106L142.017 34.15Z" stroke="#1A1818"/>
<path d="M164.658 30.0545C164.805 30.0545 164.934 30.1145 165.044 30.2344L166.107 31.3828C165.297 32.3236 164.312 33.0569 163.153 33.5827C162.002 34.1085 160.608 34.3713 158.969 34.3713C157.552 34.3713 156.263 34.1269 155.103 33.638C153.944 33.1399 152.954 32.4481 152.135 31.5626C151.316 30.6679 150.681 29.5979 150.23 28.3527C149.779 27.1074 149.553 25.7377 149.553 24.2434C149.553 22.7491 149.788 21.3793 150.257 20.1341C150.727 18.8888 151.385 17.8188 152.232 16.9241C153.088 16.0294 154.109 15.3376 155.297 14.8487C156.484 14.3506 157.796 14.1016 159.232 14.1016C160.64 14.1016 161.882 14.3276 162.959 14.7795C164.036 15.2315 164.984 15.8449 165.803 16.6197L164.92 17.8511C164.865 17.9434 164.791 18.0218 164.699 18.0863C164.616 18.1417 164.501 18.1694 164.354 18.1694C164.188 18.1694 163.986 18.0817 163.746 17.9065C163.507 17.722 163.194 17.5191 162.807 17.2977C162.421 17.0763 161.938 16.878 161.358 16.7027C160.778 16.5183 160.065 16.426 159.218 16.426C158.196 16.426 157.262 16.6059 156.415 16.9656C155.568 17.3161 154.836 17.8281 154.22 18.5014C153.612 19.1748 153.138 19.9957 152.798 20.9642C152.457 21.9328 152.287 23.0258 152.287 24.2434C152.287 25.4794 152.462 26.5817 152.811 27.5502C153.17 28.5187 153.654 29.3396 154.261 30.013C154.878 30.6771 155.6 31.1844 156.429 31.535C157.266 31.8855 158.168 32.0607 159.135 32.0607C159.724 32.0607 160.253 32.0284 160.723 31.9639C161.201 31.8901 161.638 31.7794 162.034 31.6318C162.439 31.4842 162.812 31.2997 163.153 31.0784C163.502 30.8478 163.848 30.5757 164.188 30.262C164.345 30.1237 164.501 30.0545 164.658 30.0545Z" stroke="#1A1818"/>
<path d="M194.558 24.2434C194.558 25.7284 194.323 27.0936 193.854 28.3388C193.384 29.5749 192.722 30.6402 191.866 31.535C191.01 32.4297 189.979 33.1261 188.773 33.6242C187.576 34.1131 186.251 34.3575 184.797 34.3575C183.342 34.3575 182.017 34.1131 180.82 33.6242C179.624 33.1261 178.597 32.4297 177.741 31.535C176.885 30.6402 176.223 29.5749 175.753 28.3388C175.284 27.0936 175.049 25.7284 175.049 24.2434C175.049 22.7583 175.284 21.3978 175.753 20.1617C176.223 18.9165 176.885 17.8465 177.741 16.9518C178.597 16.0478 179.624 15.3468 180.82 14.8487C182.017 14.3506 183.342 14.1016 184.797 14.1016C186.251 14.1016 187.576 14.3506 188.773 14.8487C189.979 15.3468 191.01 16.0478 191.866 16.9518C192.722 17.8465 193.384 18.9165 193.854 20.1617C194.323 21.3978 194.558 22.7583 194.558 24.2434ZM191.81 24.2434C191.81 23.0258 191.645 21.9328 191.313 20.9642C190.982 19.9957 190.513 19.1794 189.905 18.5153C189.298 17.8419 188.561 17.3254 187.696 16.9656C186.831 16.6059 185.864 16.426 184.797 16.426C183.738 16.426 182.776 16.6059 181.911 16.9656C181.046 17.3254 180.305 17.8419 179.688 18.5153C179.081 19.1794 178.611 19.9957 178.28 20.9642C177.949 21.9328 177.783 23.0258 177.783 24.2434C177.783 25.4609 177.949 26.554 178.28 27.5225C178.611 28.4818 179.081 29.2981 179.688 29.9715C180.305 30.6356 181.046 31.1476 181.911 31.5073C182.776 31.8578 183.738 32.0331 184.797 32.0331C185.864 32.0331 186.831 31.8578 187.696 31.5073C188.561 31.1476 189.298 30.6356 189.905 29.9715C190.513 29.2981 190.982 28.4818 191.313 27.5225C191.645 26.554 191.81 25.4609 191.81 24.2434Z" stroke="#1A1818"/>
<path d="M210.936 23.9251C211.71 23.9251 212.391 23.8329 212.98 23.6484C213.578 23.4547 214.075 23.1872 214.471 22.8459C214.876 22.4954 215.18 22.0803 215.382 21.6007C215.585 21.121 215.686 20.5907 215.686 20.0095C215.686 18.8289 215.299 17.9388 214.526 17.3392C213.753 16.7396 212.593 16.4399 211.047 16.4399H208.12V23.9251H210.936ZM220.076 34.15H217.702C217.214 34.15 216.855 33.9609 216.625 33.5827L211.489 26.4986C211.332 26.2773 211.162 26.1205 210.978 26.0282C210.803 25.9268 210.527 25.876 210.149 25.876H208.12V34.15H205.455V14.3229H211.047C212.299 14.3229 213.38 14.4521 214.291 14.7103C215.203 14.9594 215.953 15.3237 216.542 15.8034C217.14 16.283 217.582 16.8642 217.867 17.5467C218.153 18.2201 218.295 18.9765 218.295 19.8158C218.295 20.5169 218.185 21.1718 217.964 21.7806C217.743 22.3893 217.421 22.9382 216.997 23.427C216.583 23.9067 216.072 24.3172 215.465 24.6585C214.867 24.9997 214.186 25.258 213.422 25.4333C213.762 25.627 214.057 25.9083 214.305 26.2773L220.076 34.15Z" stroke="#1A1818"/>
<path d="M239.422 26.7892L236.316 18.7228C236.224 18.483 236.127 18.2063 236.026 17.8926C235.925 17.5698 235.828 17.2285 235.736 16.8688C235.543 17.6159 235.345 18.2385 235.142 18.7366L232.036 26.7892H239.422ZM245 34.15H242.929C242.69 34.15 242.497 34.09 242.349 33.9701C242.202 33.8502 242.092 33.698 242.018 33.5135L240.168 28.7262H231.29L229.44 33.5135C229.385 33.6795 229.279 33.8271 229.123 33.9563C228.966 34.0854 228.773 34.15 228.543 34.15H226.472L234.383 14.3229H237.089L245 34.15Z" stroke="#1A1818"/>
</svg>
