<svg xmlns="http://www.w3.org/2000/svg" width="170" height="35" fill="none" class="shrink-0 w-[105px] object-fill" viewBox="0 0 170 35"><path fill="currentColor" d="M0 34.216V8.814h4.299v3.727h.027c.395-.887.98-1.66 1.744-2.307.765-.648 1.664-1.145 2.698-1.491 1.026-.347 2.15-.515 3.373-.515 1.934 0 3.552.4 4.856 1.207 1.304.808 2.258 1.961 2.86 3.48h.027c.792-1.545 1.88-2.717 3.274-3.516 1.394-.798 3.048-1.198 4.964-1.198 1.916 0 3.427.364 4.776 1.092 1.348.728 2.383 1.802 3.111 3.23.729 1.43 1.088 3.16 1.088 5.193v16.5h-4.272v-16.03c0-1.97-.503-3.497-1.52-4.58-1.016-1.082-2.445-1.633-4.298-1.633-1.313 0-2.437.293-3.373.87-.935.577-1.654 1.402-2.158 2.459-.504 1.065-.764 2.316-.764 3.754v15.16h-4.326v-16.03c0-1.952-.486-3.479-1.457-4.57-.971-1.092-2.383-1.643-4.218-1.643-1.286 0-2.41.293-3.372.888-.963.595-1.718 1.429-2.249 2.512-.53 1.074-.791 2.307-.791 3.683v15.16H0ZM53.879 34.756c-2.545 0-4.776-.568-6.673-1.695-1.898-1.137-3.364-2.716-4.398-4.749-1.025-2.032-1.547-4.313-1.547-6.843 0-2.69.549-5.033 1.655-7.03 1.097-1.996 2.6-3.532 4.497-4.606 1.897-1.074 4.029-1.606 6.385-1.606s4.389.523 6.178 1.562c1.79 1.038 3.175 2.511 4.155 4.402.98 1.9 1.475 4.092 1.475 6.577 0 .293 0 .595-.027.887-.018.293-.036.63-.072 1.012H45.443c.144 1.81.594 3.364 1.34 4.66.756 1.296 1.754 2.272 3.004 2.929s2.662.985 4.227.985c1.169 0 2.248-.195 3.237-.595.99-.399 1.817-.967 2.492-1.695a6.456 6.456 0 0 0 1.438-2.556h4.272c-.377 1.66-1.088 3.115-2.14 4.385-1.052 1.269-2.383 2.245-4.002 2.937-1.619.693-3.436 1.048-5.45 1.048l.018-.01Zm7.455-15.444c-.063-1.518-.404-2.867-1.034-4.047-.63-1.18-1.502-2.095-2.626-2.743-1.124-.648-2.428-.976-3.921-.976-1.376 0-2.644.284-3.813.843-1.17.56-2.14 1.43-2.923 2.592-.783 1.163-1.295 2.61-1.529 4.322h15.837l.01.01ZM78.197 34.215c-1.413 0-2.537-.204-3.382-.62-.845-.418-1.457-1.004-1.817-1.758-.368-.755-.548-1.687-.548-2.778V12.47h-5.055V8.813h5.055V2.316h4.299v6.489h5.144v3.656h-5.144v16.571c0 .55.116.932.341 1.145.234.222.62.328 1.178.328h3.58v3.702h-3.651v.008ZM97.137 34.784c-2.41 0-4.587-.56-6.538-1.66-1.952-1.11-3.499-2.671-4.623-4.695-1.124-2.023-1.682-4.313-1.682-6.878 0-2.566.558-4.873 1.673-6.888 1.115-2.015 2.653-3.586 4.605-4.713 1.951-1.127 4.155-1.686 6.592-1.686 2.437 0 4.631.559 6.574 1.677 1.951 1.118 3.471 2.68 4.569 4.686 1.097 2.006 1.654 4.314 1.654 6.923 0 2.61-.557 4.891-1.672 6.906-1.116 2.006-2.644 3.568-4.596 4.677-1.952 1.11-4.128 1.66-6.556 1.66v-.009Zm0-3.56c1.6 0 3.04-.398 4.326-1.197 1.286-.8 2.302-1.926 3.048-3.39.756-1.465 1.125-3.16 1.125-5.095 0-1.935-.369-3.64-1.116-5.113-.746-1.464-1.753-2.6-3.039-3.4-1.286-.798-2.734-1.197-4.344-1.197-1.61 0-3.04.4-4.335 1.198-1.295.799-2.311 1.926-3.067 3.4-.755 1.464-1.124 3.168-1.124 5.112 0 1.943.378 3.63 1.142 5.085.765 1.456 1.781 2.583 3.067 3.39 1.286.809 2.725 1.208 4.326 1.208h-.01ZM123.639 34.802c-3.309 0-5.908-.781-7.788-2.352-1.888-1.571-2.896-3.79-3.039-6.666h4.253c.081 1.731.675 3.098 1.781 4.074 1.106.985 2.716 1.474 4.82 1.474 1.853 0 3.301-.355 4.335-1.057 1.034-.7 1.556-1.66 1.556-2.884 0-.888-.207-1.598-.621-2.13-.413-.533-1.088-.959-2.032-1.287-.944-.329-2.293-.648-4.047-.959-2.23-.39-3.993-.86-5.27-1.42-1.286-.55-2.23-1.287-2.842-2.201-.611-.914-.917-2.06-.917-3.435 0-1.518.386-2.858 1.151-4.02.764-1.163 1.897-2.069 3.381-2.717 1.484-.648 3.238-.976 5.252-.976 2.015 0 3.841.32 5.342.959 1.502.639 2.662 1.57 3.481 2.787.818 1.216 1.25 2.653 1.295 4.313h-4.182c-.108-1.455-.665-2.583-1.664-3.4-.998-.816-2.419-1.215-4.272-1.215-1.169 0-2.167.16-2.994.48-.828.319-1.448.754-1.862 1.313-.423.559-.629 1.207-.629 1.952 0 .817.188 1.456.566 1.926.378.47 1.025.852 1.925 1.145.899.293 2.194.595 3.867.888 2.311.408 4.137.888 5.486 1.456 1.349.567 2.347 1.304 2.995 2.236.647.932.971 2.113.971 3.55 0 1.625-.396 3.045-1.178 4.27-.783 1.216-1.952 2.174-3.499 2.858-1.556.683-3.426 1.03-5.63 1.03l.009.008ZM138.218 4.855V0h4.586v4.855h-4.586Zm.144 29.37V8.813h4.298v25.402h-4.298v.008ZM147.958 34.215V8.813h4.298v3.914h.072c.765-1.376 1.862-2.467 3.301-3.266 1.439-.808 3.12-1.207 5.036-1.207 1.916 0 3.597.39 4.991 1.171 1.394.781 2.464 1.926 3.22 3.444.755 1.518 1.124 3.39 1.124 5.627v15.728h-4.272V18.94c0-2.219-.539-3.932-1.628-5.148-1.088-1.207-2.599-1.82-4.55-1.82-1.502 0-2.806.33-3.894.995a6.64 6.64 0 0 0-2.518 2.734c-.585 1.153-.882 2.44-.882 3.843v14.671h-4.298Z"></path></svg>