<svg xmlns="http://www.w3.org/2000/svg" width="590.673" height="177.165" viewBox="0 0 590.67328 177.16498"><g fill="#333"><path d="M336.277 117.803c0 9.13-6.608 16.266-19.812 21.414-10 3.882-20.534 5.823-31.604 5.823-23.209 0-34.81-5.726-34.81-17.185 0-8.159 7.573-16.071 22.719-23.741 13.496-6.796 24.86-10.196 34.084-10.196 8.156 0 14.903 1.893 20.245 5.681 6.117 4.274 9.178 10.339 9.178 18.204m-13.538-15.017c-4.508-2.868-10.594-8.415-15.45-6.443-8.817 3.581-17.378 7.32-26.794 12.173-9.903 4.953-17.434 13.027-21.704 20.212 6.601 6.7 14.514 10.048 23.74 10.048 8.834 0 17.918-1.588 27.234-4.805 26.512-9.15 17.48-28.317 12.974-31.185M445.574 91.42c0 2.05-5.512 19.928-12.686 38.255-.899 2.305-2.245 5.703-4.039 10.188-1.538 3.461-3.525 5.642-5.958 6.536-1.413.515-4.297.769-8.652.769 0-.894-.16-2.178-.48-3.844-.32-1.664-.482-2.949-.482-3.845 0-2.816 1.087-5.959 3.27-9.421 2.946-4.739 10.38-11.467 10.764-12.496 1.027-3.2 3.01-12.685 5.961-20.762 2.175-5.637 7.56-19.992 12.302-23.837 3.847 3.845 0 16.407 0 18.456m19.995-49.022c0 4.613-3.077 6.92-9.228 6.92-5.64 0-8.459-2.307-8.459-6.92 0-2.308.736-5.509 2.21-9.613 1.472-4.1 2.275-7.176 2.402-9.227 1.282.767 3.717 4.422 7.308 10.957.255.384 1.407 1.538 3.46 3.46 1.537 1.411 2.307 2.884 2.307 4.423M216.897 97.756c-4.056 2.395-9.079 3.953-15.059 4.678-1.962.24-4.925.464-8.886.672-3.963.208-6.928.432-8.889.671-6.696.812-12.565 4.697-17.612 11.649-2.254 3.082-1.877 3.852-6.547 13.84 2.442-.027 6.864.029 13.265.157 6.402.128 10.275 1.245 11.618 3.345-2.37 1.375-8.41 3.466-18.128 6.278-8.486 2.478-14.54 5.207-18.166 8.182-5.27 4.355-7.436 12.338-6.492 20.104 1.027 8.484 7.982 9.275 29.932 3.511 1.741-.455 3.824-.6 6.113-1.15 5.371-1.284 8.768-2.014 10.198-2.186 5-.606 8.462.286 10.382 2.68-2.86 1.796-13.89 3.86-33.084 6.19-7.41.897-14.045.751-19.894-.441-8.729-1.748-13.457-5.615-14.184-11.598-.206-1.695 1.327-2.77 4.6-10.914 3.267-8.14 4.92-13.933 4.955-17.383l5.76-9.609 13.162-21.786c3.52-5.319 12.47-6.929 26.846-8.673 3.3-.401 7.049-.492 11.245-.277.911.072 7.199.757 18.865 2.06M588.942 6.543c-2.874.298-6.642 2.582-10.921 6.64.086-.263.185-.54.264-.8l-1.077 1.588c-7.275 7.176-15.92 19.349-24.187 35.642l-29.968 44.154s10.14-11.319 21.84-26.394a283.106 283.106 0 0 0-7.642 20.874c-6.108 18.93-19.375 25.889-22.708 32.681-2.947-4.74-5.767-12.237-8.456-22.492-3.335-12.559-5.766-20.634-7.307-24.223-3.588-8.201-8.522-14.096-14.803-17.686-2.05 3.334-3.971 7.497-5.767 12.496-3.844 10.254-3.974 20.569-8.072 27.105-1.027 1.539-4.008 6.391-16.727 17.301-10.546 9.05-7.616 12.41-10.766 16.535l1.346 4.613 2.116 1.154c5.253-.51 8.266-2.755 20.569-18.263 10.252-13.199 15.956-19.287 20.952-25.954 3.973 10.127 9.038 16.6 11.345 27.107 3.077 14.226 1.473 40.052 2.884 46.715l7.498-2.114c3.972-1.28 4.42-2.178 5.188-2.692 3.718-2.818 5.578-7.175 5.578-13.073 0-4.869 6.985-26.399 13.262-41.522 4.485-10.894 10-22.88 16.537-35.952 8.328-17.042 27.103-43.063 32.87-48.061 4.486-3.844 7.115-6.599 7.883-8.266l-1.73-7.113z"/><path d="M295.332 57.776c-3.282-2.015-19.5 5.192-23.07 3.345 21.38-7.543 37.482-14.278 37.482-14.278l-34.31 9.694c4.814-6.49 7.625-10.462 8.364-11.834 2.177-3.97 3.27-7.56 3.27-10.765 0-1.792-.867-3.845-2.598-6.15-1.731-2.308-3.429-3.462-5.095-3.462-6.151 13.072-10.062 21.021-11.725 23.837-3.489 5.873-7.359 10.474-11.599 13.85l-29.89 8.445a102.8 102.8 0 0 1-4.457-.186c-2.18-.125-3.846-.191-4.999-.191-11.41 0-17.111 2.497-17.111 7.497 0 .13.039.247.046.373l-13.03 3.681c4.156.043 8.831-.321 13.855-1.001a7.118 7.118 0 0 0 1.916 2.041c1.859 1.346 3.878 2.019 6.058 2.019 1.663 0 7.176-1.664 16.532-4.998 4.74-1.665 8.521-2.433 11.345-2.307l6.726.384-16.535 18.455c-14.482 16.148-29.41 47.613-29.41 55.943 0 14.102 8.175 10.798 8.175 4.52 0-7.317 21.955-43.04 33.252-59.405 7.447-10.787 14.486-21.78 23.457-22.426 16.845-1.212 26.68-7.035 29.121-7.66 7.735-1.979 7.818-6.471 4.23-9.421M166.097 44.792a182.022 182.022 0 0 1-5.193-2.69c-3.568 0-10.855 5.594-21.833 16.764 4.286-6.004 7.942-12.035 9.632-17.003l-22.302 30.313-24.13 25.483c-12.177 12.818-20.377 19.224-24.607 19.224h-1.728c-2.823-25.63-4.552-39.665-5.192-42.101-2.437-9.354-6.152-16.275-11.15-20.761-3.206 2.948-5.257 5.896-6.152 8.842-1.536 4.999 3.201 15.638 2.69 16.534-1.744.904-3.093 1.945-4.296 3.266.01-.132.034-.275.043-.407l-.265.657c-3.628 4.15-6.014 11.043-14.088 25.031-11.841 20.515-19.842 35.215-23.302 42.775L0 173.79c8.582 0 11.34-6.023 19.8-18.07 2.301-3.282 4.802-7.513 7.48-12.592l-12.254 30.321S40.43 128.891 49.12 96.816c2.445-4.598 4.726-8.45 6.821-11.46.511 2.05 1.216 9.227 2.115 21.532 1.409 19.738 4.805 29.606 10.189 29.606 4.229 0 17.11-10.637 27.106-20.38l29.029-28.258c11.535-11.15 18.969-17.56 22.301-19.225 0 7.688-8.526 23.453-12.11 35.757l-10.575 22.876c-7.564 12.564 2.179 27.238 5.768 16.342 3.27-10.267 4.943-15.695 6.151-19.802 5.124-12.43 1.217-15.572 3.652-20.953 8.077-18.072 12.88-23.262 14.418-27.108 4.741-11.534 13.392-20.056 14.42-25.567l-2.308-5.384z"/><path d="M347.147 38.46c3.759-1.356 21.234-7.175 53.263-13.768C423.5 19.94 432.062 10.297 432.062 0c0 6.387-29.282 17.056-55.01 25.182a397.252 397.252 0 0 1-17.984 5.127c20.713-6.113 45.61-14.902 58.48-24.798l-89.597 32.614c-4.243 1.206-8 2.465-11.271 3.945-20.164 9.027-30.243 17.681-30.243 25.955 0 8.727 9.48 14.445 28.438 17.151 25.276 3.464 42.805 5.795 52.585 6.998 18.805 2.858 28.802 9.571 28.21 20.085-3.162 56.287-113.319 63.986-149.112 51.141-14.725-5.288-30.54-4.705-22.226.676 22.919 14.838 49.826 13.101 69.484 12.954 14.464-.105 54.412-11.888 77.492-19.96l-34.466 14.292s38.329-9.807 51.635-21.283c17.001-9.534 25.249-26.355 25.249-38.724 0-8.874-7.896-16.249-23.696-22.116-7.528-2.855-23.022-6.467-46.493-10.833-20.764-3.91-39.911-4.195-41.979-11.059-2.066-6.865 24.673-21.666 45.59-28.887"/></g></svg>