<svg id="Layer_1" data-name="Layer 1" xmlns="http://www.w3.org/2000/svg" viewBox="0 0 232.9 59.43"><defs><style>.cls-1{fill:#435d74;}.cls-2{fill:#0077c0;}</style></defs><path class="cls-1" d="M18.06,55.29a8.26,8.26,0,0,1-5.84-14.1l3.54-3.54-8.7-8.71a15.51,15.51,0,0,1,11-26.43h6.31V5.76H18.06A12.26,12.26,0,0,0,9.39,26.68h0l14.47,14.5A8.26,8.26,0,0,1,18,55.29Zm0-15.33-3.53,3.53a5,5,0,1,0,7.08,0Z" transform="translate(-2.56 -2.51)"/><path class="cls-2" d="M18.11,61.9H13V58.64h5.14a12.26,12.26,0,0,0,8.71-20.91h0L12.27,23.21A8.26,8.26,0,0,1,24,11.53a8.27,8.27,0,0,1,0,11.68l-3.56,3.54,8.7,8.7a15.51,15.51,0,0,1-11,26.48Zm0-49.54a5,5,0,0,0-5,5,4.94,4.94,0,0,0,1.47,3.55l3.54,3.55,3.54-3.55a5,5,0,0,0-3.54-8.56Z" transform="translate(-2.56 -2.51)"/><g id="Layer_3" data-name="Layer 3"><path class="cls-1" d="M57.43,34.47H52.54v7.1H50.27V21.44h7.56c4.54,0,7.53,2.42,7.53,6.42C65.33,32.22,61.71,34.47,57.43,34.47Zm.2-10.92H52.54v8.81h5c3.34,0,5.54-1.74,5.54-4.41C63.05,25,60.88,23.55,57.63,23.55Z" transform="translate(-2.56 -2.51)"/><path class="cls-1" d="M91.94,41.57H89.51l-2.36-5.32h-11l-2.38,5.32H71.48L80.65,21.3h2.13ZM81.69,24l-4.6,10.26h9.17Z" transform="translate(-2.56 -2.51)"/><path class="cls-1" d="M115.51,41.57l-5.83-7.84h-5.75v7.84h-2.27V21.44h8.65c4.43,0,7.27,2.4,7.27,6,0,3.37-2.3,5.32-5.46,5.9l6.18,8.22Zm-5.38-18h-6.2v8.16h6.14c3,0,5.18-1.55,5.18-4.17S113.38,23.55,110.13,23.55Z" transform="translate(-2.56 -2.51)"/><path class="cls-1" d="M145.31,41.57h-2.84l-7.73-9.75-4.28,4.36v5.4h-2.28V21.44h2.28v12l11.55-12h2.89l-8.62,8.81Z" transform="translate(-2.56 -2.51)"/><path class="cls-1" d="M161.52,30.41c4.49,1,6.55,2.62,6.55,5.72,0,3.49-2.87,5.72-6.87,5.72A11.78,11.78,0,0,1,153,38.64L154.39,37a9.61,9.61,0,0,0,6.9,2.85c2.71,0,4.48-1.41,4.48-3.49,0-1.89-1-3-5.22-3.85-4.63-1-6.76-2.5-6.76-5.84s2.79-5.52,6.61-5.52a10.51,10.51,0,0,1,7.07,2.54l-1.32,1.74a8.81,8.81,0,0,0-5.81-2.19c-2.61,0-4.27,1.44-4.27,3.28S157.09,29.46,161.52,30.41Z" transform="translate(-2.56 -2.51)"/><path class="cls-1" d="M180.92,21.44V41.57h-2.27V21.44Z" transform="translate(-2.56 -2.51)"/><path class="cls-1" d="M199.54,41.57h-7V21.44h7c6.31,0,10.67,4.35,10.67,10S205.85,41.57,199.54,41.57Zm0-18h-4.71V39.47h4.71c5.09,0,8.34-3.48,8.34-7.93S204.63,23.55,199.54,23.55Z" transform="translate(-2.56 -2.51)"/><path class="cls-1" d="M235.33,23.52H223.05v6.87h11v2.07h-11v7h12.41v2.08H220.78V21.44h14.55Z" transform="translate(-2.56 -2.51)"/></g></svg>
