<svg width="321" height="111" viewBox="0 0 321 111" fill="none" xmlns="http://www.w3.org/2000/svg">
<path d="M218.233 84.0038C214.438 89.4421 208.135 93 201 93C189.402 93 180 83.598 180 72C180 60.402 189.402 51 201 51C208.259 51 214.658 54.6831 218.43 60.2824L233.945 51.1193C227.028 40.2278 214.858 33 201 33C179.461 33 162 50.4609 162 72C162 93.5391 179.461 111 201 111C214.804 111 226.932 103.829 233.864 93.0084L218.233 84.0038Z" fill="black"/>
<path d="M261 0H243V108H261V72C261 60.402 270.402 51 282 51C293.598 51 303 60.402 303 72V108H321V68.5C321 48.8939 305.106 33 285.5 33C276 33 267.371 36.7318 261 42.8094V0Z" fill="black"/>
<path d="M135 0H117V84C117 98.9117 129.088 111 144 111C150.797 111 157.007 108.488 161.754 104.343L153.054 89.5906C151.405 91.6678 148.858 93 146 93H144C143.379 93 142.772 92.937 142.186 92.8172C138.085 91.9779 135 88.3492 135 84V54H153V36H135V0Z" fill="black"/>
<path d="M96 0C90.4772 0 86 4.47715 86 10C86 15.5228 90.4772 20 96 20C101.523 20 106 15.5228 106 10C106 4.47715 101.523 0 96 0Z" fill="black"/>
<path d="M105 108V36H87V108H105Z" fill="black"/>
<path fill-rule="evenodd" clip-rule="evenodd" d="M0 108H18V87H34.5C58.5244 87 78 67.5244 78 43.5C78 19.4756 58.5244 0 34.5 0H0V108ZM18 18H34.5C48.5833 18 60 29.4167 60 43.5C60 57.5833 48.5833 69 34.5 69H18V18Z" fill="black"/>
</svg>
