<?xml version="1.0" encoding="UTF-8" standalone="no"?><!DOCTYPE svg PUBLIC "-//W3C//DTD SVG 1.1//EN" "http://www.w3.org/Graphics/SVG/1.1/DTD/svg11.dtd"><svg width="100%" height="100%" viewBox="0 0 387 330" version="1.1" xmlns="http://www.w3.org/2000/svg" xmlns:xlink="http://www.w3.org/1999/xlink" xml:space="preserve" xmlns:serif="http://www.serif.com/" style="fill-rule:evenodd;clip-rule:evenodd;stroke-linejoin:round;stroke-miterlimit:2;"><g id="Layer-1" serif:id="Layer 1"><path id="path4209" d="M189.254,0.003c-17.996,0.203 -32.942,12.398 -34.188,28.468c-0.136,1.756 -0.065,3.456 0.125,5.157c-5.894,-1.888 -12.255,-3.136 -18.969,-3.657c-29.235,-2.267 -54.673,10.512 -60.468,29.313c-19.335,6.261 -34.686,18.446 -42.25,34.062c-17.17,-0.893 -32.067,12.131 -33.407,29.407c-1.36,17.549 11.705,32.923 29.219,34.281c5.543,0.43 10.897,-0.629 15.625,-2.781c13.679,14.401 34.747,24.499 58.938,26.375c21.791,1.689 42.031,-3.64 57.343,-13.563c2.548,4.211 6.024,7.954 10.188,11.031c-3.619,19.865 -7.239,39.732 -10.875,59.594c21.781,0.082 43.562,0.356 65.344,0.438c-3.889,-19.872 -7.743,-39.752 -11.625,-59.625c4.426,-3.153 8.112,-7.025 10.781,-11.438c15.313,9.923 35.646,15.252 57.437,13.563c24.191,-1.876 45.165,-11.974 58.844,-26.375c4.728,2.152 10.083,3.211 15.625,2.781c17.515,-1.358 30.673,-16.732 29.313,-34.281c-1.34,-17.276 -16.237,-30.3 -33.407,-29.407c-7.564,-15.616 -23.009,-27.801 -42.343,-34.062c-5.796,-18.801 -31.14,-31.58 -60.375,-29.313c-6.714,0.521 -13.075,1.769 -18.969,3.657c0.19,-1.701 0.261,-3.401 0.125,-5.157c-1.246,-16.07 -16.286,-28.265 -34.281,-28.468c-1.2,-0.014 -2.433,0.031 -3.657,0.125c-0.072,0.007 -0.147,-0.007 -0.218,0c-0.072,-0.007 -0.147,0.007 -0.219,0c-1.224,-0.095 -2.457,-0.14 -3.656,-0.125Zm3.437,21.562l0.531,0c3.054,0 5.83,0.863 7.875,2.375c2.046,1.512 3.344,3.662 3.344,6.031c0,0.7 -0.223,1.404 -0.437,2.063l9.062,6.656c1.884,-1.055 4.057,-1.719 6.563,-1.719c3.052,0 5.829,0.871 7.875,2.375c2.045,1.504 3.437,3.662 3.437,6.032c0,1.559 -0.745,2.969 -1.719,4.218l12.719,9.25c1.611,-0.673 3.437,-1.062 5.406,-1.062c3.054,0 5.924,0.863 7.969,2.375c2.046,1.512 3.344,3.662 3.344,6.031c0,1.338 -0.582,2.546 -1.313,3.656l12.094,8.75c1.629,-0.693 3.471,-1.187 5.469,-1.187c3.054,0 5.829,0.832 7.875,2.344c2.045,1.512 3.344,3.693 3.344,6.062c0,2.37 -1.299,4.519 -3.344,6.031c-2.046,1.512 -4.821,2.375 -7.875,2.375c-3.054,0 -5.798,-0.863 -7.844,-2.375c-2.046,-1.512 -3.469,-3.661 -3.469,-6.031c0,-1.829 0.984,-3.508 2.282,-4.875l-11.313,-8.281c-1.96,1.237 -4.483,2.031 -7.219,2.031c-2.494,0 -4.717,-0.672 -6.593,-1.719l-9.032,6.594c0.781,0.953 1.448,1.983 1.719,3.125c0.09,0.381 0.094,0.751 0.094,1.156c0,2.37 -1.298,4.551 -3.344,6.063c-1.023,0.756 -2.233,1.409 -3.562,1.812c-0.665,0.202 -1.311,0.334 -2.032,0.438c-0.721,0.104 -1.518,0.094 -2.281,0.094c-2.401,0 -4.601,-0.525 -6.437,-1.5l-12.719,9.375c1.311,1.105 2.279,2.558 2.687,4.093c0.137,0.512 0.219,0.99 0.219,1.532c0,2.369 -1.298,4.394 -3.344,5.906c-0.511,0.378 -1.03,0.79 -1.625,1.094c-1.189,0.606 -2.558,1.052 -4,1.281c-0.721,0.114 -1.486,0.125 -2.25,0.125c-3.053,0 -5.829,-0.988 -7.875,-2.5c-1.022,-0.756 -1.889,-1.597 -2.468,-2.594c-0.29,-0.498 -0.503,-1.045 -0.657,-1.594c-0.153,-0.548 -0.218,-1.126 -0.218,-1.718c0,-2.37 1.298,-4.551 3.343,-6.063c2.046,-1.512 4.822,-2.469 7.875,-2.469c1.525,0 2.985,0.333 4.313,0.75l13.687,-9.906c-0.489,-0.623 -0.878,-1.238 -1.187,-1.937c-0.309,-0.7 -0.531,-1.499 -0.531,-2.282c0,-2.369 1.297,-4.527 3.343,-6.031c0.512,-0.376 0.999,-0.676 1.594,-0.969c1.785,-0.878 3.96,-1.406 6.25,-1.406c2.296,0 4.363,0.632 6.156,1.531l9.282,-6.687c-0.453,-0.604 -0.897,-1.252 -1.188,-1.938c-0.291,-0.685 -0.437,-1.406 -0.437,-2.156c0,-1.853 1.045,-3.464 2.375,-4.844l-12.5,-9.156c-1.826,0.952 -4.008,1.594 -6.375,1.594c-2.688,0 -5.056,-0.74 -7,-1.938l-10.438,7.657c0.934,1.008 1.623,2.167 1.938,3.437c0.104,0.423 0.218,0.865 0.218,1.313c0,2.369 -1.298,4.519 -3.343,6.031c-0.512,0.378 -1.145,0.769 -1.75,1.062c-1.21,0.587 -2.507,0.979 -3.969,1.188c-0.731,0.104 -1.518,0.125 -2.281,0.125c-3.054,0 -5.799,-0.863 -7.844,-2.375c-2.046,-1.512 -3.344,-3.662 -3.344,-6.031c0,-2.37 1.298,-4.528 3.344,-6.032c2.046,-1.504 4.791,-2.375 7.844,-2.375c2.104,0 4.152,0.424 5.843,1.188l10.875,-7.969c-0.735,-1.115 -1.281,-2.346 -1.281,-3.687c0,-0.366 0.021,-0.712 0.094,-1.063c0.223,-1.052 0.762,-2.025 1.406,-2.906l-8.188,-6.031c-2.08,1.866 -5.091,3.125 -8.531,3.125c-2.863,0 -5.437,-1.03 -7.437,-2.375l-8.063,5.593c0.714,1.103 1.188,2.338 1.188,3.657c0,2.369 -1.298,4.425 -3.344,5.937c-2.046,1.512 -4.821,2.469 -7.875,2.469c-2.039,0 -3.939,-0.467 -5.594,-1.188l-12.719,8.625c1.417,1.403 2.563,3.048 2.563,4.969c0,0.386 -0.007,0.818 -0.094,1.188c-0.26,1.108 -0.906,2.068 -1.625,3l9.282,6.687c1.369,-0.45 2.818,-0.75 4.406,-0.75c3.053,0 5.829,0.957 7.875,2.469c2.045,1.512 3.344,3.568 3.344,5.937c0,2.37 -1.299,4.52 -3.344,6.032c-2.046,1.512 -4.821,2.5 -7.875,2.5c-3.054,0 -5.837,-0.988 -7.875,-2.5c-2.038,-1.513 -3.313,-3.663 -3.313,-6.032c0,-1.086 0.243,-2.082 0.75,-3c0.254,-0.459 0.614,-0.897 0.969,-1.312c0.355,-0.415 0.748,-0.818 1.188,-1.188l-8.532,-6.25c-1.831,0.965 -3.958,1.719 -6.343,1.719c-2.957,0 -5.636,-1.044 -7.657,-2.469l-11.843,8.188c1.431,1.121 2.538,2.612 3,4.219c0.153,0.535 0.218,1.024 0.218,1.593c0,1.03 -0.426,1.911 -0.875,2.813l10.469,7.531c1.406,-0.476 2.896,-0.75 4.531,-0.75c3.054,0 5.923,0.863 7.969,2.375c2.046,1.512 3.344,3.662 3.344,6.031c0,2.37 -1.298,4.528 -3.344,6.032c-2.046,1.503 -4.916,2.375 -7.969,2.375c-1.526,0 -2.983,-0.127 -4.312,-0.532c-0.665,-0.202 -1.343,-0.457 -1.938,-0.75c-0.595,-0.293 -1.113,-0.717 -1.625,-1.093c-2.046,-1.504 -3.343,-3.662 -3.343,-6.032c0,-2.111 1.354,-3.907 3.031,-5.375l-9.5,-6.781c-2.042,1.507 -4.702,2.563 -7.75,2.563c-3.488,0 -6.548,-1.214 -8.625,-3.125l-11.219,7.781c0.543,0.645 1.057,1.42 1.406,2.156c0.175,0.368 0.341,0.671 0.438,1.063c0.097,0.391 0.093,0.773 0.093,1.187c0,2.37 -1.297,4.527 -3.343,6.031c-0.512,0.376 -0.999,0.801 -1.594,1.094c-1.19,0.586 -2.558,0.978 -4,1.188c-0.721,0.104 -1.487,0.093 -2.25,0.093c-3.053,0 -5.923,-0.871 -7.969,-2.375c-2.046,-1.504 -3.344,-3.661 -3.344,-6.031c0,-2.369 1.299,-4.519 3.344,-6.031c2.046,-1.512 4.915,-2.375 7.969,-2.375c2.128,0 4.012,0.5 5.719,1.281l12.593,-8.594c-0.179,-0.572 -0.437,-1.116 -0.437,-1.75c0,-2.369 1.298,-4.519 3.344,-6.031c2.045,-1.512 4.821,-2.469 7.875,-2.469c1.302,0 2.611,0.222 3.781,0.531l1.719,-1.281l0.218,-0.125l11.407,-7.75c-0.454,-0.913 -0.844,-1.872 -0.844,-2.906c0,-2.369 1.298,-4.519 3.344,-6.031c2.045,-1.512 4.915,-2.375 7.968,-2.375c1.734,0 3.278,0.312 4.75,0.843l1.5,-0.968l11.407,-7.844c-1.101,-1.297 -2.032,-2.767 -2.032,-4.438c0,-2.369 1.392,-4.527 3.438,-6.031c2.046,-1.504 4.822,-2.375 7.875,-2.375c2.619,0 4.978,0.699 6.906,1.844l8.281,-5.594c-0.542,-0.985 -0.968,-2.112 -0.968,-3.25c0,-2.369 1.298,-4.519 3.343,-6.031c1.912,-1.413 4.62,-2.138 7.438,-2.25l0,-0.125l0,0Zm0.531,3.563c-2.089,0 -4.016,0.686 -5.281,1.625c-0.953,0.706 -1.565,1.513 -1.812,2.375c-0.083,0.287 -0.125,0.536 -0.125,0.843c0,0.922 0.369,1.81 1.093,2.594c0.242,0.261 0.527,0.514 0.844,0.75c0.949,0.704 2.299,1.265 3.781,1.5c0.495,0.078 0.978,0.125 1.5,0.125c2.09,0 3.913,-0.684 5.188,-1.625c1.28,-0.945 1.937,-2.123 1.937,-3.344c0,-1.22 -0.657,-2.274 -1.937,-3.218c-1.275,-0.941 -3.098,-1.625 -5.188,-1.625Zm-25.531,15.406c-2.09,0 -4.016,0.568 -5.281,1.5c-0.954,0.702 -1.502,1.607 -1.719,2.5c-0.072,0.297 -0.125,0.536 -0.125,0.844c0,0.921 0.275,1.809 0.969,2.593c0.231,0.262 0.557,0.515 0.875,0.75c1.264,0.938 3.192,1.5 5.281,1.5c2.089,0 3.913,-0.559 5.188,-1.5c1.28,-0.944 1.937,-2.123 1.937,-3.343c0,-1.221 -0.656,-2.405 -1.937,-3.344c-1.276,-0.935 -3.098,-1.5 -5.188,-1.5Zm51.938,0c-2.09,0 -3.891,0.568 -5.157,1.5c-0.953,0.702 -1.596,1.607 -1.843,2.5c-0.083,0.297 -0.094,0.536 -0.094,0.844c0,0.921 0.338,1.809 1.062,2.593c0.242,0.262 0.558,0.515 0.875,0.75c1.265,0.938 3.068,1.5 5.157,1.5c2.089,0 4.006,-0.559 5.281,-1.5c1.28,-0.944 1.937,-2.123 1.937,-3.343c0,-1.221 -0.656,-2.405 -1.937,-3.344c-1.276,-0.935 -3.191,-1.5 -5.281,-1.5l0,0Zm-26.625,18.875c-2.091,0 -3.881,0.659 -5.157,1.594c-0.961,0.704 -1.598,1.514 -1.843,2.375c-0.082,0.287 -0.094,0.57 -0.094,0.875c0,0.915 0.337,1.807 1.062,2.593c0.242,0.262 0.555,0.514 0.875,0.75c0.956,0.706 2.207,1.266 3.657,1.5c0.483,0.078 0.977,0.094 1.5,0.094c2.089,0 4.016,-0.656 5.281,-1.594c1.27,-0.942 1.937,-2.114 1.937,-3.343c0,-1.23 -0.666,-2.314 -1.937,-3.25c-1.266,-0.933 -3.191,-1.594 -5.281,-1.594l0,0Zm-52.25,1.937c-2.091,0 -4.016,0.662 -5.282,1.594c-0.953,0.703 -1.596,1.607 -1.843,2.5c-0.083,0.298 -0.094,0.537 -0.094,0.844c0,0.922 0.338,1.84 1.062,2.594c0.242,0.251 0.558,0.42 0.875,0.656c0.949,0.703 2.268,1.265 3.75,1.5c0.495,0.078 1.009,0.125 1.532,0.125c2.089,0 3.881,-0.684 5.156,-1.625c1.28,-0.945 1.937,-2.03 1.937,-3.25c0,-1.22 -0.656,-2.404 -1.937,-3.344c-1.276,-0.935 -3.066,-1.594 -5.156,-1.594l0,0Zm106.593,0c-2.09,0 -3.912,0.659 -5.187,1.594c-0.961,0.705 -1.599,1.609 -1.844,2.5c-0.082,0.297 -0.094,0.539 -0.094,0.844c0,0.915 0.337,1.837 1.063,2.594c0.242,0.252 0.555,0.42 0.875,0.656c0.956,0.705 2.206,1.266 3.656,1.5c0.483,0.078 1.009,0.125 1.531,0.125c2.089,0 4.017,-0.687 5.282,-1.625c1.27,-0.942 1.937,-2.021 1.937,-3.25c0,-1.229 -0.666,-2.407 -1.937,-3.344c-1.266,-0.932 -3.192,-1.594 -5.282,-1.594l0,0Zm-25.031,17.657c-2.09,0 -4.016,0.692 -5.281,1.625c-0.954,0.702 -1.502,1.512 -1.719,2.375c-0.072,0.287 -0.094,0.536 -0.094,0.843c0,0.922 0.275,1.81 0.969,2.594c0.232,0.261 0.526,0.514 0.844,0.75c0.948,0.704 2.299,1.296 3.781,1.531c0.494,0.079 0.978,0.094 1.5,0.094c2.089,0 4.007,-0.684 5.281,-1.625c1.281,-0.945 1.844,-2.123 1.844,-3.344c0,-1.22 -0.562,-2.279 -1.844,-3.218c-1.275,-0.935 -3.191,-1.625 -5.281,-1.625l0,0Zm-58.406,0.875c-2.089,0 -3.892,0.687 -5.156,1.625c-0.953,0.706 -1.596,1.577 -1.844,2.468c-0.083,0.298 -0.094,0.568 -0.094,0.875c0,1.229 0.667,2.371 1.938,3.313c0.948,0.703 2.204,1.202 3.656,1.406c0.484,0.068 0.978,0.125 1.5,0.125c2.089,0 4.007,-0.59 5.281,-1.531c1.28,-0.945 1.938,-2.092 1.938,-3.313c0,-1.22 -0.658,-2.398 -1.938,-3.343c-1.274,-0.941 -3.192,-1.625 -5.281,-1.625l0,0Zm111,1.062c-2.09,0 -4.016,0.693 -5.281,1.625c-0.954,0.703 -1.502,1.512 -1.719,2.375c-0.073,0.288 -0.094,0.568 -0.094,0.875c0,0.922 0.275,1.779 0.969,2.563c0.231,0.261 0.526,0.514 0.844,0.75c0.948,0.703 2.298,1.296 3.781,1.531c0.494,0.078 0.978,0.094 1.5,0.094c2.089,0 3.923,-0.687 5.187,-1.625c1.271,-0.943 1.938,-2.083 1.938,-3.313c0,-1.229 -0.666,-2.313 -1.938,-3.25c-1.265,-0.932 -3.097,-1.625 -5.187,-1.625l0,0Zm-161.75,0.344c-2.089,0 -3.923,0.655 -5.188,1.594c-0.952,0.706 -1.564,1.608 -1.812,2.5c-0.083,0.297 -0.125,0.536 -0.125,0.843c0,0.922 0.369,1.841 1.094,2.594c0.241,0.251 0.525,0.422 0.843,0.656c0.949,0.7 2.236,1.264 3.688,1.5c0.484,0.079 0.977,0.125 1.5,0.125c2.09,0 4.016,-0.692 5.281,-1.625c1.272,-0.936 1.938,-2.021 1.938,-3.25c0,-1.229 -0.668,-2.401 -1.938,-3.343c-1.265,-0.939 -3.192,-1.594 -5.281,-1.594Zm-29.094,17.562c-2.089,0 -4.017,0.687 -5.281,1.625c-0.953,0.707 -1.596,1.577 -1.844,2.469c-0.083,0.297 -0.094,0.568 -0.094,0.875c0,0.922 0.338,1.81 1.063,2.563c0.241,0.251 0.557,0.422 0.875,0.656c0.949,0.699 2.267,1.264 3.75,1.5c0.494,0.078 1.009,0.125 1.531,0.125c2.09,0 3.891,-0.693 5.156,-1.625c1.272,-0.937 1.938,-2.021 1.938,-3.25c0,-1.23 -0.667,-2.371 -1.938,-3.313c-1.264,-0.938 -3.067,-1.625 -5.156,-1.625l0,0Zm54.531,0.532c-2.089,0 -3.923,0.686 -5.187,1.625c-0.953,0.706 -1.565,1.513 -1.813,2.375c-0.082,0.287 -0.125,0.536 -0.125,0.843c0,0.615 0.206,1.28 0.532,1.844c0.163,0.282 0.32,0.489 0.562,0.75c0.241,0.261 0.526,0.516 0.844,0.75c0.949,0.699 2.235,1.264 3.687,1.5c0.484,0.079 0.978,0.125 1.5,0.125c2.091,0 4.006,-0.69 5.282,-1.625c1.281,-0.939 1.937,-2.123 1.937,-3.344c0,-1.22 -0.657,-2.274 -1.937,-3.218c-1.275,-0.941 -3.192,-1.625 -5.282,-1.625Zm56.25,1.5c-2.09,0 -3.88,0.596 -5.156,1.531c-0.961,0.704 -1.598,1.577 -1.844,2.469c-0.081,0.297 -0.125,0.57 -0.125,0.875c0,0.915 0.368,1.776 1.094,2.562c0.242,0.262 0.555,0.514 0.875,0.75c1.275,0.941 3.067,1.531 5.156,1.531c2.089,0 4.017,-0.593 5.282,-1.531c1.27,-0.942 1.843,-2.083 1.843,-3.312c0,-1.229 -0.572,-2.407 -1.843,-3.344c-1.266,-0.932 -3.192,-1.531 -5.282,-1.531Zm-57.5,18.375l15.907,0.187l27.968,21.813l1.844,-10.094l18.875,0.187l2.094,10.813l29.094,-22.688l15.906,-0.187l-29.688,23.219l26.813,0.156l14.875,-11.406l14.656,-0.094l-26.375,20.687l-0.281,-0.218l0,0.062l-41.125,-0.219l-1.781,1.407l5.343,27.468c0.008,-0.005 0.024,0.005 0.032,0l10.656,54.75l-57.969,-0.437l9.969,-54.688l0.594,-3.156l4.5,-24.75l-0.813,-0.625l-41.094,0.219l0,-0.063l-0.312,0.219l-26.375,-20.687l14.656,0.093l14.875,11.407l26.813,-0.157l-29.657,-23.218l0,0Z" style="fill:#fff;fill-rule:nonzero;"/><g id="flowRoot3013-0-3-7-9-7-8-7-7"><path id="path3342" d="M89.315,269.635c0,1.806 -0.475,3.219 -1.423,4.24c-0.949,1.021 -2.32,1.532 -4.112,1.532c-0.975,0 -1.831,-0.125 -2.569,-0.376c-0.738,-0.25 -1.312,-0.527 -1.72,-0.83l0,-2.194c0.487,0.488 1.133,0.88 1.937,1.176c0.804,0.297 1.627,0.445 2.471,0.445c1.107,0 1.976,-0.362 2.609,-1.087c0.632,-0.725 0.949,-1.693 0.949,-2.906c0,-0.949 -0.228,-1.749 -0.682,-2.401c-0.455,-0.653 -1.321,-1.394 -2.6,-2.224c-1.462,-0.922 -2.46,-1.66 -2.994,-2.214c-0.534,-0.553 -0.949,-1.173 -1.245,-1.858c-0.297,-0.685 -0.445,-1.502 -0.445,-2.451c0,-1.541 0.52,-2.816 1.561,-3.824c1.042,-1.009 2.366,-1.513 3.973,-1.513c1.727,0 3.17,0.409 4.329,1.226l-0.968,1.641c-1.081,-0.725 -2.227,-1.088 -3.44,-1.088c-1.107,0 -1.989,0.327 -2.648,0.979c-0.659,0.652 -0.989,1.512 -0.989,2.579c0,0.949 0.224,1.743 0.672,2.382c0.448,0.639 1.397,1.413 2.847,2.323c1.423,0.935 2.398,1.683 2.925,2.243c0.527,0.56 0.919,1.179 1.176,1.858c0.257,0.679 0.386,1.459 0.386,2.342Z" style="fill:#fff;fill-rule:nonzero;"/><path id="path3344" d="M105.701,264.239c0,3.611 -0.57,6.375 -1.71,8.292c-1.14,1.917 -2.771,2.876 -4.892,2.876c-2.095,0 -3.7,-0.959 -4.813,-2.876c-1.114,-1.917 -1.67,-4.681 -1.67,-8.292c0,-7.392 2.187,-11.089 6.562,-11.089c2.056,0 3.657,0.969 4.803,2.906c1.146,1.937 1.72,4.665 1.72,8.183Zm-11.129,0c0,3.097 0.369,5.436 1.107,7.017c0.738,1.581 1.891,2.372 3.459,2.372c3.071,0 4.606,-3.13 4.606,-9.389c0,-6.206 -1.535,-9.31 -4.606,-9.31c-1.607,0 -2.77,0.778 -3.488,2.333c-0.719,1.555 -1.078,3.88 -1.078,6.977Z" style="fill:#fff;fill-rule:nonzero;"/><path id="path3346" d="M115.939,255.226l-3.36,0l0,19.786l-1.858,0l0,-19.786l-2.728,0l0,-1.067l2.728,-0.811l0,-1.621c0,-2.727 0.323,-4.691 0.969,-5.89c0.645,-1.199 1.765,-1.799 3.36,-1.799c0.922,0 1.759,0.165 2.51,0.494l-0.652,1.74c-0.698,-0.33 -1.331,-0.494 -1.898,-0.494c-0.645,0 -1.133,0.191 -1.462,0.573c-0.33,0.382 -0.574,1.001 -0.732,1.858c-0.158,0.856 -0.237,2.042 -0.237,3.558l0,1.799l3.36,0l0,1.66Z" style="fill:#fff;fill-rule:nonzero;"/><path id="path3348" d="M123.332,273.668c0.58,0 1.094,-0.08 1.542,-0.238l0,1.582c-0.58,0.263 -1.325,0.395 -2.234,0.395c-2.214,0 -3.321,-1.654 -3.321,-4.961l0,-15.22l-1.937,0l0,-1.107l1.898,-0.553l0.613,-5.1l1.304,0l0,5.1l3.4,0l0,1.66l-3.4,0l0,14.686c0,1.449 0.158,2.438 0.475,2.965c0.316,0.527 0.869,0.791 1.66,0.791Z" style="fill:#fff;fill-rule:nonzero;"/><path id="path3350" d="M140.172,275.012l-2.964,-14.528c-0.027,-0.106 -0.05,-0.218 -0.07,-0.336c-0.019,-0.119 -0.227,-1.384 -0.622,-3.795l-0.04,0l-0.277,1.68l-0.454,2.451l-3.064,14.528l-2.233,0l-4.665,-21.446l1.878,0l2.668,12.492l1.245,6.522l0.119,0c0.237,-1.884 0.619,-4.071 1.146,-6.562l2.669,-12.452l1.976,0l2.688,12.492c0.211,0.935 0.587,3.109 1.127,6.522l0.119,0c0.039,-0.434 0.234,-1.528 0.583,-3.281c0.349,-1.752 1.466,-6.997 3.35,-15.733l1.858,0l-4.823,21.446l-2.214,0Z" style="fill:#fff;fill-rule:nonzero;"/><path id="path3352" d="M158.772,275.012l-0.237,-3.005l-0.079,0c-1.028,2.267 -2.583,3.4 -4.665,3.4c-1.397,0 -2.52,-0.557 -3.37,-1.67c-0.85,-1.114 -1.275,-2.606 -1.275,-4.477c0,-2.043 0.613,-3.66 1.838,-4.853c1.226,-1.192 2.946,-1.841 5.159,-1.947l2.313,-0.118l0,-1.779c0,-2.003 -0.25,-3.463 -0.751,-4.378c-0.501,-0.916 -1.331,-1.374 -2.491,-1.374c-1.225,0 -2.477,0.402 -3.755,1.206l-0.811,-1.483c1.489,-0.922 3.051,-1.384 4.685,-1.384c1.766,0 3.037,0.557 3.815,1.671c0.777,1.113 1.166,2.974 1.166,5.584l0,14.607l-1.542,0Zm-4.566,-1.206c1.344,0 2.389,-0.662 3.133,-1.987c0.745,-1.324 1.117,-3.198 1.117,-5.623l0,-2.234l-2.234,0.119c-1.726,0.092 -3.007,0.57 -3.844,1.433c-0.837,0.863 -1.255,2.125 -1.255,3.785c0,1.555 0.277,2.695 0.83,3.42c0.553,0.724 1.305,1.087 2.253,1.087Z" style="fill:#fff;fill-rule:nonzero;"/><path id="path3354" d="M171.917,253.15c0.672,0 1.298,0.093 1.877,0.277l-0.454,1.878c-0.475,-0.198 -0.962,-0.297 -1.463,-0.297c-0.725,0 -1.4,0.373 -2.026,1.117c-0.626,0.745 -1.117,1.782 -1.473,3.113c-0.355,1.331 -0.533,2.801 -0.533,4.408l0,11.366l-1.878,0l0,-21.446l1.542,0l0.197,3.755l0.139,0c1.001,-2.78 2.359,-4.171 4.072,-4.171Z" style="fill:#fff;fill-rule:nonzero;"/><path id="path3356" d="M183.124,275.407c-2.267,0 -4.009,-0.965 -5.228,-2.896c-1.219,-1.93 -1.829,-4.622 -1.829,-8.074c0,-3.663 0.544,-6.46 1.631,-8.391c1.087,-1.93 2.652,-2.896 4.695,-2.896c1.778,0 3.182,0.847 4.21,2.54c1.028,1.694 1.541,3.977 1.541,6.849l0,1.74l-10.159,0c0.026,3.123 0.468,5.462 1.324,7.017c0.857,1.555 2.155,2.332 3.894,2.332c1.344,0 2.761,-0.441 4.25,-1.324l0,1.818c-1.371,0.857 -2.814,1.285 -4.329,1.285Zm-0.85,-20.557c-2.583,0 -3.999,2.576 -4.25,7.729l8.243,0c0,-2.359 -0.359,-4.237 -1.078,-5.633c-0.718,-1.397 -1.69,-2.096 -2.915,-2.096Z" style="fill:#fff;fill-rule:nonzero;"/><path id="path3358" d="M205.993,255.226l-3.36,0l0,19.786l-1.858,0l0,-19.786l-2.728,0l0,-1.067l2.728,-0.811l0,-1.621c0,-2.727 0.323,-4.691 0.968,-5.89c0.646,-1.199 1.766,-1.799 3.361,-1.799c0.922,0 1.759,0.165 2.51,0.494l-0.652,1.74c-0.699,-0.33 -1.331,-0.494 -1.898,-0.494c-0.646,0 -1.133,0.191 -1.463,0.573c-0.329,0.382 -0.573,1.001 -0.731,1.858c-0.158,0.856 -0.237,2.042 -0.237,3.558l0,1.799l3.36,0l0,1.66Z" style="fill:#fff;fill-rule:nonzero;"/><path id="path3360" d="M215.402,253.15c0.672,0 1.298,0.093 1.877,0.277l-0.454,1.878c-0.475,-0.198 -0.962,-0.297 -1.463,-0.297c-0.725,0 -1.4,0.373 -2.026,1.117c-0.626,0.745 -1.117,1.782 -1.472,3.113c-0.356,1.331 -0.534,2.801 -0.534,4.408l0,11.366l-1.878,0l0,-21.446l1.542,0l0.198,3.755l0.138,0c1.001,-2.78 2.359,-4.171 4.072,-4.171Z" style="fill:#fff;fill-rule:nonzero;"/><path id="path3362" d="M226.609,275.407c-2.267,0 -4.009,-0.965 -5.228,-2.896c-1.219,-1.93 -1.828,-4.622 -1.828,-8.074c0,-3.663 0.543,-6.46 1.63,-8.391c1.087,-1.93 2.652,-2.896 4.695,-2.896c1.779,0 3.182,0.847 4.21,2.54c1.028,1.694 1.542,3.977 1.542,6.849l0,1.74l-10.16,0c0.026,3.123 0.468,5.462 1.324,7.017c0.857,1.555 2.155,2.332 3.894,2.332c1.344,0 2.761,-0.441 4.25,-1.324l0,1.818c-1.371,0.857 -2.814,1.285 -4.329,1.285Zm-0.85,-20.557c-2.583,0 -3.999,2.576 -4.25,7.729l8.243,0c0,-2.359 -0.359,-4.237 -1.077,-5.633c-0.719,-1.397 -1.69,-2.096 -2.916,-2.096Z" style="fill:#fff;fill-rule:nonzero;"/><path id="path3364" d="M242.501,275.407c-2.267,0 -4.009,-0.965 -5.228,-2.896c-1.219,-1.93 -1.829,-4.622 -1.829,-8.074c0,-3.663 0.544,-6.46 1.631,-8.391c1.087,-1.93 2.652,-2.896 4.694,-2.896c1.779,0 3.183,0.847 4.211,2.54c1.027,1.694 1.541,3.977 1.541,6.849l0,1.74l-10.159,0c0.026,3.123 0.467,5.462 1.324,7.017c0.857,1.555 2.154,2.332 3.894,2.332c1.344,0 2.761,-0.441 4.25,-1.324l0,1.818c-1.371,0.857 -2.814,1.285 -4.329,1.285Zm-0.85,-20.557c-2.583,0 -3.999,2.576 -4.25,7.729l8.243,0c0,-2.359 -0.359,-4.237 -1.078,-5.633c-0.718,-1.397 -1.69,-2.096 -2.915,-2.096Z" style="fill:#fff;fill-rule:nonzero;"/><path id="path3366" d="M257.543,275.407c-4.164,0 -6.246,-3.696 -6.246,-11.089c0,-3.637 0.52,-6.407 1.561,-8.311c1.041,-1.904 2.576,-2.857 4.606,-2.857c0.962,0 1.874,0.277 2.737,0.831c0.863,0.553 1.552,1.317 2.066,2.292l0.158,0l-0.079,-2.391l0,-9.626l1.878,0l0,30.756l-1.542,0l-0.158,-3.005l-0.178,0c-0.514,1.094 -1.179,1.934 -1.996,2.52c-0.817,0.587 -1.753,0.88 -2.807,0.88l0,0Zm0.118,-1.641c1.503,0 2.659,-0.695 3.469,-2.085c0.811,-1.39 1.216,-3.436 1.216,-6.137l0,-1.226c0,-3.241 -0.392,-5.617 -1.176,-7.125c-0.784,-1.509 -1.98,-2.264 -3.588,-2.264c-1.541,0 -2.648,0.808 -3.32,2.422c-0.672,1.614 -1.009,3.95 -1.008,7.007c-0.001,3.083 0.349,5.422 1.047,7.017c0.698,1.594 1.819,2.391 3.36,2.391Z" style="fill:#fff;fill-rule:nonzero;"/><path id="path3368" d="M282.013,264.239c0,3.611 -0.57,6.375 -1.71,8.292c-1.14,1.917 -2.77,2.876 -4.892,2.876c-2.095,0 -3.699,-0.959 -4.813,-2.876c-1.113,-1.917 -1.67,-4.681 -1.67,-8.292c0,-7.392 2.187,-11.089 6.562,-11.089c2.056,0 3.657,0.969 4.803,2.906c1.147,1.937 1.72,4.665 1.72,8.183Zm-11.128,0c0,3.097 0.369,5.436 1.107,7.017c0.738,1.581 1.891,2.372 3.459,2.372c3.07,0 4.605,-3.13 4.605,-9.389c0,-6.206 -1.535,-9.31 -4.605,-9.31c-1.608,0 -2.771,0.778 -3.489,2.333c-0.718,1.555 -1.077,3.88 -1.077,6.977Z" style="fill:#fff;fill-rule:nonzero;"/><path id="path3370" d="M305.001,275.012l0,-14.607c0,-3.598 -1.054,-5.397 -3.163,-5.397c-1.449,0 -2.494,0.63 -3.133,1.888c-0.639,1.259 -0.958,3.113 -0.958,5.564l0,12.552l-1.858,0l0,-14.607c0,-1.819 -0.257,-3.173 -0.771,-4.062c-0.514,-0.89 -1.311,-1.335 -2.392,-1.335c-1.423,0 -2.457,0.646 -3.103,1.938c-0.646,1.291 -0.969,3.386 -0.969,6.285l0,11.781l-1.877,0l0,-21.446l1.581,0l0.158,2.984l0.178,0c0.856,-2.266 2.312,-3.4 4.368,-3.4c1.186,0 2.122,0.317 2.807,0.949c0.685,0.633 1.179,1.555 1.482,2.767c0.514,-1.317 1.147,-2.266 1.898,-2.846c0.751,-0.58 1.726,-0.87 2.925,-0.87c1.621,0 2.807,0.623 3.558,1.868c0.751,1.246 1.127,3.239 1.127,5.98l0,14.014l-1.858,0Z" style="fill:#fff;fill-rule:nonzero;"/></g><g id="g3406"><path id="flowRoot3023-5-6-2-5-9-7-6-0" d="M61.882,284.046c-3.953,0 -6.877,1.363 -8.767,4.145c-1.89,2.782 -2.82,7 -2.82,12.641c0,5.391 0.994,9.484 2.99,12.266c1.995,2.782 4.915,4.18 8.733,4.18c2.436,0 4.645,-0.622 6.66,-1.869l0,-6.762c-2.092,1.343 -4.096,2.039 -6.015,2.039c-1.611,0 -2.756,-0.84 -3.466,-2.481c-0.71,-1.64 -1.087,-4.122 -1.087,-7.441c0,-3.396 0.368,-5.914 1.087,-7.612c0.72,-1.698 1.903,-2.548 3.534,-2.548c1.228,0 2.621,0.453 4.214,1.393l2.208,-5.947c-1.036,-0.652 -2.229,-1.149 -3.533,-1.495c-1.305,-0.345 -2.549,-0.509 -3.738,-0.509Zm22.766,0c-3.914,0 -6.968,1.457 -9.174,4.383c-2.207,2.926 -3.296,6.965 -3.296,12.165c0,3.377 0.478,6.346 1.495,8.869c1.017,2.523 2.469,4.433 4.349,5.776c1.88,1.343 4.069,2.039 6.524,2.039c3.876,0 6.915,-1.458 9.141,-4.383c2.225,-2.926 3.33,-7.044 3.33,-12.301c0,-5.084 -1.095,-9.114 -3.33,-12.097c-2.235,-2.983 -5.259,-4.451 -9.039,-4.451Zm32.723,0c-1.727,0 -3.234,0.388 -4.519,1.223c-1.232,0.799 -2.169,1.907 -2.855,3.296l0,-3.976l-7.577,0l0,32.111l7.645,0l0,-15.393c0,-3.894 0.388,-6.684 1.156,-8.325c0.767,-1.64 1.985,-2.446 3.635,-2.446c1.247,0 2.128,0.577 2.685,1.767c0.556,1.189 0.849,2.945 0.849,5.267l0,19.13l7.714,0l0,-20.931c0,-3.838 -0.726,-6.738 -2.175,-8.733c-1.449,-1.996 -3.642,-2.99 -6.558,-2.99l0,0Zm23.99,0c-3.262,0 -5.843,0.786 -7.714,2.378c-1.87,1.593 -2.82,3.732 -2.82,6.456c0,2.13 0.522,3.975 1.529,5.539c1.007,1.564 2.674,3.036 4.995,4.417c1.746,1.056 2.95,1.956 3.602,2.685c0.652,0.729 0.985,1.604 0.985,2.582c0,0.96 -0.328,1.726 -0.951,2.311c-0.624,0.585 -1.529,0.883 -2.718,0.883c-1.075,0 -2.328,-0.267 -3.738,-0.747c-1.41,-0.48 -2.649,-1.072 -3.704,-1.801l0,6.66c2.072,1.247 4.718,1.869 7.883,1.869c3.569,0 6.255,-0.895 8.088,-2.65c1.832,-1.756 2.752,-4.179 2.752,-7.306c0,-1.439 -0.238,-2.697 -0.68,-3.772c-0.441,-1.074 -1.063,-2.044 -1.869,-2.888c-0.805,-0.844 -2.184,-1.884 -4.179,-3.092c-1.65,-0.998 -2.794,-1.809 -3.398,-2.481c-0.604,-0.671 -0.884,-1.447 -0.884,-2.311c0,-0.748 0.225,-1.384 0.714,-1.902c0.489,-0.518 1.23,-0.782 2.209,-0.782c1.554,0 3.35,0.552 5.402,1.665l2.515,-5.471c-2.513,-1.496 -5.18,-2.242 -8.019,-2.242Zm23.854,0c-3.742,0 -6.676,1.477 -8.767,4.451c-2.091,2.974 -3.126,7.107 -3.126,12.403c0,5.218 1.154,9.247 3.466,12.096c2.312,2.85 5.47,4.282 9.48,4.282c3.434,0 6.379,-0.731 8.835,-2.209l0,-6.32c-2.61,1.554 -5.152,2.345 -7.646,2.345c-1.957,0 -3.508,-0.716 -4.621,-2.107c-1.113,-1.391 -1.675,-3.496 -1.733,-6.354l15.393,0l0,-4.112c0,-4.585 -1.01,-8.127 -3.024,-10.67c-2.015,-2.542 -4.766,-3.805 -8.257,-3.805Zm30.072,0c-1.324,0 -2.502,0.428 -3.5,1.291c-0.998,0.863 -1.908,2.301 -2.752,4.315l-0.272,0l-0.85,-5.029l-6.32,0l0,32.077l7.679,0l0,-16.514c0,-2.801 0.498,-4.92 1.496,-6.388c0.997,-1.468 2.42,-2.209 4.281,-2.209c0.863,0 1.569,0.114 2.107,0.306l0.883,-7.442c-0.902,-0.287 -1.812,-0.407 -2.752,-0.407Zm-30.14,5.878c1.17,0 2.081,0.592 2.752,1.801c0.672,1.209 1.049,2.994 1.087,5.335l-7.781,0c0.115,-2.437 0.513,-4.242 1.223,-5.403c0.71,-1.161 1.625,-1.733 2.719,-1.733Zm-80.567,0.68c1.593,0 2.762,0.821 3.5,2.48c0.739,1.66 1.122,4.152 1.122,7.51c0,6.753 -1.552,10.126 -4.622,10.126c-1.611,0 -2.771,-0.841 -3.5,-2.549c-0.729,-1.707 -1.087,-4.239 -1.087,-7.577c0,-3.358 0.358,-5.85 1.087,-7.51c0.729,-1.659 1.889,-2.48 3.5,-2.48Z" style="fill:#fff;fill-rule:nonzero;"/><path id="flowRoot3023-5-6-2-5-9-7-1-8-0" d="M242.179,284.046c-3.741,0 -7.213,0.975 -10.398,2.99l2.651,5.301c2.494,-1.497 4.707,-2.243 6.626,-2.243c2.59,0 3.873,1.492 3.873,4.485l0,2.311l-4.247,0.17c-3.684,0.173 -6.474,1.078 -8.325,2.718c-1.852,1.641 -2.752,4.167 -2.752,7.544c0,3.146 0.652,5.608 2.004,7.373c1.353,1.766 3.213,2.617 5.573,2.617c1.842,0 3.379,-0.344 4.587,-1.053c1.209,-0.71 2.368,-1.994 3.5,-3.874l0.17,0l1.529,4.349l5.607,0l0,-21.509c0,-3.569 -0.876,-6.344 -2.65,-8.291c-1.775,-1.947 -4.352,-2.888 -7.748,-2.888Zm31.567,0.034c-1.726,0 -3.233,0.422 -4.519,1.257c-1.265,0.821 -2.233,1.954 -2.922,3.398l0,-4.112l-7.578,0l0,17.228l0.034,0l0,14.883l7.68,0l0,-15.393c0,-3.894 0.354,-6.65 1.121,-8.291c0.767,-1.64 1.986,-2.446 3.636,-2.446c1.247,0 2.162,0.577 2.718,1.767c0.557,1.189 0.816,2.945 0.816,5.267l0,19.096l7.713,0l0,-20.897c0,-3.838 -0.726,-6.772 -2.174,-8.767c-1.449,-1.996 -3.608,-2.99 -6.525,-2.99l0,0Zm25.417,0c-3.952,0 -6.843,1.397 -8.732,4.179c-1.89,2.782 -2.855,7 -2.855,12.641c0,5.391 0.995,9.484 2.99,12.266c1.996,2.782 4.915,4.146 8.733,4.146c2.437,0 4.646,-0.622 6.66,-1.869l0,-6.728c-2.091,1.343 -4.095,2.005 -6.014,2.005c-1.612,0 -2.756,-0.806 -3.466,-2.447c-0.71,-1.64 -1.087,-4.122 -1.087,-7.441c0,-3.396 0.368,-5.948 1.087,-7.646c0.719,-1.698 1.903,-2.548 3.534,-2.548c1.228,0 2.621,0.487 4.213,1.427l2.209,-5.981c-1.036,-0.652 -2.195,-1.149 -3.5,-1.495c-1.304,-0.345 -2.582,-0.509 -3.772,-0.509Zm-97.386,0.611l8.359,32.043l9.48,0l8.427,-32.043l-7.951,0c-2.801,12.759 -4.264,19.588 -4.417,20.49c-0.154,0.902 -0.332,1.882 -0.476,2.956c-0.144,1.075 -0.219,1.905 -0.238,2.481l-0.102,0c-0.057,-0.729 -0.202,-1.908 -0.441,-3.568c-0.24,-1.66 -0.439,-2.942 -0.612,-3.806l-4.112,-18.553l-7.917,0l0,0Zm43.154,17.024l0,2.718c0,2.092 -0.422,3.773 -1.257,5.03c-0.834,1.256 -1.963,1.868 -3.364,1.868c-1.88,0 -2.82,-1.328 -2.82,-3.975c0,-1.785 0.408,-3.108 1.223,-4.01c0.816,-0.902 2.094,-1.399 3.84,-1.495l2.378,-0.136Z" style="fill:#fff;fill-rule:nonzero;"/><path id="path3373" d="M309.785,284.029l7.943,0l4.432,18.102c0.441,1.612 0.796,3.866 1.065,6.763l0.172,0c0.02,-0.46 0.106,-1.281 0.259,-2.461c0.154,-1.18 0.279,-2.105 0.375,-2.777c0.095,-0.671 1.419,-7.214 3.971,-19.627l8.058,0l-9.18,34.362c-1.113,4.221 -2.59,7.252 -4.432,9.094c-1.842,1.842 -4.298,2.763 -7.368,2.763c-1.515,0 -2.868,-0.163 -4.058,-0.489l0,-6.418c0.787,0.23 1.67,0.345 2.648,0.345c2.571,0 4.259,-1.688 5.065,-5.065l0.547,-2.014l-9.497,-32.578Z" style="fill:#fff;fill-rule:nonzero;"/></g></g></svg>