<svg xmlns="http://www.w3.org/2000/svg" viewBox="0 0 1885 500" width="1885" height="500" fill="none"><path fill="url(#paint0_linear_2704_304)" d="M177.084 16.8269 21.6348 172.276 177.084 327.725l155.449-155.449L177.084 16.8269Z"/><path fill="url(#paint1_linear_2704_304)" d="M332.541 172.273 177.092 327.722l155.449 155.45 155.449-155.45-155.449-155.449Z"/><path fill="url(#paint2_linear_2704_304)" d="M177.087 16.8282 332.533 172.274 487.986 16.8282H177.087Z"/><path fill="url(#paint3_linear_2704_304)" d="M177.087 327.727 21.6348 483.173H332.533L177.087 327.727Z"/><path fill="url(#paint4_linear_2704_304)" d="M177.087 327.727 21.6348 483.173H332.533L177.087 327.727Z"/><path d="M1250.63 207.053c-12.72 0-23.07 3.343-31.04 10.023-5.43 4.556-9.51 10.01-12.25 16.363l-2.3-23.473h-37.18v159.386h39.45v-77.591c0-15.516 4.09-27.105 12.28-34.753 8.19-7.649 19.51-11.48 33.95-11.48h14.55v-36.531c-3.23-.86-6.25-1.399-9.05-1.617-2.81-.211-5.61-.327-8.41-.327ZM876.252 204.788c-11.64 0-21.932 2.317-30.877 6.95-8.945 4.632-15.901 10.831-20.855 18.589V128.814h-39.765v240.539h39.444v-87.294c0-7.97 1.566-15.086 4.691-21.342 3.118-6.25 7.649-11.153 13.578-14.708 5.922-3.554 12.981-5.332 21.175-5.332 6.68 0 12.5 1.457 17.46 4.364 4.96 2.913 8.836 7.276 11.64 13.096 2.798 5.82 4.203 13.257 4.203 22.311v88.911h39.444v-98.286c0-20.476-5.121-36.639-15.355-48.498-10.242-11.851-25.167-17.78-44.777-17.78l-.006-.007ZM692.938 236.795l-37.179-8.406c-9.914-2.368-17.191-5.981-21.824-10.832-4.639-4.851-6.949-11.479-6.949-19.885 0-9.914 3.824-17.73 11.48-23.441 7.648-5.711 17.832-8.566 30.55-8.566 11.64 0 20.906 2.862 27.804 8.566 6.898 5.711 10.555 13.636 10.992 23.762h41.381c-.43-14.226-3.933-26.508-10.51-36.852-6.577-10.35-15.734-18.32-27.477-23.928-11.749-5.602-25.596-8.406-41.548-8.406-15.953 0-31.199 2.965-43.808 8.887-12.609 5.936-22.471 14.175-29.581 24.737-7.116 10.562-10.665 22.741-10.665 36.531 0 18.319 5.172 33.136 15.516 44.455 10.344 11.313 25.539 19.128 45.585 23.44l37.506 8.406c9.696 1.938 16.696 5.333 21.015 10.184 4.312 4.851 6.468 11.37 6.468 19.558 0 9.484-4.043 17.081-12.122 22.792-8.085 5.711-19.025 8.567-32.815 8.567-13.789 0-23.556-2.856-31.198-8.567-7.655-5.711-11.589-13.526-11.801-23.44h-41.381c.43 14.014 4.145 26.187 11.152 36.537 7.001 10.344 16.754 18.378 29.26 24.082 12.5 5.705 27.047 8.566 43.647 8.566 17.46 0 32.7-2.964 45.752-8.893 13.039-5.923 23.113-14.387 30.229-25.378 7.116-10.992 10.671-23.704 10.671-38.148 0-17.672-4.96-31.731-14.874-42.19-9.914-10.453-25.006-17.833-45.264-22.145l-.012.007ZM1095.28 215.78c-12.82-7.116-27.53-10.671-44.13-10.671-16.59 0-31.03 3.555-43.96 10.671-12.933 7.116-23.071 16.972-30.393 29.581-7.328 12.609-10.992 27.214-10.992 43.807 0 16.594 3.664 31.199 10.992 43.808 7.322 12.609 17.46 22.471 30.393 29.581 12.93 7.116 27.58 10.671 43.96 10.671 16.39 0 31.31-3.555 44.13-10.671 12.82-7.116 22.9-16.972 30.23-29.581 7.33-12.609 10.99-27.207 10.99-43.808 0-16.6-3.67-31.198-10.99-43.807-7.33-12.609-17.41-22.471-30.23-29.581Zm-4.04 98.934c-3.88 7.327-9.27 13.045-16.16 17.132-6.9 4.094-14.88 6.141-23.93 6.141-9.04 0-16.97-2.047-23.76-6.141-6.79-4.094-12.18-9.805-16.16-17.132-3.99-7.328-5.98-15.843-5.98-25.539 0-9.696 1.99-18.48 5.98-25.706 3.98-7.219 9.37-12.878 16.16-16.972 6.79-4.094 14.71-6.141 23.76-6.141 9.06 0 17.03 2.053 23.93 6.141 6.89 4.094 12.28 9.753 16.16 16.972 3.88 7.226 5.82 15.792 5.82 25.706s-1.94 18.217-5.82 25.539ZM1861.01 209.639h-30.71v-49.787h-39.45v49.787h-30.71v32.976h30.71v126.731h39.45V242.615h30.71v-32.976ZM1355.69 159.852h-39.44v49.787h-30.71v32.976h30.71v126.731h39.44V242.615h30.72v-32.976h-30.72v-49.787ZM1695.81 293.372c0 15.092-3.02 26.347-9.06 33.784-6.03 7.437-15.31 11.159-27.8 11.159-10.99 0-19.4-3.344-25.22-10.023-5.82-6.68-8.72-17.563-8.72-32.655v-85.998h-39.45v99.903c0 19.398 5.17 34.913 15.52 46.553 10.34 11.64 24.68 17.46 43 17.46 10.77 0 20.9-2.374 30.39-7.116 9.48-4.735 16.59-10.883 21.34-18.429l2.9 21.342h36.54V209.639h-39.45v83.733h.01ZM1505.22 331.198c-6.57 4.742-14.82 7.117-24.73 7.117-8.4 0-15.68-1.99-21.82-5.981-6.14-3.985-10.83-9.644-14.07-16.972-3.23-7.328-4.85-16.055-4.85-26.187 0-10.132 1.72-18.859 5.17-26.187 3.45-7.328 8.36-12.981 14.71-16.972 6.35-3.985 13.63-5.981 21.83-5.981 9.48 0 17.4 2.323 23.76 6.95 6.36 4.639 10.72 11.479 13.09 20.533h39.45c-2.16-19.179-10.19-34.432-24.09-45.745-13.89-11.312-31.73-16.972-53.5-16.972-15.74 0-29.59 3.613-41.55 10.831-11.96 7.226-21.34 17.191-28.13 29.909-6.79 12.718-10.18 27.271-10.18 43.647 0 16.375 3.28 31.846 9.86 44.455 6.57 12.609 15.9 22.42 27.97 29.421 12.07 7.001 26.18 10.504 42.35 10.504 14 0 26.5-2.643 37.5-7.918 10.99-5.281 19.99-12.609 27-21.984 7-9.375 11.36-20.309 13.09-32.815h-39.76c-2.16 8.842-6.52 15.631-13.1 20.367v-.02Z" class="text"/><defs><linearGradient id="paint0_linear_2704_304" x1="253.688" x2="106.988" y1="248.119" y2="102.882" gradientUnits="userSpaceOnUse"><stop stop-color="#3B95C9"/><stop offset="1" stop-color="#59B1E3"/></linearGradient><linearGradient id="paint1_linear_2704_304" x1="265.845" x2="408.143" y1="257.596" y2="407.228" gradientUnits="userSpaceOnUse"><stop stop-color="#59B1E3"/><stop offset="1" stop-color="#9BD0F0"/></linearGradient><linearGradient id="paint2_linear_2704_304" x1="461.747" x2="170.831" y1="-16.1091" y2="139.459" gradientUnits="userSpaceOnUse"><stop stop-color="#59B1E3"/><stop offset="1" stop-color="#9BD0F0"/></linearGradient><linearGradient id="paint3_linear_2704_304" x1="341.69" x2="50.8182" y1="352.714" y2="529.265" gradientUnits="userSpaceOnUse"><stop stop-color="#59B1E3"/><stop offset="1" stop-color="#9BD0F0"/></linearGradient><linearGradient id="paint4_linear_2704_304" x1="253.793" x2="168.707" y1="405.145" y2="491.701" gradientUnits="userSpaceOnUse"><stop stop-color="#3B95C9"/><stop offset="1" stop-color="#9BD0F0" stop-opacity="0"/></linearGradient><style id="text">.text{fill:#222}@media (prefers-color-scheme:dark){.text{fill:#fff}}</style></defs></svg>
