<svg xmlns="http://www.w3.org/2000/svg" width="166.69" height="14.75"><path style="fill:var(--color-logo, #274357)" d="M162.56 6c-1.58-.57-3-1-3.08-1.84s.77-1 1.62-1a13 13 0 0 1 3.71.94.37.37 0 0 0 .49-.18l.91-2.11a.4.4 0 0 0-.18-.51A12.08 12.08 0 0 0 160.9 0c-2.72 0-4.69 1.6-4.69 4.28 0 3 2.58 3.75 4.63 4.42 1.33.43 2.43.82 2.43 1.72 0 .72-.89 1.23-2 1.23a9.49 9.49 0 0 1-3.73-1.06.36.36 0 0 0-.48.16L156 12.84a.37.37 0 0 0 .16.49 10.81 10.81 0 0 0 5.29 1.4c3.1 0 5.25-2 5.25-4.45s-2.18-3.6-4.14-4.28ZM145.5 3.15a.37.37 0 0 0 0-.53A7.09 7.09 0 0 0 140.07 0c-5.39 0-7 4.36-7 7.35s1.66 7.38 7 7.38a7.47 7.47 0 0 0 5.33-2.32.39.39 0 0 0 0-.55L144 10.2a.36.36 0 0 0-.51 0 5.85 5.85 0 0 1-3.43 1.45c-3.3 0-3.77-3.17-3.77-4.24s.47-4.26 3.75-4.26a5.17 5.17 0 0 1 3.28 1.62.36.36 0 0 0 .51 0ZM121.89.59a.37.37 0 0 0-.37-.37H119a.37.37 0 0 0-.37.37v13.6a.36.36 0 0 0 .37.37h2.51a.36.36 0 0 0 .37-.37Zm-20.83 13.6a.37.37 0 0 0 .37.37H104a.36.36 0 0 0 .37-.37V3.28h3.39a.37.37 0 0 0 .36-.37V.59a.37.37 0 0 0-.36-.37h-10a.37.37 0 0 0-.36.37v2.32a.37.37 0 0 0 .36.37h3.35v10.91ZM86.82.59a.38.38 0 0 0-.37-.37h-2.51a.38.38 0 0 0-.37.37v13.6a.36.36 0 0 0 .37.37h2.51a.37.37 0 0 0 .37-.37Z"/><path fill="#f66" d="M67.74.59a.36.36 0 0 0-.36-.36h-2.54a.36.36 0 0 0-.36.36v13.6a.36.36 0 0 0 .36.37h7.66a.36.36 0 0 0 .37-.37v-2.31a.37.37 0 0 0-.37-.37h-4.76V.59Zm-18.46 7.6L54 .53a.2.2 0 0 0-.19-.3h-2.92a.63.63 0 0 0-.55.3L47.66 5 45 .53a.67.67 0 0 0-.55-.3h-2.87a.2.2 0 0 0-.18.3l4.66 7.71v6a.37.37 0 0 0 .37.37h2.49a.37.37 0 0 0 .37-.37v-6Zm-24.9 6a.37.37 0 0 0 .37.37h2.53a.37.37 0 0 0 .37-.37V3.28H31a.37.37 0 0 0 .36-.37V.59A.36.36 0 0 0 31 .23H21a.36.36 0 0 0-.36.36v2.32a.37.37 0 0 0 .36.37h3.35v10.91ZM6.6 6c-1.6-.59-3-1-3.08-1.86s.77-1 1.62-1A13.2 13.2 0 0 1 8.85 4a.36.36 0 0 0 .49-.18l.91-2.11a.4.4 0 0 0-.18-.51A12.05 12.05 0 0 0 4.94 0C2.22 0 .26 1.6.26 4.28c0 3 2.57 3.75 4.62 4.42 1.34.43 2.43.82 2.43 1.72 0 .72-.89 1.23-1.94 1.23a9.4 9.4 0 0 1-3.73-1.06.37.37 0 0 0-.49.16L0 12.84a.36.36 0 0 0 .16.49 10.75 10.75 0 0 0 5.29 1.4c3.1 0 5.25-2 5.25-4.45S8.57 6.68 6.6 6Z"/></svg>