<svg width="136" height="25" viewBox="0 0 136 25" fill="none" xmlns="http://www.w3.org/2000/svg">
<path fill-rule="evenodd" clip-rule="evenodd" d="M14.0438 3.64742C13.7874 3.3901 13.3717 3.3901 13.1153 3.64742L4.75919 12.034C4.5028 12.2913 4.5028 12.7085 4.75919 12.9658L13.1153 21.3524C13.3717 21.6097 13.7874 21.6097 14.0438 21.3524L22.3999 12.9658C22.6563 12.7085 22.6563 12.2913 22.3999 12.034L14.0438 3.64742ZM14.508 0.385981C13.9952 -0.12866 13.1639 -0.12866 12.6511 0.385981L1.50958 11.5681C0.996807 12.0827 0.996807 12.9171 1.50958 13.4317L12.6511 24.6138C13.1639 25.1285 13.9952 25.1285 14.508 24.6138L25.6495 13.4317C26.1623 12.9171 26.1623 12.0827 25.6495 11.5681L14.508 0.385981Z" fill="#220A33"/>
<mask id="mask0_3284_8615" style="mask-type:alpha" maskUnits="userSpaceOnUse" x="1" y="0" width="26" height="25">
<path fill-rule="evenodd" clip-rule="evenodd" d="M14.0438 3.64742C13.7874 3.3901 13.3717 3.3901 13.1153 3.64742L4.75919 12.034C4.5028 12.2913 4.5028 12.7085 4.75919 12.9658L13.1153 21.3524C13.3717 21.6097 13.7874 21.6097 14.0438 21.3524L22.3999 12.9658C22.6563 12.7085 22.6563 12.2913 22.3999 12.034L14.0438 3.64742ZM14.508 0.385981C13.9952 -0.12866 13.1639 -0.12866 12.6511 0.385981L1.50958 11.5681C0.996807 12.0827 0.996807 12.9171 1.50958 13.4317L12.6511 24.6138C13.1639 25.1285 13.9952 25.1285 14.508 24.6138L25.6495 13.4317C26.1623 12.9171 26.1623 12.0827 25.6495 11.5681L14.508 0.385981Z" fill="#220A33"/>
</mask>
<g mask="url(#mask0_3284_8615)">
<g filter="url(#filter0_d_3284_8615)">
<path d="M21.992 0.386164C22.5047 -0.128477 23.3361 -0.128477 23.8489 0.386164L34.9904 11.5682C35.5032 12.0829 35.5032 12.9173 34.9904 13.4319L23.8489 24.614C23.3361 25.1287 22.5047 25.1287 21.992 24.614L10.8505 13.4319C10.3377 12.9173 10.3377 12.0829 10.8505 11.5682L21.992 0.386164Z" fill="black"/>
</g>
</g>
<path d="M21.992 0.386164C22.5047 -0.128477 23.3361 -0.128477 23.8489 0.386164L34.9904 11.5682C35.5032 12.0829 35.5032 12.9173 34.9904 13.4319L23.8489 24.614C23.3361 25.1287 22.5047 25.1287 21.992 24.614L10.8505 13.4319C10.3377 12.9173 10.3377 12.0829 10.8505 11.5682L21.992 0.386164Z" fill="url(#paint0_linear_3284_8615)"/>
<path d="M135.478 19.2344C135.478 19.3851 135.356 19.5073 135.205 19.5073H132.745C132.594 19.5073 132.472 19.3851 132.472 19.2344V5.20056C132.472 5.04984 132.594 4.92766 132.745 4.92766H135.205C135.356 4.92766 135.478 5.04984 135.478 5.20056V19.2344Z" fill="#220A33"/>
<path fill-rule="evenodd" clip-rule="evenodd" d="M124.414 19.802C122.312 19.802 121.091 18.6624 121.091 16.9333C121.091 15.2041 122.312 13.9466 125.318 13.6322L127.263 13.3964C127.735 13.3571 128.049 13.082 128.049 12.6694C128.049 11.8048 127.302 11.235 126.222 11.235C125.12 11.235 124.324 11.9416 124.109 12.8176C124.072 12.9697 123.93 13.0816 123.775 13.0577L121.385 12.6886C121.243 12.6667 121.141 12.5383 121.163 12.3966C121.471 10.4455 123.373 9.05397 126.143 9.05397C129.091 9.05397 130.997 10.6063 130.997 13.1213V19.2344C130.997 19.3851 130.874 19.5073 130.724 19.5073H128.786C128.664 19.5073 128.557 19.4263 128.523 19.309L128.091 17.7887C128.09 17.7825 128.084 17.7782 128.077 17.7782C128.072 17.7782 128.067 17.7811 128.065 17.7858C127.415 18.9803 126.1 19.802 124.414 19.802ZM125.554 17.7389C126.968 17.7389 127.99 16.7564 127.99 15.4006V15.2933C127.99 15.1305 127.849 15.0039 127.687 15.0221L126.065 15.2041C124.394 15.4006 123.825 15.9312 123.825 16.5796C123.825 17.2673 124.552 17.7389 125.554 17.7389Z" fill="#220A33"/>
<path d="M109.855 14.4771C109.855 17.6996 112.036 19.9003 115.278 19.9003C118.05 19.9003 120.161 18.25 120.549 15.7997C120.572 15.6545 120.468 15.5219 120.322 15.5014L118.071 15.1843C117.919 15.1629 117.78 15.2715 117.749 15.4219C117.498 16.6456 116.548 17.4638 115.377 17.4638C113.923 17.4638 112.862 16.2652 112.842 14.4771C112.842 12.6891 113.824 11.4905 115.18 11.4905C116.123 11.4905 116.949 12.0933 117.241 13.2216C117.281 13.377 117.436 13.4796 117.592 13.4394L119.785 12.8712C119.925 12.8351 120.013 12.6963 119.978 12.5566C119.452 10.4549 117.541 9.05397 115.102 9.05397C111.977 9.05397 109.855 11.2547 109.855 14.4771Z" fill="#220A33"/>
<path d="M108.635 19.2344C108.635 19.3851 108.513 19.5073 108.362 19.5073H105.921C105.771 19.5073 105.648 19.3851 105.648 19.2344V9.71986C105.648 9.56914 105.771 9.44695 105.921 9.44695H108.362C108.513 9.44695 108.635 9.56914 108.635 9.71986V19.2344Z" fill="#220A33"/>
<path d="M94.6908 16.6416C94.9674 18.7181 96.9923 19.861 99.5977 19.861C102.486 19.861 104.49 18.5248 104.49 16.442C104.49 14.7719 103.41 13.868 100.875 13.4161L99.3816 13.1606C98.183 12.9445 97.6721 12.6301 97.6721 12.1192C97.6918 11.5101 98.3992 11.0189 99.3423 11.0189C100.3 11.0189 101.042 11.4509 101.253 12.151C101.298 12.3009 101.437 12.4146 101.592 12.3919L103.592 12.0997C103.741 12.0779 103.845 11.939 103.81 11.7926C103.421 10.172 101.696 9.09326 99.4406 9.09326C96.8665 9.09326 95.1177 10.3508 95.1177 12.3943C95.1177 14.0448 96.0609 14.8898 98.2813 15.2434L99.7746 15.4792C101.189 15.715 101.798 16.0687 101.798 16.6778C101.798 17.3655 100.895 17.8568 99.7746 17.8568C98.5375 17.8568 97.5622 17.2842 97.3262 16.363C97.2883 16.2148 97.1541 16.1025 97.002 16.1196L94.9235 16.354C94.7791 16.3703 94.6717 16.4976 94.6908 16.6416Z" fill="#220A33"/>
<path d="M80.437 19.2344C80.437 19.3851 80.3149 19.5073 80.1641 19.5073H77.7036C77.5529 19.5073 77.4307 19.3851 77.4307 19.2344V9.71985C77.4307 9.56913 77.5529 9.44695 77.7036 9.44695H79.6339C79.7594 9.44695 79.8687 9.53252 79.8989 9.65434L80.297 11.264C80.2984 11.2701 80.3039 11.2743 80.3101 11.2743C80.3156 11.2743 80.3205 11.271 80.3226 11.2659C80.8749 9.93488 82.2087 9.15221 83.7577 9.15221C85.3259 9.15221 86.366 9.91482 86.8002 11.3425C86.8021 11.3486 86.8077 11.3529 86.8141 11.3529C86.8196 11.3529 86.8246 11.3498 86.8271 11.345C87.5941 9.85707 88.9282 9.15221 90.4581 9.15221C92.4427 9.15221 93.6216 10.4884 93.6216 12.7677V19.2344C93.6216 19.3851 93.4994 19.5073 93.3487 19.5073H90.8882C90.7375 19.5073 90.6153 19.3851 90.6153 19.2344V13.4357C90.6153 12.3354 90.0062 11.6869 89.0041 11.6869C87.7465 11.6869 87.0195 12.6105 87.0195 13.9859V19.2344C87.0195 19.3851 86.8973 19.5073 86.7466 19.5073H84.3057C84.155 19.5073 84.0328 19.3851 84.0328 19.2344V13.4357C84.0328 12.3354 83.4237 11.6869 82.402 11.6869C81.1641 11.6869 80.437 12.6105 80.437 13.9859V19.2344Z" fill="#220A33"/>
<path d="M75.3307 19.5073C75.4814 19.5073 75.6036 19.3851 75.6036 19.2344V9.71986C75.6036 9.56914 75.4814 9.44695 75.3307 9.44695H72.8898C72.7391 9.44695 72.6169 9.56914 72.6169 9.71986V19.2344C72.6169 19.3851 72.7391 19.5073 72.8898 19.5073H75.3307Z" fill="#220A33"/>
<path d="M63.9746 19.2344C63.9746 19.3851 63.8524 19.5073 63.7017 19.5073H61.2411C61.0904 19.5073 60.9682 19.3851 60.9682 19.2344V5.72453C60.9682 5.57381 61.0904 5.45163 61.2411 5.45163H63.7017C63.8524 5.45163 63.9746 5.57381 63.9746 5.72453V11.262C63.9746 11.2688 63.9801 11.2743 63.9869 11.2743C63.9914 11.2743 63.9956 11.2718 63.9977 11.2678C64.7252 9.91608 65.9617 9.15222 67.5507 9.15222C69.6139 9.15222 70.8714 10.4294 70.8714 12.5712V19.2344C70.8714 19.3851 70.7492 19.5073 70.5985 19.5073H68.138C67.9873 19.5073 67.8651 19.3851 67.8651 19.2344V13.4947C67.8651 12.355 67.2167 11.6477 66.1753 11.6477C64.8784 11.6477 63.9746 12.5712 63.9746 13.9466V19.2344Z" fill="#220A33"/>
<path d="M46.2985 19.5073C46.4239 19.5073 46.5331 19.4219 46.5634 19.3002L49.1794 8.77826C49.1822 8.76708 49.1922 8.75923 49.2038 8.75923C49.2153 8.75923 49.2254 8.76712 49.2281 8.77835L51.8055 19.2993C51.8354 19.4214 51.9448 19.5073 52.0706 19.5073H55.9932C56.115 19.5073 56.222 19.4266 56.2555 19.3096L60.1076 5.86519C60.1575 5.69081 60.0266 5.51712 59.8452 5.51712H57.0011C56.876 5.51712 56.767 5.60212 56.7364 5.72338L54.0619 16.3444C54.0591 16.3556 54.049 16.3634 54.0375 16.3634C54.0259 16.3634 54.0159 16.3556 54.013 16.3444L51.3385 5.72339C51.308 5.60212 51.199 5.51712 51.0739 5.51712H47.2951C47.1697 5.51712 47.0605 5.60258 47.0303 5.72429L44.3945 16.3443C44.3917 16.3555 44.3816 16.3634 44.37 16.3634C44.3585 16.3634 44.3485 16.3556 44.3456 16.3445L41.613 5.72204C41.582 5.60143 41.4732 5.51712 41.3487 5.51712H38.5231C38.3417 5.51712 38.2108 5.69081 38.2607 5.86519L42.1128 19.3096C42.1463 19.4266 42.2533 19.5073 42.3751 19.5073H46.2985Z" fill="#220A33"/>
<path d="M73.7196 4.17366C73.9328 3.96051 74.2784 3.96051 74.4915 4.17366L76.0353 5.71744C76.2484 5.93059 76.2484 6.27618 76.0353 6.48933L74.4915 8.03311C74.2784 8.24626 73.9328 8.24626 73.7196 8.03311L72.1758 6.48933C71.9627 6.27618 71.9627 5.93059 72.1758 5.71744L73.7196 4.17366Z" fill="#220A33"/>
<path d="M106.702 4.17366C106.915 3.96051 107.261 3.96051 107.474 4.17366L109.018 5.71744C109.231 5.93059 109.231 6.27618 109.018 6.48933L107.474 8.03311C107.261 8.24626 106.915 8.24626 106.702 8.03311L105.158 6.48933C104.945 6.27618 104.945 5.93059 105.158 5.71744L106.702 4.17366Z" fill="#220A33"/>
<defs>
<filter id="filter0_d_3284_8615" x="6.71588" y="-3.74982" width="32.4091" height="32.4998" filterUnits="userSpaceOnUse" color-interpolation-filters="sRGB">
<feFlood flood-opacity="0" result="BackgroundImageFix"/>
<feColorMatrix in="SourceAlpha" type="matrix" values="0 0 0 0 0 0 0 0 0 0 0 0 0 0 0 0 0 0 127 0" result="hardAlpha"/>
<feOffset/>
<feGaussianBlur stdDeviation="1.875"/>
<feColorMatrix type="matrix" values="0 0 0 0 0 0 0 0 0 0 0 0 0 0 0 0 0 0 1 0"/>
<feBlend mode="normal" in2="BackgroundImageFix" result="effect1_dropShadow_3284_8615"/>
<feBlend mode="normal" in="SourceGraphic" in2="effect1_dropShadow_3284_8615" result="shape"/>
</filter>
<linearGradient id="paint0_linear_3284_8615" x1="10.5" y1="12.5" x2="34.8929" y2="15.4515" gradientUnits="userSpaceOnUse">
<stop stop-color="#4433FF"/>
<stop offset="0.489583" stop-color="#AA33FF"/>
<stop offset="1" stop-color="#E36BFF"/>
<stop offset="1" stop-color="#FF33EE"/>
</linearGradient>
</defs>
</svg>
