<svg viewBox="0 0 348 56" fill="none" xmlns="http://www.w3.org/2000/svg">
<path fill-rule="evenodd" clip-rule="evenodd" d="M29.0437 8.17029C28.4673 7.59388 27.5328 7.59389 26.9564 8.17029L8.17031 26.9563C7.59391 27.5327 7.59391 28.4673 8.17031 29.0437L26.9564 47.8297C27.5328 48.4061 28.4673 48.4061 29.0437 47.8297L47.8297 29.0437C48.4061 28.4673 48.4061 27.5327 47.8297 26.9563L29.0437 8.17029ZM30.0874 0.864604C28.9346 -0.288202 27.0655 -0.288201 25.9127 0.864604L0.864626 25.9127C-0.288178 27.0655 -0.288178 28.9345 0.864627 30.0873L25.9127 55.1354C27.0655 56.2882 28.9346 56.2882 30.0874 55.1354L55.1354 30.0873C56.2882 28.9345 56.2882 27.0655 55.1354 25.9127L30.0874 0.864604Z" fill="#9187F6"/>
<mask id="mask0" mask-type="alpha" maskUnits="userSpaceOnUse" x="0" y="0" width="56" height="56">
<path fill-rule="evenodd" clip-rule="evenodd" d="M29.0437 8.17029C28.4673 7.59388 27.5328 7.59389 26.9564 8.17029L8.17031 26.9563C7.59391 27.5327 7.59391 28.4673 8.17031 29.0437L26.9564 47.8297C27.5328 48.4061 28.4673 48.4061 29.0437 47.8297L47.8297 29.0437C48.4061 28.4673 48.4061 27.5327 47.8297 26.9563L29.0437 8.17029ZM30.0874 0.864604C28.9346 -0.288202 27.0655 -0.288201 25.9127 0.864604L0.864626 25.9127C-0.288178 27.0655 -0.288178 28.9345 0.864627 30.0873L25.9127 55.1354C27.0655 56.2882 28.9346 56.2882 30.0874 55.1354L55.1354 30.0873C56.2882 28.9345 56.2882 27.0655 55.1354 25.9127L30.0874 0.864604Z" fill="white"/>
</mask>
<g mask="url(#mask0)">
<g filter="url(#filter0_d)">
<path d="M46.9127 0.864604C48.0655 -0.288201 49.9346 -0.288202 51.0874 0.864604L76.1354 25.9127C77.2882 27.0655 77.2882 28.9345 76.1354 30.0873L51.0874 55.1354C49.9346 56.2882 48.0655 56.2882 46.9127 55.1354L21.8646 30.0873C20.7118 28.9345 20.7118 27.0655 21.8646 25.9127L46.9127 0.864604Z" fill="black" fill-opacity="0.01"/>
</g>
</g>
<path d="M46.9127 0.864604C48.0655 -0.288201 49.9346 -0.288202 51.0874 0.864604L76.1354 25.9127C77.2882 27.0655 77.2882 28.9345 76.1354 30.0873L51.0874 55.1354C49.9346 56.2882 48.0655 56.2882 46.9127 55.1354L21.8646 30.0873C20.7118 28.9345 20.7118 27.0655 21.8646 25.9127L46.9127 0.864604Z" fill="#8313DD"/>
<mask id="mask1" mask-type="alpha" maskUnits="userSpaceOnUse" x="88" y="6" width="49" height="44">
<path fill-rule="evenodd" clip-rule="evenodd" d="M88 6.24658H136.98V49.0286H88V6.24658Z" fill="white"/>
</mask>
<g mask="url(#mask1)">
<path fill-rule="evenodd" clip-rule="evenodd" d="M127.618 45.1836C127.246 46.5886 126.75 47.5806 126.13 48.1596C125.51 48.7386 124.704 49.0286 123.712 49.0286C122.72 49.0286 121.914 48.7276 121.294 48.1286C120.674 47.5306 120.178 46.5476 119.806 45.1836L112.552 19.2676H112.428L105.174 45.1836C104.802 46.5476 104.306 47.5306 103.686 48.1286C103.066 48.7276 102.26 49.0286 101.268 49.0286C100.276 49.0286 99.4797 48.7386 98.8807 48.1596C98.2817 47.5806 97.7747 46.5886 97.3617 45.1836L88.1857 11.1456C88.0617 10.6496 87.9997 10.1746 87.9997 9.71958C87.9997 8.72758 88.3097 7.90158 88.9297 7.23958C89.5497 6.57958 90.4177 6.24658 91.5337 6.24658C92.4427 6.24658 93.1867 6.49558 93.7657 6.99158C94.3447 7.48758 94.7987 8.33458 95.1297 9.53458L101.578 35.6356H101.702L108.894 9.53458C109.514 7.34258 110.712 6.24658 112.49 6.24658C114.267 6.24658 115.466 7.34258 116.086 9.53458L123.464 35.6356H123.588L129.912 9.53458C130.201 8.33458 130.645 7.48758 131.245 6.99158C131.844 6.49558 132.578 6.24658 133.446 6.24658C134.562 6.24658 135.43 6.57958 136.05 7.23958C136.67 7.90158 136.98 8.72758 136.98 9.71958C136.98 10.1746 136.918 10.6496 136.794 11.1456L127.618 45.1836Z" fill="#303395"/>
</g>
<path fill-rule="evenodd" clip-rule="evenodd" d="M163.205 49.0283C162.171 49.0283 161.334 48.7083 160.694 48.0673C160.053 47.4263 159.733 46.5273 159.733 45.3703V30.8623C159.733 28.9193 159.268 27.3483 158.338 26.1493C157.408 24.9523 155.992 24.3513 154.091 24.3513C152.231 24.3513 150.814 24.9523 149.844 26.1493C148.872 27.3483 148.387 28.9193 148.387 30.8623V45.3703C148.387 46.5273 148.066 47.4263 147.426 48.0673C146.785 48.7083 145.948 49.0283 144.915 49.0283C143.881 49.0283 143.044 48.7083 142.404 48.0673C141.763 47.4263 141.443 46.5273 141.443 45.3703V9.90528C141.443 8.74928 141.763 7.85028 142.404 7.20928C143.044 6.56828 143.881 6.24728 144.915 6.24728C145.948 6.24728 146.785 6.56828 147.426 7.20928C148.066 7.85028 148.387 8.74928 148.387 9.90528V21.6243H148.449C149.234 20.5493 150.298 19.7023 151.642 19.0813C152.985 18.4623 154.545 18.1513 156.323 18.1513C157.935 18.1513 159.371 18.4303 160.632 18.9893C161.893 19.5473 162.977 20.3213 163.887 21.3133C164.796 22.3053 165.488 23.4733 165.964 24.8173C166.438 26.1613 166.677 27.6373 166.677 29.2503V45.3703C166.677 46.5273 166.356 47.4263 165.716 48.0673C165.075 48.7083 164.238 49.0283 163.205 49.0283Z" fill="#303395"/>
<mask id="mask2" mask-type="alpha" maskUnits="userSpaceOnUse" x="171" y="6" width="9" height="44">
<path fill-rule="evenodd" clip-rule="evenodd" d="M171.636 6.0004H179.944V49.0283H171.636V6.0004Z" fill="white"/>
</mask>
<g mask="url(#mask2)">
<path fill-rule="evenodd" clip-rule="evenodd" d="M175.79 49.0283C174.756 49.0283 173.919 48.7083 173.279 48.0673C172.638 47.4263 172.318 46.5273 172.318 45.3703V22.1813C172.318 21.0243 172.638 20.1263 173.279 19.4853C173.919 18.8443 174.756 18.5243 175.79 18.5243C176.823 18.5243 177.66 18.8443 178.301 19.4853C178.941 20.1263 179.262 21.0243 179.262 22.1813V45.3703C179.262 46.5273 178.941 47.4263 178.301 48.0673C177.66 48.7083 176.823 49.0283 175.79 49.0283ZM171.636 10.1533C171.636 8.9973 172.039 8.01431 172.845 7.20931C173.651 6.40331 174.632 6.00031 175.79 6.00031C176.947 6.00031 177.929 6.40331 178.735 7.20931C179.541 8.01431 179.944 8.9973 179.944 10.1533C179.944 11.3113 179.541 12.2933 178.735 13.0983C177.929 13.9053 176.947 14.3073 175.79 14.3073C174.632 14.3073 173.651 13.9053 172.845 13.0983C172.039 12.2933 171.636 11.3113 171.636 10.1533Z" fill="#303395"/>
</g>
<path fill-rule="evenodd" clip-rule="evenodd" d="M185.214 22.1816C185.214 21.0246 185.534 20.1256 186.175 19.4856C186.816 18.8446 187.652 18.5246 188.686 18.5246C189.719 18.5246 190.515 18.8136 191.073 19.3916C191.631 19.9716 191.992 20.7146 192.158 21.6236H192.22C192.881 20.6726 193.863 19.8566 195.165 19.1746C196.467 18.4936 198.11 18.1516 200.094 18.1516C201.871 18.1516 203.452 18.4936 204.837 19.1746C206.221 19.8566 207.368 20.8386 208.278 22.1196H208.34C209.497 20.8796 210.84 19.9096 212.37 19.2056C213.899 18.5026 215.738 18.1516 217.888 18.1516C219.624 18.1516 221.164 18.4306 222.507 18.9896C223.85 19.5466 224.987 20.3216 225.917 21.3136C226.847 22.3056 227.549 23.4736 228.025 24.8176C228.5 26.1606 228.738 27.6376 228.738 29.2496V45.3696C228.738 46.5276 228.418 47.4266 227.777 48.0676C227.135 48.7076 226.298 49.0286 225.266 49.0286C224.232 49.0286 223.395 48.7076 222.756 48.0676C222.114 47.4266 221.795 46.5276 221.795 45.3696V30.8626C221.795 28.9186 221.318 27.3486 220.368 26.1496C219.417 24.9526 218.012 24.3516 216.152 24.3516C214.333 24.3516 212.928 24.9526 211.936 26.1496C210.944 27.3486 210.448 28.9186 210.448 30.8626V45.3696C210.448 46.5276 210.128 47.4266 209.487 48.0676C208.846 48.7076 208.009 49.0286 206.976 49.0286C205.943 49.0286 205.106 48.7076 204.465 48.0676C203.824 47.4266 203.504 46.5276 203.504 45.3696V30.8626C203.504 28.9186 203.028 27.3486 202.078 26.1496C201.127 24.9526 199.722 24.3516 197.862 24.3516C196.043 24.3516 194.638 24.9526 193.646 26.1496C192.654 27.3486 192.158 28.9186 192.158 30.8626V45.3696C192.158 46.5276 191.838 47.4266 191.197 48.0676C190.556 48.7076 189.719 49.0286 188.686 49.0286C187.652 49.0286 186.816 48.7076 186.175 48.0676C185.534 47.4266 185.214 46.5276 185.214 45.3696V22.1816Z" fill="#303395"/>
<path fill-rule="evenodd" clip-rule="evenodd" d="M245.664 49.3994C243.349 49.3994 241.262 49.0994 239.402 48.5014C237.542 47.9014 235.992 47.1884 234.752 46.3624C233.636 45.6594 233.078 44.7294 233.078 43.5714C233.078 42.7454 233.367 42.0124 233.946 41.3704C234.524 40.7304 235.289 40.4094 236.24 40.4094C236.9 40.4094 237.624 40.6374 238.41 41.0914C239.566 41.7954 240.735 42.3744 241.913 42.8274C243.091 43.2834 244.465 43.5094 246.036 43.5094C247.772 43.5094 249.125 43.2004 250.097 42.5794C251.067 41.9604 251.554 41.0914 251.554 39.9754C251.554 39.0674 251.213 38.3424 250.531 37.8054C249.849 37.2684 248.536 36.8974 246.594 36.6904L243.37 36.3794C240.27 36.0494 237.966 35.1394 236.457 33.6514C234.947 32.1634 234.194 30.1394 234.194 27.5754C234.194 24.7234 235.186 22.4404 237.17 20.7244C239.154 19.0104 242.026 18.1514 245.788 18.1514C247.524 18.1514 249.167 18.3584 250.717 18.7724C252.267 19.1854 253.641 19.7234 254.84 20.3834C255.542 20.7554 256.069 21.1694 256.421 21.6244C256.771 22.0794 256.948 22.6164 256.948 23.2354C256.948 24.1044 256.679 24.8274 256.142 25.4054C255.604 25.9854 254.902 26.2744 254.034 26.2744C253.455 26.2744 252.732 26.0464 251.864 25.5914C250.913 25.1374 249.88 24.7544 248.764 24.4444C247.648 24.1344 246.532 23.9794 245.416 23.9794C243.845 23.9794 242.697 24.2804 241.975 24.8784C241.251 25.4784 240.89 26.2124 240.89 27.0794C240.89 27.9484 241.231 28.6404 241.913 29.1574C242.595 29.6744 243.887 30.0364 245.788 30.2414L249.012 30.5514C252.194 30.8834 254.53 31.8134 256.018 33.3414C257.506 34.8724 258.25 36.8764 258.25 39.3564C258.25 42.3314 257.175 44.7504 255.026 46.6104C252.876 48.4694 249.756 49.3994 245.664 49.3994Z" fill="#303395"/>
<mask id="mask3" mask-type="alpha" maskUnits="userSpaceOnUse" x="262" y="6" width="9" height="44">
<path fill-rule="evenodd" clip-rule="evenodd" d="M262.402 6.0004H270.71V49.0283H262.402V6.0004Z" fill="white"/>
</mask>
<g mask="url(#mask3)">
<path fill-rule="evenodd" clip-rule="evenodd" d="M266.556 49.0283C265.522 49.0283 264.685 48.7083 264.045 48.0673C263.404 47.4263 263.084 46.5273 263.084 45.3703V22.1813C263.084 21.0243 263.404 20.1263 264.045 19.4853C264.685 18.8443 265.522 18.5243 266.556 18.5243C267.588 18.5243 268.426 18.8443 269.067 19.4853C269.707 20.1263 270.028 21.0243 270.028 22.1813V45.3703C270.028 46.5273 269.707 47.4263 269.067 48.0673C268.426 48.7083 267.588 49.0283 266.556 49.0283ZM262.402 10.1533C262.402 8.9973 262.805 8.01431 263.611 7.20931C264.417 6.40331 265.399 6.00031 266.556 6.00031C267.712 6.00031 268.695 6.40331 269.501 7.20931C270.307 8.01431 270.71 8.9973 270.71 10.1533C270.71 11.3113 270.307 12.2933 269.501 13.0983C268.695 13.9053 267.712 14.3073 266.556 14.3073C265.399 14.3073 264.417 13.9053 263.611 13.0983C262.805 12.2933 262.402 11.3113 262.402 10.1533Z" fill="#303395"/>
</g>
<path fill-rule="evenodd" clip-rule="evenodd" d="M288.504 49.3994C285.486 49.3994 282.902 48.6974 280.754 47.2924C278.605 45.8874 277.096 43.8404 276.228 41.1534C275.608 39.2944 275.298 36.8354 275.298 33.7764C275.298 30.7174 275.608 28.2574 276.228 26.3974C277.096 23.7124 278.605 21.6654 280.754 20.2594C282.902 18.8544 285.486 18.1514 288.504 18.1514C290.611 18.1514 292.472 18.5144 294.084 19.2374C295.695 19.9604 296.977 20.8594 297.928 21.9334C298.382 22.4294 298.703 22.8944 298.889 23.3294C299.075 23.7624 299.168 24.2084 299.168 24.6614C299.168 25.5304 298.878 26.2534 298.3 26.8314C297.721 27.4114 296.998 27.7004 296.13 27.7004C295.592 27.7004 295.096 27.5654 294.642 27.2964C294.187 27.0284 293.733 26.6674 293.277 26.2124C292.698 25.5914 292.038 25.1274 291.294 24.8174C290.55 24.5064 289.64 24.3514 288.566 24.3514C287.242 24.3514 286.096 24.6724 285.125 25.3134C284.153 25.9544 283.441 26.9354 282.985 28.2574C282.737 29.0024 282.572 29.8184 282.49 30.7064C282.406 31.5964 282.366 32.6194 282.366 33.7764C282.366 34.9334 282.406 35.9564 282.49 36.8444C282.572 37.7334 282.737 38.5494 282.985 39.2944C283.441 40.6174 284.153 41.5984 285.125 42.2394C286.096 42.8794 287.242 43.2004 288.566 43.2004C289.64 43.2004 290.55 43.0454 291.294 42.7354C292.038 42.4244 292.698 41.9604 293.277 41.3394C293.733 40.8854 294.187 40.5244 294.642 40.2544C295.096 39.9864 295.592 39.8514 296.13 39.8514C296.998 39.8514 297.721 40.1414 298.3 40.7194C298.878 41.2994 299.168 42.0224 299.168 42.8894C299.168 43.3444 299.075 43.7884 298.889 44.2224C298.703 44.6574 298.382 45.1224 297.928 45.6184C296.977 46.6924 295.695 47.5924 294.084 48.3154C292.472 49.0384 290.611 49.3994 288.504 49.3994Z" fill="#303395"/>
<mask id="mask4" mask-type="alpha" maskUnits="userSpaceOnUse" x="303" y="18" width="28" height="32">
<path fill-rule="evenodd" clip-rule="evenodd" d="M303.508 18.1518H330.602V49.3994H303.508V18.1518Z" fill="white"/>
</mask>
<g mask="url(#mask4)">
<path fill-rule="evenodd" clip-rule="evenodd" d="M315.35 43.7578C317.374 43.7578 318.977 43.3648 320.155 42.5788C321.333 41.7948 321.922 40.6168 321.922 39.0458V36.3798C321.922 36.1318 321.798 36.0078 321.55 36.0078H316.59C314.275 36.0078 312.622 36.3388 311.63 36.9998C310.638 37.6608 310.142 38.6738 310.142 40.0378C310.142 42.5178 311.878 43.7578 315.35 43.7578ZM330.044 43.7578C330.416 44.4608 330.602 45.1438 330.602 45.8038C330.602 46.7548 330.271 47.5298 329.61 48.1288C328.949 48.7278 328.122 49.0288 327.13 49.0288C325.848 49.0288 324.876 48.5538 324.216 47.6018L323.224 46.1138H323.162C322.294 47.1478 321.116 47.9538 319.628 48.5318C318.14 49.1108 316.383 49.3998 314.358 49.3998C310.803 49.3998 308.106 48.6048 306.267 47.0128C304.427 45.4218 303.508 43.1998 303.508 40.3478C303.508 37.1238 304.562 34.7278 306.67 33.1548C308.778 31.5848 311.692 30.7998 315.412 30.7998H321.55C321.798 30.7998 321.922 30.6758 321.922 30.4278V29.6838C321.922 27.9478 321.395 26.5948 320.341 25.6218C319.288 24.6518 317.582 24.1658 315.226 24.1658C314.151 24.1658 313.138 24.2898 312.188 24.5378C311.237 24.7858 310.431 25.0748 309.77 25.4048C309.15 25.6538 308.55 25.7788 307.972 25.7788C307.145 25.7788 306.462 25.5208 305.926 25.0028C305.388 24.4868 305.121 23.7938 305.121 22.9258C305.121 22.4298 305.253 21.9338 305.523 21.4388C305.791 20.9428 306.236 20.5288 306.856 20.1978C307.806 19.6198 309.046 19.1338 310.577 18.7408C312.105 18.3488 313.903 18.1518 315.97 18.1518C320.227 18.1518 323.379 19.1538 325.425 21.1588C327.471 23.1638 328.495 26.0268 328.495 29.7448V39.1698C328.495 39.9558 328.545 40.5438 328.649 40.9368C328.751 41.3298 328.907 41.7338 329.114 42.1458L330.044 43.7578Z" fill="#303395"/>
</g>
<path fill-rule="evenodd" clip-rule="evenodd" d="M343.188 49.0898C340.128 49.0898 338.001 48.3458 336.802 46.8588C335.603 45.3698 335.004 43.1998 335.004 40.3478V9.9048C335.004 8.7488 335.324 7.8508 335.965 7.2088C336.605 6.5688 337.443 6.2468 338.476 6.2468C339.468 6.2468 340.294 6.5688 340.956 7.2088C341.617 7.8508 341.948 8.7488 341.948 9.9048V39.7898C341.948 40.8648 342.134 41.6178 342.506 42.0528C342.878 42.4868 343.499 42.7658 344.366 42.8898C345.399 43.0138 346.143 43.3548 346.598 43.9128C347.052 44.4708 347.28 45.1438 347.28 45.9278C347.28 46.8368 346.991 47.5928 346.412 48.1908C345.833 48.7898 344.924 49.0898 343.684 49.0898H343.188Z" fill="#303395"/>
<defs>
<filter id="filter0_d" x="15" y="-6" width="68" height="68" filterUnits="userSpaceOnUse" color-interpolation-filters="sRGB">
<feFlood flood-opacity="0" result="BackgroundImageFix"/>
<feColorMatrix in="SourceAlpha" type="matrix" values="0 0 0 0 0 0 0 0 0 0 0 0 0 0 0 0 0 0 127 0" result="hardAlpha"/>
<feOffset/>
<feGaussianBlur stdDeviation="3"/>
<feColorMatrix type="matrix" values="0 0 0 0 0 0 0 0 0 0 0 0 0 0 0 0 0 0 0.6 0"/>
<feBlend mode="normal" in2="BackgroundImageFix" result="effect1_dropShadow"/>
<feBlend mode="normal" in="SourceGraphic" in2="effect1_dropShadow" result="shape"/>
</filter>
</defs>
</svg>
