<?xml version="1.0" encoding="UTF-8"?>
<svg width="488px" height="156px" viewBox="0 0 488 156" version="1.1" xmlns="http://www.w3.org/2000/svg" xmlns:xlink="http://www.w3.org/1999/xlink">
    <!-- Generator: Sketch 45.1 (43504) - http://www.bohemiancoding.com/sketch -->
    <title>Logo Heebo</title>
    <desc>Created with Sketch.</desc>
    <defs></defs>
    <g id="Symbols" stroke="none" stroke-width="1" fill="none" fill-rule="evenodd">
        <g id="Logo-Heebo">
            <path d="M191.599609,20.5292969 L191.599609,35.8222656 L216.692383,35.8222656 L216.692383,47.2919922 L191.599609,47.2919922 L191.599609,73 L177.317383,73 L177.317383,9.015625 L219.548828,9.015625 L219.548828,20.5292969 L191.599609,20.5292969 Z M265.350586,25.4511719 L265.350586,73 L252.474609,73 L252.079102,67.9902344 C250.555656,69.8945408 248.72462,71.3520457 246.585938,72.362793 C244.447255,73.3735402 242.00099,73.8789062 239.24707,73.8789062 C234.295874,73.8789062 230.414077,72.4433737 227.601562,69.5722656 C224.789048,66.7011575 223.382812,62.2480771 223.382812,56.2128906 L223.382812,25.4511719 L237.09375,25.4511719 L237.09375,56.3007812 C237.09375,58.4980579 237.657709,60.1313423 238.785645,61.2006836 C239.91358,62.2700249 241.473623,62.8046875 243.46582,62.8046875 C247.362324,62.8046875 250.072258,61.4570447 251.595703,58.7617188 L251.595703,25.4511719 L265.350586,25.4511719 Z M310.95459,28.8789062 C313.576673,31.7500144 314.887695,36.4521158 314.887695,42.9853516 L314.887695,73 L301.132812,73 L301.132812,42.8974609 C301.132812,40.1435409 300.554205,38.2465872 299.396973,37.206543 C298.23974,36.1664987 296.430676,35.6464844 293.969727,35.6464844 C290.717757,35.6464844 288.286141,36.9648306 286.674805,39.6015625 L286.674805,73 L273.007812,73 L273.007812,25.4511719 L285.839844,25.4511719 L286.323242,30.9443359 C287.963875,28.8642474 289.934071,27.282232 292.233887,26.1982422 C294.533703,25.1142524 297.08983,24.5722656 299.902344,24.5722656 C304.648461,24.5722656 308.332506,26.0077981 310.95459,28.8789062 Z M364.336914,5.5 L364.336914,73 L351.988281,73 L351.329102,67.8583984 C348.223617,71.8720904 344.25393,73.8789062 339.419922,73.8789062 C335.552715,73.8789062 332.227553,72.8462017 329.444336,70.7807617 C326.661119,68.7153217 324.544441,65.8662291 323.094238,62.2333984 C321.644036,58.6005678 320.918945,54.4551014 320.918945,49.796875 L320.918945,48.8740234 C320.918945,44.0400149 321.644036,39.7920105 323.094238,36.1298828 C324.544441,32.4677551 326.661119,29.6259867 329.444336,27.6044922 C332.227553,25.5829977 335.582012,24.5722656 339.507812,24.5722656 C343.96096,24.5722656 347.652329,26.2714674 350.582031,29.6699219 L350.582031,5.5 L364.336914,5.5 Z M347.571777,61.6401367 C348.846198,60.8637656 349.849606,59.7431714 350.582031,58.2783203 L350.582031,40.1728516 C349.146477,37.1552583 346.612323,35.6464844 342.979492,35.6464844 C340.079087,35.6464844 337.962409,36.8329959 336.629395,39.2060547 C335.29638,41.5791134 334.629883,44.8017375 334.629883,48.8740234 L334.629883,49.796875 C334.629883,53.7812699 335.274408,56.9453008 336.563477,59.2890625 C337.852546,61.6328242 339.961899,62.8046875 342.891602,62.8046875 C344.737314,62.8046875 346.297357,62.4165078 347.571777,61.6401367 Z M385.573242,8.11474609 C386.979499,9.41846355 387.682617,11.1103412 387.682617,13.1904297 C387.682617,15.2412212 386.979499,16.9184505 385.573242,18.222168 C384.166985,19.5258854 382.3213,20.1777344 380.036133,20.1777344 C377.750965,20.1777344 375.912605,19.5258854 374.520996,18.222168 C373.129388,16.9184505 372.433594,15.2412212 372.433594,13.1904297 C372.433594,11.1103412 373.129388,9.41846355 374.520996,8.11474609 C375.912605,6.81102864 377.750965,6.15917969 380.036133,6.15917969 C382.3213,6.15917969 384.166985,6.81102864 385.573242,8.11474609 Z M373.224609,73 L373.224609,25.4511719 L386.979492,25.4511719 L386.979492,73 L373.224609,73 Z M433.506348,28.8789062 C436.128431,31.7500144 437.439453,36.4521158 437.439453,42.9853516 L437.439453,73 L423.68457,73 L423.68457,42.8974609 C423.68457,40.1435409 423.105963,38.2465872 421.94873,37.206543 C420.791498,36.1664987 418.982434,35.6464844 416.521484,35.6464844 C413.269515,35.6464844 410.837899,36.9648306 409.226562,39.6015625 L409.226562,73 L395.55957,73 L395.55957,25.4511719 L408.391602,25.4511719 L408.875,30.9443359 C410.515633,28.8642474 412.485828,27.282232 414.785645,26.1982422 C417.085461,25.1142524 419.641588,24.5722656 422.454102,24.5722656 C427.200219,24.5722656 430.884264,26.0077981 433.506348,28.8789062 Z M487.811523,25.4511719 L487.811523,71.1982422 C487.811523,75.5049043 486.837412,79.2035978 484.88916,82.2944336 C482.940908,85.3852694 480.201678,87.7289959 476.671387,89.3256836 C473.141096,90.9223713 469.03225,91.7207031 464.344727,91.7207031 C461.092757,91.7207031 457.804216,91.0908266 454.479004,89.8310547 C451.153792,88.5712828 448.539072,86.7988396 446.634766,84.5136719 L452.567383,76.1201172 C453.944343,77.6435623 455.584951,78.8520463 457.489258,79.7456055 C459.393564,80.6391646 461.48827,81.0859375 463.773438,81.0859375 C467.054704,81.0859375 469.596182,80.2216883 471.397949,78.4931641 C473.199716,76.7646398 474.100586,74.3183752 474.100586,71.1542969 L474.100586,68.9570312 C471.141587,72.2382977 467.406273,73.8789062 462.894531,73.8789062 C458.998027,73.8789062 455.5923,72.8462017 452.677246,70.7807617 C449.762192,68.7153217 447.521004,65.8515808 445.953613,62.1894531 C444.386223,58.5273254 443.602539,54.3965074 443.602539,49.796875 L443.602539,48.8740234 C443.602539,44.0693119 444.386223,39.8359558 445.953613,36.1738281 C447.521004,32.5117004 449.769517,29.6626078 452.699219,27.6264648 C455.628921,25.5903219 459.056621,24.5722656 462.982422,24.5722656 C468.080104,24.5722656 472.04979,26.3154123 474.891602,29.8017578 L475.418945,25.4511719 L487.811523,25.4511719 Z M474.100586,59.0253906 L474.100586,39.4257812 C472.518547,36.9062374 469.969744,35.6464844 466.454102,35.6464844 C463.495102,35.6464844 461.231941,36.8696167 459.664551,39.315918 C458.09716,41.7622193 457.313477,44.9482226 457.313477,48.8740234 L457.313477,49.796875 C457.313477,53.6347848 458.082512,56.7621949 459.620605,59.1791992 C461.158699,61.5962035 463.407212,62.8046875 466.366211,62.8046875 C469.881854,62.8046875 472.459953,61.5449345 474.100586,59.0253906 Z M224.69043,139.178223 C222.551747,142.562029 219.556172,145.191397 215.703613,147.066406 C211.851055,148.941416 207.346705,149.878906 202.19043,149.878906 C196.68259,149.878906 191.921895,148.626477 187.908203,146.121582 C183.894511,143.616687 180.81837,140.03518 178.679688,135.376953 C176.541005,130.718727 175.47168,125.210969 175.47168,118.853516 L175.47168,115.162109 C175.47168,108.86325 176.570302,103.370141 178.767578,98.6826172 C180.964855,93.9950937 184.077617,90.3916142 188.105957,87.8720703 C192.134297,85.3525265 196.829075,84.0927734 202.19043,84.0927734 C207.493191,84.0927734 212.034161,85.0668848 215.813477,87.0151367 C219.592792,88.9633886 222.529775,91.6586742 224.624512,95.1010742 C226.719249,98.5434742 227.971678,102.505837 228.381836,106.988281 L214.143555,106.988281 C213.909179,103.179668 212.883798,100.359872 211.067383,98.5288086 C209.250967,96.6977448 206.292013,95.7822266 202.19043,95.7822266 C198.000956,95.7822266 194.910166,97.3202971 192.917969,100.396484 C190.925771,103.472672 189.929688,108.365201 189.929688,115.074219 L189.929688,118.853516 C189.929688,123.423851 190.332516,127.11522 191.138184,129.927734 C191.943852,132.740248 193.240225,134.820306 195.027344,136.167969 C196.814462,137.515632 199.202133,138.189453 202.19043,138.189453 C206.02834,138.189453 208.906729,137.310556 210.825684,135.552734 C212.744639,133.794913 213.821288,131.084979 214.055664,127.422852 L228.293945,127.422852 C228.030272,131.875999 226.829112,135.794417 224.69043,139.178223 Z M247.59668,84.1147461 C249.002937,85.4184635 249.706055,87.1103412 249.706055,89.1904297 C249.706055,91.2412212 249.002937,92.9184505 247.59668,94.222168 C246.190423,95.5258854 244.344738,96.1777344 242.05957,96.1777344 C239.774403,96.1777344 237.936042,95.5258854 236.544434,94.222168 C235.152825,92.9184505 234.457031,91.2412212 234.457031,89.1904297 C234.457031,87.1103412 235.152825,85.4184635 236.544434,84.1147461 C237.936042,82.8110286 239.774403,82.1591797 242.05957,82.1591797 C244.344738,82.1591797 246.190423,82.8110286 247.59668,84.1147461 Z M235.248047,149 L235.248047,101.451172 L249.00293,101.451172 L249.00293,149 L235.248047,149 Z M285.708008,101.099609 L285.532227,114.371094 C283.276356,114.136718 281.69434,114.019531 280.786133,114.019531 C278.383777,114.019531 276.42823,114.400387 274.919434,115.162109 C273.410637,115.923832 272.304691,117.066399 271.601562,118.589844 L271.601562,149 L257.890625,149 L257.890625,101.451172 L270.766602,101.451172 L271.206055,107.295898 C272.407233,105.127919 273.894034,103.465338 275.666504,102.308105 C277.438974,101.150873 279.453114,100.572266 281.708984,100.572266 C283.349618,100.572266 284.682612,100.748045 285.708008,101.099609 Z M330.279297,132.212891 C330.279297,135.640642 329.400399,138.694811 327.642578,141.375488 C325.884757,144.056166 323.497085,146.143547 320.479492,147.637695 C317.461899,149.131843 314.092792,149.878906 310.37207,149.878906 C305.596656,149.878906 301.546403,148.838878 298.221191,146.758789 C294.895979,144.678701 292.40577,141.829608 290.750488,138.211426 C289.095207,134.593244 288.267578,130.455101 288.267578,125.796875 L288.267578,124.698242 C288.267578,120.040016 289.095207,115.894549 290.750488,112.261719 C292.40577,108.628888 294.888655,105.772471 298.199219,103.692383 C301.509782,101.612294 305.55271,100.572266 310.328125,100.572266 C314.253926,100.572266 317.718247,101.326653 320.721191,102.835449 C323.724136,104.344246 326.067863,106.526841 327.752441,109.383301 C329.43702,112.23976 330.279297,115.616191 330.279297,119.512695 L317.40332,119.512695 C317.374023,117.198231 316.722174,115.308601 315.447754,113.84375 C314.173333,112.378899 312.36427,111.646484 310.020508,111.646484 C306.915024,111.646484 304.798345,112.811024 303.67041,115.140137 C302.542475,117.46925 301.978516,120.655253 301.978516,124.698242 L301.978516,125.796875 C301.978516,129.927755 302.542475,133.128407 303.67041,135.398926 C304.798345,137.669445 306.94432,138.804688 310.108398,138.804688 C312.305675,138.804688 314.06347,138.211432 315.381836,137.024902 C316.700202,135.838373 317.374023,134.234385 317.40332,132.212891 L330.279297,132.212891 Z M336.793945,149 L336.793945,81.5 L350.548828,81.5 L350.548828,149 L336.793945,149 Z M401.580078,129.708008 L371.741211,129.708008 C372.268557,132.520522 373.484365,134.739738 375.388672,136.365723 C377.292978,137.991707 379.724595,138.804688 382.683594,138.804688 C384.968761,138.804688 387.078115,138.394535 389.011719,137.574219 C390.945322,136.753902 392.600579,135.479501 393.977539,133.750977 L400.4375,141.441406 C398.76757,143.814465 396.321305,145.813957 393.098633,147.439941 C389.87596,149.065926 386.11135,149.878906 381.804688,149.878906 C376.912085,149.878906 372.649432,148.846202 369.016602,146.780762 C365.383771,144.715322 362.600596,141.924822 360.666992,138.40918 C358.733389,134.893537 357.766602,131.026388 357.766602,126.807617 L357.766602,125.137695 C357.766602,120.420875 358.660147,116.209491 360.447266,112.503418 C362.234384,108.797345 364.819807,105.882335 368.203613,103.758301 C371.587419,101.634267 375.623023,100.572266 380.310547,100.572266 C384.792991,100.572266 388.630843,101.51708 391.824219,103.406738 C395.017594,105.296396 397.441886,107.991682 399.097168,111.492676 C400.75245,114.99367 401.580078,119.117164 401.580078,123.863281 L401.580078,129.708008 Z M388.132812,119.512695 C388.132812,117.051746 387.466315,115.125495 386.133301,113.733887 C384.800286,112.342278 382.830091,111.646484 380.222656,111.646484 C375.56443,111.646484 372.751958,114.634736 371.785156,120.611328 L388.132812,120.611328 L388.132812,119.512695 Z" id="Funding-Circle-Copy-7" fill="#262838"></path>
            <g id="FC-icon">
                <path d="M156,87.499993 C156,85.0147186 153.985281,83 151.5,83 L87.5,83 C85.0147186,83 83,85.0147186 83,87.5 C83,125.331505 113.668495,156 151.5,156 C153.985281,156 156,153.985281 156,151.5 L156,87.499993 Z" id="Combined-Shape-Copy-7" fill="#75227D"></path>
                <path d="M0,87.499993 C0,85.0147186 2.01471863,83 4.5,83 L68.5,83 C70.9852814,83 73,85.0147186 73,87.5 C73,125.331505 42.3315054,156 4.5,156 C2.01471863,156 0,153.985281 0,151.5 L0,87.499993 Z" id="Combined-Shape-Copy-6" fill="#8F448A"></path>
                <path d="M156,68.500007 C156,70.9852814 153.985281,73 151.5,73 L87.5,73 C85.0147186,73 83,70.9852814 83,68.5 C83,30.6684946 113.668495,0 151.5,0 C153.985281,3.0144065e-10 156,2.01471863 156,4.5 L156,68.500007 Z" id="Combined-Shape-Copy-5" fill="#75227D"></path>
                <path d="M73,68.500007 C73,70.9852814 70.9852814,73 68.5,73 L4.5,73 C2.01471863,73 0,70.9852814 0,68.5 C0,30.6684946 30.6684946,0 68.5,0 C70.9852814,3.0144065e-10 73,2.01471863 73,4.5 L73,68.500007 Z" id="Combined-Shape-Copy-4" fill="#8F448A"></path>
            </g>
        </g>
    </g>
</svg>