<?xml version="1.0" encoding="utf-8"?>
<!-- Generator: Adobe Illustrator 22.0.1, SVG Export Plug-In . SVG Version: 6.00 Build 0)  -->
<!DOCTYPE svg PUBLIC "-//W3C//DTD SVG 1.1//EN" "http://www.w3.org/Graphics/SVG/1.1/DTD/svg11.dtd">
<svg version="1.1" id="T" xmlns="http://www.w3.org/2000/svg" xmlns:xlink="http://www.w3.org/1999/xlink" x="0px" y="0px"
	 viewBox="0 0 754 211.3" style="enable-background:new 0 0 754 211.3;" xml:space="preserve">
<style type="text/css">
	.st0{fill:#333333;}
	.st1{fill:#EE8E4E;}
</style>
<g>
	<path class="st0" d="M51.8,174.3c40.2,0,47.7-15.1,47.7-59.7V0h45.7v124.3c0,28.2-5.2,48.3-18.6,62.9c-17.5,19.2-37.8,21.8-69,21.8
		H0v-34.6H51.8z"/>
	<path class="st0" d="M226.7,125.1c0,37,10.8,52.4,47.1,52.4s46.9-15.4,46.9-52.4V0h43.9v126.3c0,26.8-2.9,45.1-12.2,56.2
		c-17.2,20.4-42.2,28.8-78.6,28.8s-61.7-8.4-78.9-28.8c-9.6-11.4-11.9-29.7-11.9-56.2V0h43.7V125.1z"/>
	<polygon class="st1" points="485.6,54.8 520.9,0 571.5,0 510.1,92.8 	"/>
	<polygon class="st0" points="436.8,0 386.2,0 524.4,209 571.5,209 	"/>
	<polygon class="st0" points="478.8,140.1 433.3,209 386.2,209 454.4,103.1 	"/>
	<path class="st0" d="M560.1,36.7l24.3-36.4H754v36.4h-67.8V209h-45.4V36.7H560.1z"/>
</g>
</svg>
