<svg width="74" height="24" viewBox="0 0 74 24" fill="none" xmlns="http://www.w3.org/2000/svg">
<path fill-rule="evenodd" clip-rule="evenodd" d="M22.8281 5.77148C21.0664 5.77148 19.7441 4.55469 19.7441 2.90137C19.7441 1.24805 21.0664 0 22.8281 0C23.5078 0 24.127 0.186035 24.6309 0.509766C25.1621 0.850586 25.5645 1.34424 25.7754 1.93311C25.8828 2.2334 25.9414 2.55859 25.9414 2.90137C25.9414 4.55469 24.5898 5.77148 22.8281 5.77148ZM0 23.6475V1.32373H8.5293C14.6777 1.32373 17.5312 4.04004 17.5312 8.78564V8.91064C17.5312 13.5938 14.3633 16.123 8.8125 16.123H6.39844V23.6475H0ZM6.39844 11.752H8.24805C10.3184 11.752 11.416 10.7837 11.416 8.94189V8.81689C11.416 6.9126 10.2871 6.13184 8.2793 6.13184H6.39844V11.752ZM20.0273 7.33154V23.647H25.6582V7.33154H20.0273ZM28.5977 18.377C28.5977 22.2192 30.6582 24 34.3418 24C35.6523 24 36.627 23.7188 37.3438 23.5312V19.2827C37.127 19.3643 36.9316 19.4282 36.7305 19.4741C36.4688 19.5342 36.1934 19.564 35.8398 19.564C35.3965 19.564 35.0352 19.4717 34.7637 19.2773C34.3867 19.0063 34.1855 18.5376 34.1855 17.8462V11.0986H37.4023V7.33154H34.1855V3.88232H28.5977V7.28711V11.0986V18.377ZM47.3613 24C42.4824 24 38.7617 21.1626 38.7617 15.6748V15.4258C38.7617 10.0005 42.6699 6.88232 47.4863 6.88232C51.4883 6.88232 55.1777 8.62842 55.4902 13.5859H50.2383C49.9883 12.0581 49.2363 11.2163 47.6113 11.2163C45.6406 11.2163 44.4844 12.6196 44.4844 15.3633V15.6123C44.4844 18.3564 45.6406 19.9155 47.6113 19.9155C49.2363 19.9155 49.9883 18.98 50.1953 17.2026H55.4961C55.3398 21.3184 52.6445 24 47.3613 24ZM57.6211 1.32373V23.6475H63.2383V14.5146C63.2383 12.4263 64.3672 11.4287 66.0312 11.4287C67.6621 11.4287 68.3848 12.3325 68.3848 14.1719V23.6475H74V13.0498C74 8.87305 71.8047 6.90918 68.6348 6.90918C65.9043 6.90918 64.1172 8.28076 63.2383 9.96387V1.32373H57.6211Z" fill="#1C1D1E"/>
</svg>
