<?xml version="1.0" encoding="UTF-8" standalone="no"?><!DOCTYPE svg PUBLIC "-//W3C//DTD SVG 1.1//EN" "http://www.w3.org/Graphics/SVG/1.1/DTD/svg11.dtd"><svg width="100%" height="100%" viewBox="0 0 370 149" version="1.1" xmlns="http://www.w3.org/2000/svg" xmlns:xlink="http://www.w3.org/1999/xlink" xml:space="preserve" xmlns:serif="http://www.serif.com/" style="fill-rule:evenodd;clip-rule:evenodd;stroke-linejoin:round;stroke-miterlimit:2;"><path d="M36.55,0l0,12.183c0,13.458 -10.909,24.367 -24.367,24.367l-12.183,0l0,24.367l12.183,0c26.915,0 48.734,-21.818 48.734,-48.733l0,-12.184l-24.367,0Z" style="fill:#91dc47;fill-rule:nonzero;"/><path d="M85.284,60.917l12.184,0l0,-24.366l-12.184,0c-26.915,0 -48.734,21.819 -48.734,48.733l0,12.184c0,26.914 21.819,48.735 48.734,48.735l12.184,0l0,-24.369l-12.184,0c-13.458,0 -24.367,-10.909 -24.367,-24.366l0,-12.184c0,-13.457 10.91,-24.367 24.367,-24.367" style="fill:#90b4fe;fill-rule:nonzero;"/><path d="M138.493,75.059c-2.482,0 -4.66,-0.395 -6.53,-1.182c-1.872,-0.788 -3.449,-1.891 -4.728,-3.31c-1.281,-1.418 -2.237,-3.102 -2.867,-5.052c-0.63,-1.951 -0.945,-4.108 -0.945,-6.472c0,-2.364 0.345,-4.53 1.034,-6.501c0.689,-1.969 1.664,-3.673 2.926,-5.112c1.26,-1.438 2.807,-2.56 4.639,-3.369c1.832,-0.806 3.871,-1.211 6.117,-1.211c1.378,0 2.757,0.118 4.136,0.355c1.379,0.236 2.698,0.611 3.96,1.123l-1.241,4.669c-0.828,-0.394 -1.783,-0.71 -2.866,-0.946c-1.084,-0.236 -2.237,-0.355 -3.457,-0.355c-3.074,0 -5.428,0.966 -7.063,2.897c-1.635,1.93 -2.452,4.747 -2.452,8.45c0,1.655 0.186,3.172 0.561,4.551c0.374,1.379 0.965,2.561 1.773,3.546c0.807,0.985 1.841,1.743 3.103,2.275c1.26,0.531 2.797,0.798 4.609,0.798c1.458,0 2.778,-0.138 3.96,-0.414c1.182,-0.275 2.107,-0.571 2.777,-0.887l0.769,4.609c-0.316,0.199 -0.769,0.385 -1.36,0.562c-0.59,0.178 -1.261,0.335 -2.009,0.473c-0.748,0.138 -1.546,0.257 -2.393,0.355c-0.848,0.097 -1.665,0.148 -2.453,0.148" style="fill:#e8e8e8;fill-rule:nonzero;"/><path d="M162.901,74.94c-3.389,-0.079 -5.792,-0.807 -7.21,-2.186c-1.418,-1.379 -2.127,-3.526 -2.127,-6.442l0,-36.877l5.495,-0.946l0,36.936c0,0.908 0.079,1.655 0.237,2.246c0.157,0.591 0.414,1.064 0.769,1.418c0.354,0.355 0.827,0.621 1.418,0.798c0.59,0.178 1.319,0.325 2.187,0.444l-0.769,4.609Z" style="fill:#e8e8e8;fill-rule:nonzero;"/><path d="M192.273,58.984c0,-3.466 -0.779,-6.214 -2.334,-8.244c-1.557,-2.029 -3.674,-3.044 -6.354,-3.044c-2.679,0 -4.797,1.015 -6.352,3.044c-1.558,2.03 -2.335,4.778 -2.335,8.244c0,3.467 0.777,6.216 2.335,8.244c1.555,2.03 3.673,3.044 6.352,3.044c2.68,0 4.797,-1.014 6.354,-3.044c1.555,-2.028 2.334,-4.777 2.334,-8.244m5.733,0c0,2.443 -0.355,4.649 -1.065,6.619c-0.709,1.971 -1.704,3.664 -2.984,5.083c-1.281,1.418 -2.808,2.511 -4.58,3.279c-1.773,0.769 -3.704,1.152 -5.792,1.152c-2.088,0 -4.019,-0.383 -5.791,-1.152c-1.773,-0.768 -3.301,-1.861 -4.581,-3.279c-1.28,-1.419 -2.274,-3.112 -2.984,-5.083c-0.709,-1.97 -1.063,-4.176 -1.063,-6.619c0,-2.403 0.354,-4.6 1.063,-6.589c0.71,-1.99 1.704,-3.694 2.984,-5.112c1.28,-1.419 2.808,-2.512 4.581,-3.28c1.772,-0.769 3.703,-1.153 5.791,-1.153c2.088,0 4.019,0.384 5.792,1.153c1.772,0.768 3.299,1.861 4.58,3.28c1.28,1.418 2.275,3.122 2.984,5.112c0.71,1.989 1.065,4.186 1.065,6.589" style="fill:#e8e8e8;fill-rule:nonzero;"/><path d="M209.529,38.063c-0.985,0 -1.823,-0.325 -2.512,-0.975c-0.689,-0.65 -1.034,-1.526 -1.034,-2.63c0,-1.103 0.345,-1.979 1.034,-2.63c0.689,-0.65 1.527,-0.974 2.512,-0.974c0.985,0 1.822,0.324 2.512,0.974c0.689,0.651 1.034,1.527 1.034,2.63c0,1.104 -0.345,1.98 -1.034,2.63c-0.69,0.65 -1.527,0.975 -2.512,0.975m-7.742,47.338c-0.473,0 -1.083,-0.059 -1.832,-0.177c-0.748,-0.119 -1.379,-0.277 -1.891,-0.474l0.709,-4.491c0.395,0.119 0.848,0.217 1.36,0.296c0.512,0.079 0.985,0.118 1.418,0.118c1.891,0 3.24,-0.582 4.048,-1.743c0.807,-1.162 1.212,-2.867 1.212,-5.112l0,-30.199l5.495,0l0,30.14c0,3.938 -0.896,6.864 -2.688,8.776c-1.794,1.91 -4.403,2.866 -7.831,2.866" style="fill:#e8e8e8;fill-rule:nonzero;"/><path d="M247.293,73.463c-1.262,0.316 -2.926,0.65 -4.994,1.004c-2.068,0.355 -4.462,0.533 -7.181,0.533c-2.364,0 -4.353,-0.346 -5.969,-1.035c-1.615,-0.689 -2.916,-1.664 -3.9,-2.925c-0.985,-1.261 -1.694,-2.748 -2.127,-4.462c-0.434,-1.713 -0.651,-3.615 -0.651,-5.703l0,-17.257l5.496,0l0,16.074c0,3.744 0.592,6.423 1.774,8.038c1.181,1.616 3.17,2.423 5.969,2.423c0.59,0 1.201,-0.019 1.832,-0.059c0.629,-0.039 1.22,-0.089 1.772,-0.148c0.552,-0.059 1.054,-0.118 1.507,-0.177c0.453,-0.059 0.778,-0.127 0.975,-0.206l0,-25.945l5.497,0l0,29.845Z" style="fill:#e8e8e8;fill-rule:nonzero;"/><path d="M269.158,42.968c0.472,0 1.014,0.03 1.625,0.089c0.61,0.058 1.211,0.138 1.803,0.236c0.59,0.099 1.132,0.198 1.625,0.296c0.492,0.098 0.857,0.187 1.093,0.266l-0.946,4.786c-0.434,-0.156 -1.152,-0.343 -2.157,-0.561c-1.004,-0.216 -2.295,-0.325 -3.871,-0.325c-1.025,0 -2.038,0.109 -3.043,0.325c-1.005,0.218 -1.665,0.365 -1.98,0.444l0,25.825l-5.496,0l0,-29.431c1.3,-0.472 2.915,-0.916 4.846,-1.329c1.93,-0.414 4.097,-0.621 6.501,-0.621" style="fill:#e8e8e8;fill-rule:nonzero;"/><path d="M287.182,74.349l-5.496,0l0,-30.73l5.496,0l0,30.73Zm-2.778,-36.286c-0.985,0 -1.823,-0.325 -2.512,-0.975c-0.69,-0.651 -1.034,-1.527 -1.034,-2.63c0,-1.103 0.344,-1.98 1.034,-2.63c0.689,-0.65 1.527,-0.975 2.512,-0.975c0.985,0 1.822,0.325 2.512,0.975c0.689,0.65 1.035,1.527 1.035,2.63c0,1.103 -0.346,1.979 -1.035,2.63c-0.69,0.65 -1.527,0.975 -2.512,0.975" style="fill:#e8e8e8;fill-rule:nonzero;"/><path d="M304.852,70.391c2.246,0 3.91,-0.296 4.994,-0.887c1.083,-0.592 1.625,-1.536 1.625,-2.837c0,-1.339 -0.533,-2.402 -1.596,-3.191c-1.064,-0.788 -2.817,-1.674 -5.259,-2.66c-1.182,-0.472 -2.316,-0.954 -3.399,-1.448c-1.084,-0.492 -2.019,-1.073 -2.807,-1.743c-0.788,-0.669 -1.418,-1.478 -1.891,-2.422c-0.473,-0.946 -0.709,-2.108 -0.709,-3.487c0,-2.719 1.004,-4.876 3.014,-6.471c2.009,-1.597 4.747,-2.395 8.215,-2.395c0.865,0 1.733,0.051 2.6,0.149c0.866,0.098 1.674,0.217 2.422,0.354c0.749,0.139 1.41,0.286 1.981,0.443c0.57,0.158 1.014,0.295 1.329,0.414l-1.004,4.728c-0.591,-0.315 -1.517,-0.64 -2.778,-0.976c-1.261,-0.334 -2.778,-0.502 -4.55,-0.502c-1.537,0 -2.877,0.306 -4.019,0.916c-1.143,0.611 -1.714,1.566 -1.714,2.867c0,0.67 0.128,1.261 0.384,1.772c0.256,0.513 0.65,0.976 1.182,1.389c0.532,0.414 1.191,0.799 1.98,1.153c0.788,0.355 1.733,0.729 2.836,1.123c1.458,0.552 2.757,1.093 3.901,1.625c1.142,0.532 2.118,1.152 2.926,1.861c0.807,0.709 1.426,1.567 1.861,2.571c0.433,1.005 0.65,2.237 0.65,3.694c0,2.836 -1.054,4.984 -3.161,6.441c-2.109,1.459 -5.113,2.187 -9.013,2.187c-2.718,0 -4.846,-0.227 -6.383,-0.679c-1.536,-0.452 -2.581,-0.798 -3.132,-1.035l1.005,-4.728c0.63,0.237 1.634,0.592 3.014,1.065c1.378,0.472 3.21,0.709 5.496,0.709" style="fill:#e8e8e8;fill-rule:nonzero;"/><path d="M330.265,43.619l11.643,0l0,4.609l-11.643,0l0,14.184c0,1.537 0.117,2.807 0.354,3.812c0.237,1.004 0.591,1.793 1.064,2.364c0.473,0.572 1.063,0.975 1.772,1.211c0.71,0.236 1.538,0.355 2.483,0.355c1.655,0 2.985,-0.186 3.989,-0.562c1.004,-0.374 1.704,-0.64 2.098,-0.797l1.063,4.55c-0.552,0.277 -1.516,0.621 -2.895,1.035c-1.379,0.413 -2.955,0.62 -4.728,0.62c-2.089,0 -3.811,-0.266 -5.172,-0.798c-1.359,-0.531 -2.452,-1.33 -3.279,-2.393c-0.827,-1.064 -1.409,-2.374 -1.743,-3.93c-0.335,-1.556 -0.503,-3.359 -0.503,-5.408l0,-27.422l5.497,-0.945l0,9.515Z" style="fill:#e8e8e8;fill-rule:nonzero;"/><path d="M357.095,70.391c2.245,0 3.909,-0.296 4.994,-0.887c1.082,-0.592 1.625,-1.536 1.625,-2.837c0,-1.339 -0.533,-2.402 -1.597,-3.191c-1.063,-0.788 -2.816,-1.674 -5.259,-2.66c-1.181,-0.472 -2.315,-0.954 -3.398,-1.448c-1.084,-0.492 -2.019,-1.073 -2.807,-1.743c-0.788,-0.669 -1.418,-1.478 -1.892,-2.422c-0.472,-0.946 -0.709,-2.108 -0.709,-3.487c0,-2.719 1.005,-4.876 3.015,-6.471c2.009,-1.597 4.747,-2.395 8.215,-2.395c0.865,0 1.733,0.051 2.6,0.149c0.866,0.098 1.674,0.217 2.423,0.354c0.748,0.139 1.408,0.286 1.979,0.443c0.572,0.158 1.014,0.295 1.331,0.414l-1.005,4.728c-0.591,-0.315 -1.518,-0.64 -2.778,-0.976c-1.261,-0.334 -2.778,-0.502 -4.55,-0.502c-1.538,0 -2.877,0.306 -4.019,0.916c-1.144,0.611 -1.714,1.566 -1.714,2.867c0,0.67 0.127,1.261 0.384,1.772c0.255,0.513 0.65,0.976 1.183,1.389c0.531,0.414 1.19,0.799 1.979,1.153c0.788,0.355 1.732,0.729 2.837,1.123c1.456,0.552 2.757,1.093 3.9,1.625c1.143,0.532 2.117,1.152 2.924,1.861c0.809,0.709 1.429,1.567 1.862,2.571c0.434,1.005 0.651,2.237 0.651,3.694c0,2.836 -1.055,4.984 -3.162,6.441c-2.109,1.459 -5.112,2.187 -9.012,2.187c-2.719,0 -4.847,-0.227 -6.384,-0.679c-1.536,-0.452 -2.58,-0.798 -3.132,-1.035l1.005,-4.728c0.63,0.237 1.635,0.592 3.014,1.065c1.379,0.472 3.212,0.709 5.497,0.709" style="fill:#e8e8e8;fill-rule:nonzero;"/><path d="M130.279,106.849l11.642,0l0,4.61l-11.642,0l0,14.184c0,1.536 0.118,2.807 0.354,3.811c0.237,1.005 0.591,1.794 1.064,2.365c0.473,0.572 1.064,0.975 1.773,1.211c0.709,0.236 1.537,0.355 2.482,0.355c1.655,0 2.985,-0.186 3.99,-0.562c1.004,-0.373 1.703,-0.639 2.097,-0.797l1.064,4.55c-0.552,0.277 -1.517,0.621 -2.896,1.035c-1.379,0.413 -2.954,0.62 -4.727,0.62c-2.089,0 -3.812,-0.266 -5.172,-0.798c-1.359,-0.531 -2.452,-1.33 -3.279,-2.394c-0.828,-1.063 -1.41,-2.373 -1.744,-3.929c-0.335,-1.557 -0.502,-3.359 -0.502,-5.408l0,-27.422l5.496,-0.946l0,9.515Z" style="fill:#e8e8e8;fill-rule:nonzero;"/><path d="M170.052,122.215c0,-3.466 -0.779,-6.215 -2.334,-8.244c-1.557,-2.029 -3.674,-3.044 -6.354,-3.044c-2.679,0 -4.796,1.015 -6.352,3.044c-1.558,2.029 -2.335,4.778 -2.335,8.244c0,3.467 0.777,6.216 2.335,8.244c1.556,2.03 3.673,3.044 6.352,3.044c2.68,0 4.797,-1.014 6.354,-3.044c1.555,-2.028 2.334,-4.777 2.334,-8.244m5.733,0c0,2.443 -0.355,4.65 -1.064,6.619c-0.71,1.971 -1.705,3.663 -2.985,5.082c-1.281,1.418 -2.807,2.512 -4.58,3.28c-1.772,0.769 -3.703,1.152 -5.792,1.152c-2.088,0 -4.018,-0.383 -5.791,-1.152c-1.773,-0.768 -3.3,-1.862 -4.58,-3.28c-1.281,-1.419 -2.275,-3.111 -2.985,-5.082c-0.709,-1.969 -1.063,-4.176 -1.063,-6.619c0,-2.402 0.354,-4.6 1.063,-6.589c0.71,-1.99 1.704,-3.694 2.985,-5.112c1.28,-1.42 2.807,-2.512 4.58,-3.28c1.773,-0.769 3.703,-1.153 5.791,-1.153c2.089,0 4.02,0.384 5.792,1.153c1.773,0.768 3.299,1.86 4.58,3.28c1.28,1.418 2.275,3.122 2.985,5.112c0.709,1.989 1.064,4.187 1.064,6.589" style="fill:#e8e8e8;fill-rule:nonzero;"/><path d="M203.324,111.695c-0.552,-0.157 -1.291,-0.305 -2.216,-0.443c-0.926,-0.138 -2.178,-0.206 -3.753,-0.206c-2.954,0 -5.23,0.965 -6.826,2.894c-1.596,1.932 -2.393,4.492 -2.393,7.684c0,1.772 0.226,3.289 0.68,4.55c0.452,1.261 1.064,2.305 1.832,3.132c0.768,0.828 1.654,1.439 2.659,1.832c1.005,0.394 2.038,0.592 3.102,0.592c1.458,0 2.798,-0.207 4.019,-0.621c1.221,-0.414 2.187,-0.896 2.896,-1.448l0,-17.966Zm0.06,22.812c-0.473,0.316 -1.389,0.719 -2.749,1.211c-1.359,0.494 -2.945,0.739 -4.757,0.739c-1.853,0 -3.596,-0.295 -5.23,-0.887c-1.636,-0.591 -3.064,-1.507 -4.285,-2.748c-1.222,-1.241 -2.186,-2.787 -2.895,-4.639c-0.71,-1.85 -1.064,-4.056 -1.064,-6.618c0,-2.246 0.334,-4.305 1.004,-6.177c0.669,-1.87 1.645,-3.486 2.925,-4.845c1.28,-1.36 2.847,-2.423 4.699,-3.192c1.851,-0.767 3.939,-1.152 6.264,-1.152c2.561,0 4.797,0.187 6.708,0.561c1.91,0.375 3.516,0.719 4.817,1.035l0,27.421c0,4.727 -1.222,8.156 -3.665,10.283c-2.443,2.128 -6.146,3.191 -11.11,3.191c-1.931,0 -3.753,-0.157 -5.467,-0.473c-1.714,-0.315 -3.201,-0.689 -4.462,-1.123l1.005,-4.787c1.102,0.434 2.452,0.819 4.048,1.154c1.596,0.334 3.259,0.502 4.994,0.502c3.27,0 5.623,-0.65 7.063,-1.951c1.437,-1.299 2.157,-3.368 2.157,-6.205l0,-1.3Z" style="fill:#e8e8e8;fill-rule:nonzero;"/><path d="M238.251,119.259c0.039,-2.481 -0.582,-4.52 -1.862,-6.115c-1.281,-1.596 -3.044,-2.395 -5.289,-2.395c-1.262,0 -2.374,0.247 -3.339,0.739c-0.966,0.494 -1.783,1.133 -2.453,1.921c-0.67,0.788 -1.192,1.695 -1.566,2.719c-0.375,1.025 -0.62,2.069 -0.739,3.131l15.248,0Zm-21.098,3.016c0,-2.719 0.393,-5.093 1.181,-7.122c0.788,-2.029 1.833,-3.713 3.133,-5.053c1.3,-1.339 2.797,-2.344 4.492,-3.014c1.693,-0.67 3.427,-1.005 5.2,-1.005c4.137,0 7.308,1.29 9.515,3.871c2.206,2.581 3.309,6.511 3.309,11.79l0,0.916c0,0.375 -0.02,0.719 -0.059,1.035l-21.039,0c0.237,3.191 1.162,5.614 2.778,7.268c1.615,1.655 4.137,2.483 7.565,2.483c1.929,0 3.555,-0.167 4.875,-0.502c1.32,-0.335 2.314,-0.66 2.984,-0.976l0.769,4.609c-0.67,0.355 -1.842,0.731 -3.517,1.123c-1.674,0.395 -3.575,0.592 -5.702,0.592c-2.68,0 -4.994,-0.404 -6.945,-1.212c-1.95,-0.807 -3.556,-1.921 -4.816,-3.34c-1.262,-1.417 -2.197,-3.101 -2.808,-5.051c-0.61,-1.95 -0.915,-4.088 -0.915,-6.412" style="fill:#e8e8e8;fill-rule:nonzero;"/><path d="M257.634,106.849l11.642,0l0,4.61l-11.642,0l0,14.184c0,1.536 0.118,2.807 0.354,3.811c0.237,1.005 0.591,1.794 1.064,2.365c0.473,0.572 1.064,0.975 1.773,1.211c0.709,0.236 1.537,0.355 2.482,0.355c1.655,0 2.985,-0.186 3.989,-0.562c1.005,-0.373 1.704,-0.639 2.098,-0.797l1.064,4.55c-0.552,0.277 -1.517,0.621 -2.896,1.035c-1.379,0.413 -2.954,0.62 -4.728,0.62c-2.089,0 -3.811,-0.266 -5.171,-0.798c-1.359,-0.531 -2.452,-1.33 -3.28,-2.394c-0.827,-1.063 -1.409,-2.373 -1.743,-3.929c-0.335,-1.557 -0.503,-3.359 -0.503,-5.408l0,-27.422l5.497,-0.946l0,9.515Z" style="fill:#e8e8e8;fill-rule:nonzero;"/><path d="M276.841,137.581l0,-44.915l5.497,-0.945l0,15.719c1.024,-0.393 2.116,-0.7 3.279,-0.916c1.161,-0.216 2.313,-0.325 3.457,-0.325c2.442,0 4.471,0.346 6.088,1.034c1.614,0.691 2.904,1.656 3.87,2.897c0.965,1.24 1.644,2.727 2.039,4.462c0.394,1.733 0.591,3.643 0.591,5.732l0,17.257l-5.495,0l0,-16.075c0,-1.891 -0.13,-3.507 -0.386,-4.847c-0.255,-1.339 -0.678,-2.422 -1.269,-3.25c-0.591,-0.827 -1.38,-1.428 -2.364,-1.803c-0.986,-0.374 -2.207,-0.56 -3.665,-0.56c-0.591,0 -1.202,0.039 -1.832,0.117c-0.63,0.08 -1.231,0.168 -1.803,0.266c-0.57,0.098 -1.084,0.207 -1.536,0.326c-0.454,0.117 -0.779,0.217 -0.974,0.295l0,25.531l-5.498,0Z" style="fill:#e8e8e8;fill-rule:nonzero;"/><path d="M330.561,119.259c0.039,-2.481 -0.581,-4.52 -1.861,-6.115c-1.282,-1.596 -3.043,-2.395 -5.289,-2.395c-1.262,0 -2.374,0.247 -3.34,0.739c-0.966,0.494 -1.782,1.133 -2.451,1.921c-0.671,0.788 -1.193,1.695 -1.568,2.719c-0.374,1.025 -0.62,2.069 -0.738,3.131l15.247,0Zm-21.098,3.016c0,-2.719 0.394,-5.093 1.182,-7.122c0.788,-2.029 1.832,-3.713 3.133,-5.053c1.3,-1.339 2.797,-2.344 4.491,-3.014c1.693,-0.67 3.428,-1.005 5.2,-1.005c4.138,0 7.308,1.29 9.515,3.871c2.207,2.581 3.309,6.511 3.309,11.79l0,0.916c0,0.375 -0.019,0.719 -0.058,1.035l-21.039,0c0.236,3.191 1.162,5.614 2.777,7.268c1.615,1.655 4.137,2.483 7.566,2.483c1.928,0 3.554,-0.167 4.875,-0.502c1.319,-0.335 2.314,-0.66 2.984,-0.976l0.768,4.609c-0.669,0.355 -1.842,0.731 -3.516,1.123c-1.675,0.395 -3.575,0.592 -5.702,0.592c-2.681,0 -4.995,-0.404 -6.946,-1.212c-1.95,-0.807 -3.555,-1.921 -4.816,-3.34c-1.261,-1.417 -2.196,-3.101 -2.807,-5.051c-0.611,-1.95 -0.916,-4.088 -0.916,-6.412" style="fill:#e8e8e8;fill-rule:nonzero;"/><path d="M356.151,106.199c0.473,0 1.014,0.03 1.625,0.088c0.61,0.059 1.211,0.139 1.803,0.237c0.589,0.099 1.132,0.197 1.625,0.295c0.492,0.099 0.856,0.188 1.093,0.267l-0.947,4.786c-0.433,-0.157 -1.151,-0.345 -2.156,-0.562c-1.005,-0.215 -2.296,-0.324 -3.87,-0.324c-1.026,0 -2.041,0.109 -3.044,0.324c-1.005,0.217 -1.666,0.367 -1.981,0.445l0,25.826l-5.495,0l0,-29.432c1.298,-0.473 2.914,-0.916 4.844,-1.33c1.931,-0.413 4.099,-0.62 6.502,-0.62" style="fill:#e8e8e8;fill-rule:nonzero;"/></svg>