<?xml version="1.0" standalone="no"?>
<!DOCTYPE svg PUBLIC "-//W3C//DTD SVG 20010904//EN"
 "http://www.w3.org/TR/2001/REC-SVG-20010904/DTD/svg10.dtd">
<svg version="1.0" xmlns="http://www.w3.org/2000/svg"
 width="2483.000000pt" height="2483.000000pt" viewBox="0 0 2483.000000 2483.000000"
 preserveAspectRatio="xMidYMid meet">
<metadata>
Created by potrace 1.11, written by Peter Selinger 2001-2013
</metadata>
<g transform="translate(0.000000,2483.000000) scale(0.100000,-0.100000)"
fill="#000000" stroke="none">
<path d="M11227 19493 c-2 -5 -4 -285 -4 -623 0 -539 -6 -820 -18 -839 -2 -3
-6 -28 -9 -56 -8 -65 -13 -93 -37 -195 -109 -467 -373 -907 -729 -1219 -117
-102 -137 -117 -255 -196 -261 -175 -595 -311 -880 -359 -211 -36 -277 -39
-975 -40 l-625 -1 -3 -1178 -2 -1179 757 5 c417 3 776 7 798 10 22 3 69 9 105
12 36 4 76 8 90 10 14 2 61 9 105 15 124 18 133 19 245 41 187 36 517 126 625
169 11 5 65 25 120 45 55 20 114 43 130 50 17 7 73 32 125 55 494 217 965 539
1377 941 128 125 237 242 328 354 22 27 45 53 50 59 19 20 201 271 252 346
161 242 351 605 450 860 70 181 168 484 188 576 2 11 12 57 23 104 23 98 68
339 78 420 3 30 8 63 10 74 2 10 6 51 10 90 3 39 8 87 11 106 3 19 7 376 10
793 l5 757 -1175 0 c-647 0 -1178 -3 -1180 -7z"/>
<path d="M15707 15964 c-1 -2 -45 -5 -97 -8 -52 -3 -113 -8 -135 -11 -49 -6
-109 -13 -172 -20 -27 -3 -59 -8 -73 -10 -14 -3 -43 -7 -65 -11 -22 -3 -47 -7
-55 -9 -8 -3 -33 -7 -55 -11 -22 -3 -69 -13 -105 -21 -36 -8 -76 -17 -90 -19
-103 -19 -382 -103 -560 -169 -223 -83 -549 -234 -670 -310 -22 -14 -42 -25
-45 -25 -3 0 -31 -16 -61 -35 -30 -19 -56 -35 -59 -35 -9 0 -333 -222 -380
-261 -11 -9 -58 -47 -105 -85 -131 -104 -223 -187 -371 -334 -117 -116 -180
-185 -317 -344 -43 -50 -197 -258 -264 -356 -177 -260 -334 -555 -465 -873
-42 -102 -156 -437 -167 -489 -3 -12 -12 -48 -21 -78 -8 -30 -17 -67 -20 -82
-3 -14 -14 -64 -24 -110 -11 -46 -22 -101 -26 -123 -3 -22 -7 -47 -10 -55 -4
-14 -8 -40 -20 -127 -3 -21 -8 -49 -10 -63 -2 -14 -7 -52 -10 -85 -4 -33 -8
-76 -11 -95 -14 -122 -19 -352 -19 -1040 0 -834 7 -1031 41 -1225 3 -16 7 -48
9 -70 3 -22 7 -52 10 -67 4 -15 8 -39 10 -55 12 -93 64 -315 117 -498 110
-381 306 -825 496 -1125 325 -514 652 -886 1078 -1226 54 -43 108 -87 118 -96
11 -10 23 -18 26 -18 4 0 18 -9 31 -21 42 -36 299 -203 429 -279 206 -119 483
-248 725 -338 68 -25 257 -88 290 -96 6 -2 17 -6 25 -9 22 -8 208 -55 266 -67
123 -25 261 -50 303 -56 25 -3 53 -7 61 -9 16 -4 55 -9 155 -21 201 -22 377
-27 1028 -28 l667 -1 1 25 c3 162 0 2322 -4 2326 -3 3 -310 7 -683 8 -374 2
-699 6 -724 9 -25 4 -67 9 -95 13 -91 11 -280 54 -387 88 -802 257 -1407 925
-1587 1751 -20 91 -26 129 -39 245 -9 87 -9 1584 1 1683 25 257 111 545 236
797 275 552 760 973 1356 1178 78 27 164 52 195 58 14 2 45 9 70 14 193 42
212 43 945 47 390 3 711 6 713 8 3 2 5 2151 2 2321 l0 31 -700 -1 c-386 0
-702 -1 -703 -2z"/>
</g>
</svg>
